M48
; DRILL file KiCad 10.0.0 date 2026-07-18T22:04:32
; FORMAT={-:-/ absolute / metric / decimal}
; #@! TF.CreationDate,2026-07-18T22:04:32-07:00
; #@! TF.GenerationSoftware,Kicad,Pcbnew,10.0.0
; #@! TF.FileFunction,Plated,1,2,PTH
FMAT,2
METRIC
; #@! TA.AperFunction,Plated,PTH,ViaDrill
T1C0.300
; #@! TA.AperFunction,Plated,PTH,ComponentDrill
T2C0.800
; #@! TA.AperFunction,Plated,PTH,ComponentDrill
T3C0.900
; #@! TA.AperFunction,Plated,PTH,ComponentDrill
T4C1.000
; #@! TA.AperFunction,Plated,PTH,ComponentDrill
T5C1.100
%
G90
G05
T1
X127.1Y-60.8
X127.95Y-55.8
X128.0Y-50.0
X128.5Y-141.2
X129.25Y-129.6
X129.5Y-150.7
X130.8Y-127.2
X130.8Y-128.0
X131.5Y-111.7
X131.7Y-128.75
X132.1Y-148.5
X133.5Y-47.6
X133.6Y-61.6
X133.6Y-96.4
X133.7Y-64.0
X133.8Y-57.8
X133.8Y-74.7
X133.8Y-90.3
X133.9Y-125.8
X136.0Y-116.0
X136.1Y-119.7
X136.646Y-125.946
X136.8Y-151.4
X137.6Y-153.0
X138.3Y-125.0
X138.6Y-153.4
X139.1Y-108.2
X139.25Y-84.6
X139.7Y-49.7
X139.9Y-97.0
X140.0Y-78.25
X140.0Y-87.3
X140.4Y-154.2
X142.6Y-101.0
X143.243Y-67.593
X143.3Y-103.3
X144.6Y-60.4
X144.7Y-108.8
X145.1Y-117.4
X145.1Y-141.7
X145.2Y-78.2
X145.4Y-95.1
X145.4Y-149.2
X145.4Y-150.0
X145.4Y-150.8
X145.7Y-71.4
X145.8Y-54.0
X145.9Y-143.6
X146.0Y-122.2
X146.2Y-151.85
X146.5Y-128.75
X146.8Y-100.8
X146.9Y-109.9
X147.0Y-113.2
X147.0Y-152.4
X147.1Y-85.9
X147.3Y-63.6
X147.4Y-140.3
X147.46Y-125.05
X147.5Y-137.6
X147.7Y-133.6
X147.8Y-153.45
X148.2Y-103.4
X148.3Y-125.0
X148.5Y-153.9
X149.1Y-91.5
X149.2Y-94.2
X149.7Y-97.5
X150.41Y-150.8
X150.41Y-151.6
X150.41Y-152.4
X150.6Y-153.4
X150.7Y-129.1
X151.1Y-93.7
X151.3Y-124.7
X151.4Y-114.5
X151.4Y-118.0
X151.7Y-103.7
X151.85Y-92.7
X151.9Y-71.4
X152.1Y-63.0
X152.1Y-67.4
X152.4Y-58.6
X152.55Y-99.7
X153.007Y-130.093
X153.25Y-100.794
X153.531Y-136.505
X154.032Y-130.05
X154.25Y-143.8
X154.7Y-48.9
X154.75Y-116.7
X155.0Y-146.4
X155.3Y-83.0
X155.8Y-153.9
X156.1Y-149.9
X156.9Y-59.1
X157.0Y-61.7
X157.7Y-121.1
X157.8Y-70.4
X157.9Y-129.1
X158.0Y-55.1
X158.0Y-99.6
X158.4Y-87.6
X159.4Y-64.3
X159.5Y-82.2
X159.7Y-114.4
X160.2Y-67.0
X160.6Y-141.9
X161.2Y-56.1
X161.512Y-126.7
X162.262Y-125.8
X162.4Y-140.7
X163.725Y-153.65
T2
X141.98Y-47.6
X141.98Y-50.14
X141.98Y-52.68
X141.98Y-55.22
X141.98Y-57.76
X141.98Y-60.3
X141.98Y-62.84
X141.98Y-65.38
X141.98Y-71.92
X141.98Y-74.46
X141.98Y-77.0
X141.98Y-79.54
X141.98Y-82.08
X141.98Y-84.62
X141.98Y-87.16
X141.98Y-89.7
X141.98Y-106.1
X141.98Y-108.64
X141.98Y-111.18
X141.98Y-113.72
X141.98Y-116.26
X141.98Y-118.8
X141.98Y-121.34
X149.6Y-47.6
X149.6Y-50.14
X149.6Y-52.68
X149.6Y-55.22
X149.6Y-57.76
X149.6Y-60.3
X149.6Y-62.84
X149.6Y-65.38
X149.6Y-71.92
X149.6Y-74.46
X149.6Y-77.0
X149.6Y-79.54
X149.6Y-82.08
X149.6Y-84.62
X149.6Y-87.16
X149.6Y-89.7
X149.6Y-106.1
X149.6Y-108.64
X149.6Y-111.18
X149.6Y-113.72
X149.6Y-116.26
X149.6Y-118.8
X149.6Y-121.34
T3
X132.312Y-124.278
X134.852Y-124.278
X144.593Y-49.985
X144.593Y-57.985
X144.593Y-65.985
X144.593Y-73.985
X144.593Y-81.985
X144.593Y-89.985
X144.593Y-97.985
X144.593Y-105.985
X147.132Y-49.985
X147.132Y-57.985
X147.132Y-65.985
X147.132Y-73.985
X147.132Y-81.985
X147.132Y-89.985
X147.132Y-97.985
X147.132Y-105.985
X156.873Y-124.278
X159.412Y-124.278
T4
X139.66Y-131.2
X139.66Y-133.74
X139.66Y-136.28
X139.66Y-138.82
X139.66Y-141.36
X139.66Y-143.9
X139.66Y-146.44
X139.66Y-148.98
X142.2Y-131.2
X142.2Y-133.74
X142.2Y-136.28
X142.2Y-138.82
X142.2Y-141.36
X142.2Y-143.9
X142.2Y-146.44
X142.2Y-148.98
X149.66Y-131.2
X149.66Y-133.74
X149.66Y-136.28
X149.66Y-138.82
X149.66Y-141.36
X149.66Y-143.9
X149.66Y-146.44
X149.66Y-148.98
X152.2Y-131.2
X152.2Y-133.74
X152.2Y-136.28
X152.2Y-138.82
X152.2Y-141.36
X152.2Y-143.9
X152.2Y-146.44
X152.2Y-148.98
T5
X131.042Y-49.945
X131.042Y-55.025
X131.042Y-65.945
X131.042Y-71.025
X131.042Y-81.945
X131.042Y-87.025
X131.042Y-97.945
X131.042Y-103.025
X131.042Y-131.62
X131.042Y-134.16
X131.042Y-136.7
X133.582Y-49.945
X133.582Y-55.025
X133.582Y-65.945
X133.582Y-71.025
X133.582Y-81.945
X133.582Y-87.025
X133.582Y-97.945
X133.582Y-103.025
X133.582Y-108.921
X133.582Y-117.421
X133.582Y-120.421
X133.582Y-143.01
X133.582Y-151.51
X133.582Y-154.51
X136.123Y-49.945
X136.123Y-55.025
X136.123Y-65.945
X136.123Y-71.025
X136.123Y-81.945
X136.123Y-87.025
X136.123Y-97.945
X136.123Y-103.025
X136.123Y-131.62
X136.123Y-134.16
X136.123Y-136.7
X155.602Y-57.945
X155.602Y-63.025
X155.602Y-73.945
X155.602Y-79.025
X155.602Y-89.945
X155.602Y-95.025
X155.602Y-105.945
X155.602Y-111.025
X155.602Y-131.62
X155.602Y-134.16
X155.602Y-136.7
X158.142Y-57.945
X158.142Y-63.025
X158.142Y-73.945
X158.142Y-79.025
X158.142Y-89.945
X158.142Y-95.025
X158.142Y-105.945
X158.142Y-111.025
X158.142Y-143.01
X158.142Y-151.51
X158.142Y-154.51
X160.683Y-57.945
X160.683Y-63.025
X160.683Y-73.945
X160.683Y-79.025
X160.683Y-89.945
X160.683Y-95.025
X160.683Y-105.945
X160.683Y-111.025
X160.683Y-131.62
X160.683Y-134.16
X160.683Y-136.7
M30
