%TF.GenerationSoftware,KiCad,Pcbnew,10.0.0*%
%TF.CreationDate,2026-07-18T12:55:48-07:00*%
%TF.ProjectId,pulses_plus_submin_panel,70756c73-6573-45f7-906c-75735f737562,rev?*%
%TF.SameCoordinates,Original*%
%TF.FileFunction,Soldermask,Top*%
%TF.FilePolarity,Negative*%
%FSLAX46Y46*%
G04 Gerber Fmt 4.6, Leading zero omitted, Abs format (unit mm)*
G04 Created by KiCad (PCBNEW 10.0.0) date 2026-07-18 12:55:48*
%MOMM*%
%LPD*%
G01*
G04 APERTURE LIST*
%ADD10C,0.300000*%
%ADD11C,1.000000*%
G04 APERTURE END LIST*
D10*
X112353571Y-44079257D02*
X112353571Y-41079257D01*
X112353571Y-41079257D02*
X112889285Y-41079257D01*
X112889285Y-41079257D02*
X113210714Y-41222114D01*
X113210714Y-41222114D02*
X113424999Y-41507828D01*
X113424999Y-41507828D02*
X113532142Y-41793542D01*
X113532142Y-41793542D02*
X113639285Y-42364971D01*
X113639285Y-42364971D02*
X113639285Y-42793542D01*
X113639285Y-42793542D02*
X113532142Y-43364971D01*
X113532142Y-43364971D02*
X113424999Y-43650685D01*
X113424999Y-43650685D02*
X113210714Y-43936400D01*
X113210714Y-43936400D02*
X112889285Y-44079257D01*
X112889285Y-44079257D02*
X112353571Y-44079257D01*
X115032142Y-41079257D02*
X115460714Y-41079257D01*
X115460714Y-41079257D02*
X115674999Y-41222114D01*
X115674999Y-41222114D02*
X115889285Y-41507828D01*
X115889285Y-41507828D02*
X115996428Y-42079257D01*
X115996428Y-42079257D02*
X115996428Y-43079257D01*
X115996428Y-43079257D02*
X115889285Y-43650685D01*
X115889285Y-43650685D02*
X115674999Y-43936400D01*
X115674999Y-43936400D02*
X115460714Y-44079257D01*
X115460714Y-44079257D02*
X115032142Y-44079257D01*
X115032142Y-44079257D02*
X114817857Y-43936400D01*
X114817857Y-43936400D02*
X114603571Y-43650685D01*
X114603571Y-43650685D02*
X114496428Y-43079257D01*
X114496428Y-43079257D02*
X114496428Y-42079257D01*
X114496428Y-42079257D02*
X114603571Y-41507828D01*
X114603571Y-41507828D02*
X114817857Y-41222114D01*
X114817857Y-41222114D02*
X115032142Y-41079257D01*
X116960714Y-41079257D02*
X116960714Y-43507828D01*
X116960714Y-43507828D02*
X117067857Y-43793542D01*
X117067857Y-43793542D02*
X117175000Y-43936400D01*
X117175000Y-43936400D02*
X117389285Y-44079257D01*
X117389285Y-44079257D02*
X117817857Y-44079257D01*
X117817857Y-44079257D02*
X118032142Y-43936400D01*
X118032142Y-43936400D02*
X118139285Y-43793542D01*
X118139285Y-43793542D02*
X118246428Y-43507828D01*
X118246428Y-43507828D02*
X118246428Y-41079257D01*
X120067857Y-42507828D02*
X120389285Y-42650685D01*
X120389285Y-42650685D02*
X120496428Y-42793542D01*
X120496428Y-42793542D02*
X120603571Y-43079257D01*
X120603571Y-43079257D02*
X120603571Y-43507828D01*
X120603571Y-43507828D02*
X120496428Y-43793542D01*
X120496428Y-43793542D02*
X120389285Y-43936400D01*
X120389285Y-43936400D02*
X120175000Y-44079257D01*
X120175000Y-44079257D02*
X119317857Y-44079257D01*
X119317857Y-44079257D02*
X119317857Y-41079257D01*
X119317857Y-41079257D02*
X120067857Y-41079257D01*
X120067857Y-41079257D02*
X120282143Y-41222114D01*
X120282143Y-41222114D02*
X120389285Y-41364971D01*
X120389285Y-41364971D02*
X120496428Y-41650685D01*
X120496428Y-41650685D02*
X120496428Y-41936400D01*
X120496428Y-41936400D02*
X120389285Y-42222114D01*
X120389285Y-42222114D02*
X120282143Y-42364971D01*
X120282143Y-42364971D02*
X120067857Y-42507828D01*
X120067857Y-42507828D02*
X119317857Y-42507828D01*
X122639285Y-44079257D02*
X121567857Y-44079257D01*
X121567857Y-44079257D02*
X121567857Y-41079257D01*
X123389286Y-42507828D02*
X124139286Y-42507828D01*
X124460714Y-44079257D02*
X123389286Y-44079257D01*
X123389286Y-44079257D02*
X123389286Y-41079257D01*
X123389286Y-41079257D02*
X124460714Y-41079257D01*
X125425000Y-44079257D02*
X125425000Y-41079257D01*
X125425000Y-41079257D02*
X126282143Y-41079257D01*
X126282143Y-41079257D02*
X126496428Y-41222114D01*
X126496428Y-41222114D02*
X126603571Y-41364971D01*
X126603571Y-41364971D02*
X126710714Y-41650685D01*
X126710714Y-41650685D02*
X126710714Y-42079257D01*
X126710714Y-42079257D02*
X126603571Y-42364971D01*
X126603571Y-42364971D02*
X126496428Y-42507828D01*
X126496428Y-42507828D02*
X126282143Y-42650685D01*
X126282143Y-42650685D02*
X125425000Y-42650685D01*
X128746428Y-44079257D02*
X127675000Y-44079257D01*
X127675000Y-44079257D02*
X127675000Y-41079257D01*
X129496429Y-41079257D02*
X129496429Y-43507828D01*
X129496429Y-43507828D02*
X129603572Y-43793542D01*
X129603572Y-43793542D02*
X129710715Y-43936400D01*
X129710715Y-43936400D02*
X129925000Y-44079257D01*
X129925000Y-44079257D02*
X130353572Y-44079257D01*
X130353572Y-44079257D02*
X130567857Y-43936400D01*
X130567857Y-43936400D02*
X130675000Y-43793542D01*
X130675000Y-43793542D02*
X130782143Y-43507828D01*
X130782143Y-43507828D02*
X130782143Y-41079257D01*
X131746429Y-43936400D02*
X132067858Y-44079257D01*
X132067858Y-44079257D02*
X132603572Y-44079257D01*
X132603572Y-44079257D02*
X132817858Y-43936400D01*
X132817858Y-43936400D02*
X132925000Y-43793542D01*
X132925000Y-43793542D02*
X133032143Y-43507828D01*
X133032143Y-43507828D02*
X133032143Y-43222114D01*
X133032143Y-43222114D02*
X132925000Y-42936400D01*
X132925000Y-42936400D02*
X132817858Y-42793542D01*
X132817858Y-42793542D02*
X132603572Y-42650685D01*
X132603572Y-42650685D02*
X132175000Y-42507828D01*
X132175000Y-42507828D02*
X131960715Y-42364971D01*
X131960715Y-42364971D02*
X131853572Y-42222114D01*
X131853572Y-42222114D02*
X131746429Y-41936400D01*
X131746429Y-41936400D02*
X131746429Y-41650685D01*
X131746429Y-41650685D02*
X131853572Y-41364971D01*
X131853572Y-41364971D02*
X131960715Y-41222114D01*
X131960715Y-41222114D02*
X132175000Y-41079257D01*
X132175000Y-41079257D02*
X132710715Y-41079257D01*
X132710715Y-41079257D02*
X133032143Y-41222114D01*
X133996429Y-42936400D02*
X135710715Y-42936400D01*
X134853572Y-44079257D02*
X134853572Y-41793542D01*
X136782143Y-42936400D02*
X138496429Y-42936400D01*
X137639286Y-44079257D02*
X137639286Y-41793542D01*
X139567857Y-44079257D02*
X139567857Y-41079257D01*
X139567857Y-41079257D02*
X140425000Y-41079257D01*
X140425000Y-41079257D02*
X140639285Y-41222114D01*
X140639285Y-41222114D02*
X140746428Y-41364971D01*
X140746428Y-41364971D02*
X140853571Y-41650685D01*
X140853571Y-41650685D02*
X140853571Y-42079257D01*
X140853571Y-42079257D02*
X140746428Y-42364971D01*
X140746428Y-42364971D02*
X140639285Y-42507828D01*
X140639285Y-42507828D02*
X140425000Y-42650685D01*
X140425000Y-42650685D02*
X139567857Y-42650685D01*
X141817857Y-41079257D02*
X141817857Y-43507828D01*
X141817857Y-43507828D02*
X141925000Y-43793542D01*
X141925000Y-43793542D02*
X142032143Y-43936400D01*
X142032143Y-43936400D02*
X142246428Y-44079257D01*
X142246428Y-44079257D02*
X142675000Y-44079257D01*
X142675000Y-44079257D02*
X142889285Y-43936400D01*
X142889285Y-43936400D02*
X142996428Y-43793542D01*
X142996428Y-43793542D02*
X143103571Y-43507828D01*
X143103571Y-43507828D02*
X143103571Y-41079257D01*
X145246428Y-44079257D02*
X144175000Y-44079257D01*
X144175000Y-44079257D02*
X144175000Y-41079257D01*
X145889286Y-43936400D02*
X146210715Y-44079257D01*
X146210715Y-44079257D02*
X146746429Y-44079257D01*
X146746429Y-44079257D02*
X146960715Y-43936400D01*
X146960715Y-43936400D02*
X147067857Y-43793542D01*
X147067857Y-43793542D02*
X147175000Y-43507828D01*
X147175000Y-43507828D02*
X147175000Y-43222114D01*
X147175000Y-43222114D02*
X147067857Y-42936400D01*
X147067857Y-42936400D02*
X146960715Y-42793542D01*
X146960715Y-42793542D02*
X146746429Y-42650685D01*
X146746429Y-42650685D02*
X146317857Y-42507828D01*
X146317857Y-42507828D02*
X146103572Y-42364971D01*
X146103572Y-42364971D02*
X145996429Y-42222114D01*
X145996429Y-42222114D02*
X145889286Y-41936400D01*
X145889286Y-41936400D02*
X145889286Y-41650685D01*
X145889286Y-41650685D02*
X145996429Y-41364971D01*
X145996429Y-41364971D02*
X146103572Y-41222114D01*
X146103572Y-41222114D02*
X146317857Y-41079257D01*
X146317857Y-41079257D02*
X146853572Y-41079257D01*
X146853572Y-41079257D02*
X147175000Y-41222114D01*
X148139286Y-42507828D02*
X148889286Y-42507828D01*
X149210714Y-44079257D02*
X148139286Y-44079257D01*
X148139286Y-44079257D02*
X148139286Y-41079257D01*
X148139286Y-41079257D02*
X149210714Y-41079257D01*
X150067857Y-43936400D02*
X150389286Y-44079257D01*
X150389286Y-44079257D02*
X150925000Y-44079257D01*
X150925000Y-44079257D02*
X151139286Y-43936400D01*
X151139286Y-43936400D02*
X151246428Y-43793542D01*
X151246428Y-43793542D02*
X151353571Y-43507828D01*
X151353571Y-43507828D02*
X151353571Y-43222114D01*
X151353571Y-43222114D02*
X151246428Y-42936400D01*
X151246428Y-42936400D02*
X151139286Y-42793542D01*
X151139286Y-42793542D02*
X150925000Y-42650685D01*
X150925000Y-42650685D02*
X150496428Y-42507828D01*
X150496428Y-42507828D02*
X150282143Y-42364971D01*
X150282143Y-42364971D02*
X150175000Y-42222114D01*
X150175000Y-42222114D02*
X150067857Y-41936400D01*
X150067857Y-41936400D02*
X150067857Y-41650685D01*
X150067857Y-41650685D02*
X150175000Y-41364971D01*
X150175000Y-41364971D02*
X150282143Y-41222114D01*
X150282143Y-41222114D02*
X150496428Y-41079257D01*
X150496428Y-41079257D02*
X151032143Y-41079257D01*
X151032143Y-41079257D02*
X151353571Y-41222114D01*
D11*
X144100000Y-140400000D02*
X144100000Y-146400000D01*
X138500000Y-134800000D02*
X144100000Y-140400000D01*
X140200000Y-122500000D02*
X138500000Y-124200000D01*
X144200000Y-122500000D02*
X140200000Y-122500000D01*
X138500000Y-124200000D02*
X138500000Y-134800000D01*
X124200000Y-126100000D02*
X120700000Y-122600000D01*
X124200000Y-138700000D02*
X124200000Y-126100000D01*
X128050000Y-142550000D02*
X124200000Y-138700000D01*
X124300000Y-146300000D02*
X128050000Y-142550000D01*
X119700000Y-146300000D02*
X124300000Y-146300000D01*
X132000000Y-48200000D02*
X122300000Y-48200000D01*
X139000000Y-112200000D02*
X144200000Y-107000000D01*
X119700000Y-112200000D02*
X139000000Y-112200000D01*
X141400000Y-104200000D02*
X144200000Y-107000000D01*
X132100000Y-104200000D02*
X141400000Y-104200000D01*
X122200000Y-96400000D02*
X119600000Y-99000000D01*
X132000000Y-96400000D02*
X122200000Y-96400000D01*
X141200000Y-88100000D02*
X144100000Y-91000000D01*
X131900000Y-88100000D02*
X141200000Y-88100000D01*
X122100000Y-80200000D02*
X119500000Y-82800000D01*
X131800000Y-80200000D02*
X122100000Y-80200000D01*
X141900000Y-72500000D02*
X144300000Y-74900000D01*
X131900000Y-72500000D02*
X141900000Y-72500000D01*
X122100000Y-64300000D02*
X119600000Y-66800000D01*
X132000000Y-64300000D02*
X122100000Y-64300000D01*
X141800000Y-56200000D02*
X144300000Y-58700000D01*
X131900000Y-56200000D02*
X141800000Y-56200000D01*
X122300000Y-48200000D02*
X119800000Y-50700000D01*
M02*
