%TF.GenerationSoftware,KiCad,Pcbnew,10.0.0*%
%TF.CreationDate,2026-08-09T14:04:12-07:00*%
%TF.ProjectId,pulses_plus_submin_panel_v2,70756c73-6573-45f7-906c-75735f737562,rev?*%
%TF.SameCoordinates,Original*%
%TF.FileFunction,Profile,NP*%
%FSLAX46Y46*%
G04 Gerber Fmt 4.6, Leading zero omitted, Abs format (unit mm)*
G04 Created by KiCad (PCBNEW 10.0.0) date 2026-08-09 14:04:12*
%MOMM*%
%LPD*%
G01*
G04 APERTURE LIST*
%TA.AperFunction,Profile*%
%ADD10C,0.100000*%
%TD*%
G04 APERTURE END LIST*
D10*
X111840000Y-34907000D02*
X152000000Y-34907000D01*
X111840000Y-163407000D02*
X111840000Y-34907000D01*
X152000000Y-34907000D02*
X152000000Y-163407000D01*
X152000000Y-163407000D02*
X111840000Y-163407000D01*
X120940000Y-36307000D02*
G75*
G02*
X120940000Y-39507000I0J-1600000D01*
G01*
X120940000Y-39507000D02*
X117740000Y-39507000D01*
X117740000Y-39507000D02*
G75*
G02*
X117740000Y-36307000I0J1600000D01*
G01*
X117740000Y-36307000D02*
X120940000Y-36307000D01*
X120940000Y-158807000D02*
G75*
G02*
X120940000Y-162007000I0J-1600000D01*
G01*
X120940000Y-162007000D02*
X117740000Y-162007000D01*
X117740000Y-162007000D02*
G75*
G02*
X117740000Y-158807000I0J1600000D01*
G01*
X117740000Y-158807000D02*
X120940000Y-158807000D01*
X146340000Y-36307000D02*
G75*
G02*
X146340000Y-39507000I0J-1600000D01*
G01*
X146340000Y-39507000D02*
X143140000Y-39507000D01*
X143140000Y-39507000D02*
G75*
G02*
X143140000Y-36307000I0J1600000D01*
G01*
X143140000Y-36307000D02*
X146340000Y-36307000D01*
X146340000Y-158807000D02*
G75*
G02*
X146340000Y-162007000I0J-1600000D01*
G01*
X146340000Y-162007000D02*
X143140000Y-162007000D01*
X143140000Y-162007000D02*
G75*
G02*
X143140000Y-158807000I0J1600000D01*
G01*
X143140000Y-158807000D02*
X146340000Y-158807000D01*
M02*
