M48
; DRILL file KiCad 10.0.0 date 2026-07-18T12:55:46
; FORMAT={-:-/ absolute / metric / decimal}
; #@! TF.CreationDate,2026-07-18T12:55:46-07:00
; #@! TF.GenerationSoftware,Kicad,Pcbnew,10.0.0
; #@! TF.FileFunction,NonPlated,1,2,NPTH
FMAT,2
METRIC
; #@! TA.AperFunction,NonPlated,NPTH,ComponentDrill
T1C3.200
; #@! TA.AperFunction,NonPlated,NPTH,ComponentDrill
T2C4.950
; #@! TA.AperFunction,NonPlated,NPTH,ComponentDrill
T3C6.000
%
G90
G05
T1
X119.34Y-37.907
X119.34Y-160.407
X119.64Y-122.6
X131.92Y-48.307
X131.92Y-56.307
X131.92Y-64.307
X131.92Y-72.307
X131.92Y-80.307
X131.92Y-88.307
X131.92Y-96.307
X131.92Y-104.307
X144.2Y-122.6
X144.5Y-37.907
X144.5Y-160.407
T2
X119.64Y-50.807
X119.64Y-66.807
X119.64Y-82.807
X119.64Y-98.807
X119.64Y-132.482
X144.2Y-58.807
X144.2Y-74.807
X144.2Y-90.807
X144.2Y-106.807
X144.2Y-132.482
T3
X119.64Y-112.243
X119.64Y-146.332
X144.2Y-146.332
M30
