%TF.GenerationSoftware,KiCad,Pcbnew,10.0.0*%
%TF.CreationDate,2026-08-09T13:12:01-07:00*%
%TF.ProjectId,pulses_plus_submin_panel,70756c73-6573-45f7-906c-75735f737562,rev?*%
%TF.SameCoordinates,Original*%
%TF.FileFunction,Copper,L2,Bot*%
%TF.FilePolarity,Positive*%
%FSLAX46Y46*%
G04 Gerber Fmt 4.6, Leading zero omitted, Abs format (unit mm)*
G04 Created by KiCad (PCBNEW 10.0.0) date 2026-08-09 13:12:01*
%MOMM*%
%LPD*%
G01*
G04 APERTURE LIST*
G04 APERTURE END LIST*
%TA.AperFunction,Conductor*%
%TO.N,/gnd*%
G36*
X151442539Y-35427185D02*
G01*
X151488294Y-35479989D01*
X151499500Y-35531500D01*
X151499500Y-162782500D01*
X151479815Y-162849539D01*
X151427011Y-162895294D01*
X151375500Y-162906500D01*
X112464500Y-162906500D01*
X112397461Y-162886815D01*
X112351706Y-162834011D01*
X112340500Y-162782500D01*
X112340500Y-160285711D01*
X117489500Y-160285711D01*
X117489500Y-160528288D01*
X117521161Y-160768785D01*
X117583947Y-161003104D01*
X117676773Y-161227205D01*
X117676776Y-161227212D01*
X117798064Y-161437289D01*
X117798066Y-161437292D01*
X117798067Y-161437293D01*
X117945733Y-161629736D01*
X117945739Y-161629743D01*
X118117256Y-161801260D01*
X118117262Y-161801265D01*
X118309711Y-161948936D01*
X118519788Y-162070224D01*
X118743900Y-162163054D01*
X118978211Y-162225838D01*
X119158586Y-162249584D01*
X119218711Y-162257500D01*
X119218712Y-162257500D01*
X119461289Y-162257500D01*
X119509388Y-162251167D01*
X119701789Y-162225838D01*
X119936100Y-162163054D01*
X120160212Y-162070224D01*
X120370289Y-161948936D01*
X120562738Y-161801265D01*
X120734265Y-161629738D01*
X120881936Y-161437289D01*
X121003224Y-161227212D01*
X121096054Y-161003100D01*
X121158838Y-160768789D01*
X121190500Y-160528288D01*
X121190500Y-160285712D01*
X121190500Y-160285711D01*
X142649500Y-160285711D01*
X142649500Y-160528288D01*
X142681161Y-160768785D01*
X142743947Y-161003104D01*
X142836773Y-161227205D01*
X142836776Y-161227212D01*
X142958064Y-161437289D01*
X142958066Y-161437292D01*
X142958067Y-161437293D01*
X143105733Y-161629736D01*
X143105739Y-161629743D01*
X143277256Y-161801260D01*
X143277262Y-161801265D01*
X143469711Y-161948936D01*
X143679788Y-162070224D01*
X143903900Y-162163054D01*
X144138211Y-162225838D01*
X144318586Y-162249584D01*
X144378711Y-162257500D01*
X144378712Y-162257500D01*
X144621289Y-162257500D01*
X144669388Y-162251167D01*
X144861789Y-162225838D01*
X145096100Y-162163054D01*
X145320212Y-162070224D01*
X145530289Y-161948936D01*
X145722738Y-161801265D01*
X145894265Y-161629738D01*
X146041936Y-161437289D01*
X146163224Y-161227212D01*
X146256054Y-161003100D01*
X146318838Y-160768789D01*
X146350500Y-160528288D01*
X146350500Y-160285712D01*
X146318838Y-160045211D01*
X146256054Y-159810900D01*
X146163224Y-159586788D01*
X146041936Y-159376711D01*
X145894265Y-159184262D01*
X145894260Y-159184256D01*
X145722743Y-159012739D01*
X145722736Y-159012733D01*
X145530293Y-158865067D01*
X145530292Y-158865066D01*
X145530289Y-158865064D01*
X145320212Y-158743776D01*
X145320205Y-158743773D01*
X145096104Y-158650947D01*
X144861785Y-158588161D01*
X144621289Y-158556500D01*
X144621288Y-158556500D01*
X144378712Y-158556500D01*
X144378711Y-158556500D01*
X144138214Y-158588161D01*
X143903895Y-158650947D01*
X143679794Y-158743773D01*
X143679785Y-158743777D01*
X143469706Y-158865067D01*
X143277263Y-159012733D01*
X143277256Y-159012739D01*
X143105739Y-159184256D01*
X143105733Y-159184263D01*
X142958067Y-159376706D01*
X142836777Y-159586785D01*
X142836773Y-159586794D01*
X142743947Y-159810895D01*
X142681161Y-160045214D01*
X142649500Y-160285711D01*
X121190500Y-160285711D01*
X121158838Y-160045211D01*
X121096054Y-159810900D01*
X121003224Y-159586788D01*
X120881936Y-159376711D01*
X120734265Y-159184262D01*
X120734260Y-159184256D01*
X120562743Y-159012739D01*
X120562736Y-159012733D01*
X120370293Y-158865067D01*
X120370292Y-158865066D01*
X120370289Y-158865064D01*
X120160212Y-158743776D01*
X120160205Y-158743773D01*
X119936104Y-158650947D01*
X119701785Y-158588161D01*
X119461289Y-158556500D01*
X119461288Y-158556500D01*
X119218712Y-158556500D01*
X119218711Y-158556500D01*
X118978214Y-158588161D01*
X118743895Y-158650947D01*
X118519794Y-158743773D01*
X118519785Y-158743777D01*
X118309706Y-158865067D01*
X118117263Y-159012733D01*
X118117256Y-159012739D01*
X117945739Y-159184256D01*
X117945733Y-159184263D01*
X117798067Y-159376706D01*
X117676777Y-159586785D01*
X117676773Y-159586794D01*
X117583947Y-159810895D01*
X117521161Y-160045214D01*
X117489500Y-160285711D01*
X112340500Y-160285711D01*
X112340500Y-146172316D01*
X116389500Y-146172316D01*
X116389500Y-146491683D01*
X116420803Y-146809522D01*
X116483109Y-147122754D01*
X116575820Y-147428382D01*
X116698040Y-147723446D01*
X116698042Y-147723451D01*
X116848584Y-148005094D01*
X116848601Y-148005122D01*
X117026012Y-148270638D01*
X117026029Y-148270661D01*
X117228638Y-148517540D01*
X117454459Y-148743361D01*
X117454464Y-148743365D01*
X117454465Y-148743366D01*
X117701344Y-148945975D01*
X117701351Y-148945980D01*
X117701361Y-148945987D01*
X117966877Y-149123398D01*
X117966882Y-149123401D01*
X117966894Y-149123409D01*
X117966903Y-149123413D01*
X117966905Y-149123415D01*
X118248548Y-149273957D01*
X118248550Y-149273957D01*
X118248556Y-149273961D01*
X118543619Y-149396180D01*
X118849240Y-149488889D01*
X119162477Y-149551196D01*
X119480313Y-149582500D01*
X119480316Y-149582500D01*
X119799684Y-149582500D01*
X119799687Y-149582500D01*
X120117523Y-149551196D01*
X120430760Y-149488889D01*
X120736381Y-149396180D01*
X121031444Y-149273961D01*
X121313106Y-149123409D01*
X121578656Y-148945975D01*
X121825535Y-148743366D01*
X122051366Y-148517535D01*
X122253975Y-148270656D01*
X122431409Y-148005106D01*
X122581961Y-147723444D01*
X122704180Y-147428381D01*
X122796889Y-147122760D01*
X122859196Y-146809523D01*
X122890500Y-146491687D01*
X122890500Y-146172316D01*
X140949500Y-146172316D01*
X140949500Y-146491683D01*
X140980803Y-146809522D01*
X141043109Y-147122754D01*
X141135820Y-147428382D01*
X141258040Y-147723446D01*
X141258042Y-147723451D01*
X141408584Y-148005094D01*
X141408601Y-148005122D01*
X141586012Y-148270638D01*
X141586029Y-148270661D01*
X141788638Y-148517540D01*
X142014459Y-148743361D01*
X142014464Y-148743365D01*
X142014465Y-148743366D01*
X142261344Y-148945975D01*
X142261351Y-148945980D01*
X142261361Y-148945987D01*
X142526877Y-149123398D01*
X142526882Y-149123401D01*
X142526894Y-149123409D01*
X142526903Y-149123413D01*
X142526905Y-149123415D01*
X142808548Y-149273957D01*
X142808550Y-149273957D01*
X142808556Y-149273961D01*
X143103619Y-149396180D01*
X143409240Y-149488889D01*
X143722477Y-149551196D01*
X144040313Y-149582500D01*
X144040316Y-149582500D01*
X144359684Y-149582500D01*
X144359687Y-149582500D01*
X144677523Y-149551196D01*
X144990760Y-149488889D01*
X145296381Y-149396180D01*
X145591444Y-149273961D01*
X145873106Y-149123409D01*
X146138656Y-148945975D01*
X146385535Y-148743366D01*
X146611366Y-148517535D01*
X146813975Y-148270656D01*
X146991409Y-148005106D01*
X147141961Y-147723444D01*
X147264180Y-147428381D01*
X147356889Y-147122760D01*
X147419196Y-146809523D01*
X147450500Y-146491687D01*
X147450500Y-146172313D01*
X147419196Y-145854477D01*
X147356889Y-145541240D01*
X147264180Y-145235619D01*
X147141961Y-144940556D01*
X146991409Y-144658894D01*
X146991398Y-144658877D01*
X146813987Y-144393361D01*
X146813980Y-144393351D01*
X146813975Y-144393344D01*
X146611366Y-144146465D01*
X146611365Y-144146464D01*
X146611361Y-144146459D01*
X146385540Y-143920638D01*
X146138661Y-143718029D01*
X146138638Y-143718012D01*
X145873122Y-143540601D01*
X145873094Y-143540584D01*
X145591451Y-143390042D01*
X145591446Y-143390040D01*
X145296382Y-143267820D01*
X144990754Y-143175109D01*
X144677521Y-143112803D01*
X144677522Y-143112803D01*
X144438141Y-143089227D01*
X144359687Y-143081500D01*
X144040313Y-143081500D01*
X143967822Y-143088639D01*
X143722477Y-143112803D01*
X143409245Y-143175109D01*
X143103617Y-143267820D01*
X142808553Y-143390040D01*
X142808548Y-143390042D01*
X142526905Y-143540584D01*
X142526877Y-143540601D01*
X142261361Y-143718012D01*
X142261338Y-143718029D01*
X142014459Y-143920638D01*
X141788638Y-144146459D01*
X141586029Y-144393338D01*
X141586012Y-144393361D01*
X141408601Y-144658877D01*
X141408584Y-144658905D01*
X141258042Y-144940548D01*
X141258040Y-144940553D01*
X141135820Y-145235617D01*
X141043109Y-145541245D01*
X140980803Y-145854477D01*
X140949500Y-146172316D01*
X122890500Y-146172316D01*
X122890500Y-146172313D01*
X122859196Y-145854477D01*
X122796889Y-145541240D01*
X122704180Y-145235619D01*
X122581961Y-144940556D01*
X122431409Y-144658894D01*
X122431398Y-144658877D01*
X122253987Y-144393361D01*
X122253980Y-144393351D01*
X122253975Y-144393344D01*
X122051366Y-144146465D01*
X122051365Y-144146464D01*
X122051361Y-144146459D01*
X121825540Y-143920638D01*
X121578661Y-143718029D01*
X121578638Y-143718012D01*
X121313122Y-143540601D01*
X121313094Y-143540584D01*
X121031451Y-143390042D01*
X121031446Y-143390040D01*
X120736382Y-143267820D01*
X120430754Y-143175109D01*
X120117521Y-143112803D01*
X120117522Y-143112803D01*
X119878141Y-143089227D01*
X119799687Y-143081500D01*
X119480313Y-143081500D01*
X119407822Y-143088639D01*
X119162477Y-143112803D01*
X118849245Y-143175109D01*
X118543617Y-143267820D01*
X118248553Y-143390040D01*
X118248548Y-143390042D01*
X117966905Y-143540584D01*
X117966877Y-143540601D01*
X117701361Y-143718012D01*
X117701338Y-143718029D01*
X117454459Y-143920638D01*
X117228638Y-144146459D01*
X117026029Y-144393338D01*
X117026012Y-144393361D01*
X116848601Y-144658877D01*
X116848584Y-144658905D01*
X116698042Y-144940548D01*
X116698040Y-144940553D01*
X116575820Y-145235617D01*
X116483109Y-145541245D01*
X116420803Y-145854477D01*
X116389500Y-146172316D01*
X112340500Y-146172316D01*
X112340500Y-132328934D01*
X116914500Y-132328934D01*
X116914500Y-132635065D01*
X116948773Y-132939244D01*
X116948775Y-132939256D01*
X117016893Y-133237703D01*
X117016894Y-133237705D01*
X117117999Y-133526648D01*
X117250818Y-133802450D01*
X117413688Y-134061655D01*
X117413689Y-134061657D01*
X117604543Y-134300982D01*
X117821017Y-134517456D01*
X118060342Y-134708310D01*
X118060345Y-134708311D01*
X118060347Y-134708313D01*
X118319547Y-134871180D01*
X118595353Y-135004001D01*
X118884296Y-135105106D01*
X119182743Y-135173225D01*
X119486935Y-135207499D01*
X119486936Y-135207500D01*
X119486939Y-135207500D01*
X119793064Y-135207500D01*
X119793064Y-135207499D01*
X120097257Y-135173225D01*
X120395704Y-135105106D01*
X120684647Y-135004001D01*
X120960453Y-134871180D01*
X121219653Y-134708313D01*
X121219657Y-134708310D01*
X121458982Y-134517456D01*
X121458984Y-134517453D01*
X121458989Y-134517450D01*
X121675450Y-134300989D01*
X121866313Y-134061653D01*
X122029180Y-133802453D01*
X122162001Y-133526647D01*
X122263106Y-133237704D01*
X122331225Y-132939257D01*
X122365500Y-132635061D01*
X122365500Y-132328939D01*
X122365499Y-132328934D01*
X141474500Y-132328934D01*
X141474500Y-132635065D01*
X141508773Y-132939244D01*
X141508775Y-132939256D01*
X141576893Y-133237703D01*
X141576894Y-133237705D01*
X141677999Y-133526648D01*
X141810818Y-133802450D01*
X141973688Y-134061655D01*
X141973689Y-134061657D01*
X142164543Y-134300982D01*
X142381017Y-134517456D01*
X142620342Y-134708310D01*
X142620345Y-134708311D01*
X142620347Y-134708313D01*
X142879547Y-134871180D01*
X143155353Y-135004001D01*
X143444296Y-135105106D01*
X143742743Y-135173225D01*
X144046935Y-135207499D01*
X144046936Y-135207500D01*
X144046939Y-135207500D01*
X144353064Y-135207500D01*
X144353064Y-135207499D01*
X144657257Y-135173225D01*
X144955704Y-135105106D01*
X145244647Y-135004001D01*
X145520453Y-134871180D01*
X145779653Y-134708313D01*
X145779657Y-134708310D01*
X146018982Y-134517456D01*
X146018984Y-134517453D01*
X146018989Y-134517450D01*
X146235450Y-134300989D01*
X146426313Y-134061653D01*
X146589180Y-133802453D01*
X146722001Y-133526647D01*
X146823106Y-133237704D01*
X146891225Y-132939257D01*
X146925500Y-132635061D01*
X146925500Y-132328939D01*
X146891225Y-132024743D01*
X146823106Y-131726296D01*
X146722001Y-131437353D01*
X146589180Y-131161547D01*
X146426313Y-130902347D01*
X146426311Y-130902344D01*
X146426310Y-130902342D01*
X146235456Y-130663017D01*
X146018982Y-130446543D01*
X145779657Y-130255689D01*
X145779655Y-130255688D01*
X145520450Y-130092818D01*
X145244648Y-129959999D01*
X144955705Y-129858894D01*
X144955703Y-129858893D01*
X144725375Y-129806322D01*
X144657257Y-129790775D01*
X144657253Y-129790774D01*
X144657244Y-129790773D01*
X144353065Y-129756500D01*
X144353061Y-129756500D01*
X144046939Y-129756500D01*
X144046934Y-129756500D01*
X143742755Y-129790773D01*
X143742743Y-129790775D01*
X143444296Y-129858893D01*
X143444294Y-129858894D01*
X143155351Y-129959999D01*
X142879549Y-130092818D01*
X142620344Y-130255688D01*
X142620342Y-130255689D01*
X142381017Y-130446543D01*
X142164543Y-130663017D01*
X141973689Y-130902342D01*
X141973688Y-130902344D01*
X141810818Y-131161549D01*
X141677999Y-131437351D01*
X141576894Y-131726294D01*
X141576893Y-131726296D01*
X141508775Y-132024743D01*
X141508773Y-132024755D01*
X141474500Y-132328934D01*
X122365499Y-132328934D01*
X122331225Y-132024743D01*
X122263106Y-131726296D01*
X122162001Y-131437353D01*
X122029180Y-131161547D01*
X121866313Y-130902347D01*
X121866311Y-130902344D01*
X121866310Y-130902342D01*
X121675456Y-130663017D01*
X121458982Y-130446543D01*
X121219657Y-130255689D01*
X121219655Y-130255688D01*
X120960450Y-130092818D01*
X120684648Y-129959999D01*
X120395705Y-129858894D01*
X120395703Y-129858893D01*
X120165375Y-129806322D01*
X120097257Y-129790775D01*
X120097253Y-129790774D01*
X120097244Y-129790773D01*
X119793065Y-129756500D01*
X119793061Y-129756500D01*
X119486939Y-129756500D01*
X119486934Y-129756500D01*
X119182755Y-129790773D01*
X119182743Y-129790775D01*
X118884296Y-129858893D01*
X118884294Y-129858894D01*
X118595351Y-129959999D01*
X118319549Y-130092818D01*
X118060344Y-130255688D01*
X118060342Y-130255689D01*
X117821017Y-130446543D01*
X117604543Y-130663017D01*
X117413689Y-130902342D01*
X117413688Y-130902344D01*
X117250818Y-131161549D01*
X117117999Y-131437351D01*
X117016894Y-131726294D01*
X117016893Y-131726296D01*
X116948775Y-132024743D01*
X116948773Y-132024755D01*
X116914500Y-132328934D01*
X112340500Y-132328934D01*
X112340500Y-122478711D01*
X117789500Y-122478711D01*
X117789500Y-122721288D01*
X117821161Y-122961785D01*
X117883947Y-123196104D01*
X117976773Y-123420205D01*
X117976776Y-123420212D01*
X118098064Y-123630289D01*
X118098066Y-123630292D01*
X118098067Y-123630293D01*
X118245733Y-123822736D01*
X118245739Y-123822743D01*
X118417256Y-123994260D01*
X118417262Y-123994265D01*
X118609711Y-124141936D01*
X118819788Y-124263224D01*
X119043900Y-124356054D01*
X119278211Y-124418838D01*
X119458586Y-124442584D01*
X119518711Y-124450500D01*
X119518712Y-124450500D01*
X119761289Y-124450500D01*
X119809388Y-124444167D01*
X120001789Y-124418838D01*
X120236100Y-124356054D01*
X120460212Y-124263224D01*
X120670289Y-124141936D01*
X120862738Y-123994265D01*
X121034265Y-123822738D01*
X121181936Y-123630289D01*
X121303224Y-123420212D01*
X121396054Y-123196100D01*
X121458838Y-122961789D01*
X121490500Y-122721288D01*
X121490500Y-122478712D01*
X121490500Y-122478711D01*
X142349500Y-122478711D01*
X142349500Y-122721288D01*
X142381161Y-122961785D01*
X142443947Y-123196104D01*
X142536773Y-123420205D01*
X142536776Y-123420212D01*
X142658064Y-123630289D01*
X142658066Y-123630292D01*
X142658067Y-123630293D01*
X142805733Y-123822736D01*
X142805739Y-123822743D01*
X142977256Y-123994260D01*
X142977262Y-123994265D01*
X143169711Y-124141936D01*
X143379788Y-124263224D01*
X143603900Y-124356054D01*
X143838211Y-124418838D01*
X144018586Y-124442584D01*
X144078711Y-124450500D01*
X144078712Y-124450500D01*
X144321289Y-124450500D01*
X144369388Y-124444167D01*
X144561789Y-124418838D01*
X144796100Y-124356054D01*
X145020212Y-124263224D01*
X145230289Y-124141936D01*
X145422738Y-123994265D01*
X145594265Y-123822738D01*
X145741936Y-123630289D01*
X145863224Y-123420212D01*
X145956054Y-123196100D01*
X146018838Y-122961789D01*
X146050500Y-122721288D01*
X146050500Y-122478712D01*
X146018838Y-122238211D01*
X145956054Y-122003900D01*
X145863224Y-121779788D01*
X145741936Y-121569711D01*
X145594265Y-121377262D01*
X145594260Y-121377256D01*
X145422743Y-121205739D01*
X145422736Y-121205733D01*
X145230293Y-121058067D01*
X145230292Y-121058066D01*
X145230289Y-121058064D01*
X145020212Y-120936776D01*
X145020205Y-120936773D01*
X144796104Y-120843947D01*
X144561785Y-120781161D01*
X144321289Y-120749500D01*
X144321288Y-120749500D01*
X144078712Y-120749500D01*
X144078711Y-120749500D01*
X143838214Y-120781161D01*
X143603895Y-120843947D01*
X143379794Y-120936773D01*
X143379785Y-120936777D01*
X143169706Y-121058067D01*
X142977263Y-121205733D01*
X142977256Y-121205739D01*
X142805739Y-121377256D01*
X142805733Y-121377263D01*
X142658067Y-121569706D01*
X142536777Y-121779785D01*
X142536773Y-121779794D01*
X142443947Y-122003895D01*
X142381161Y-122238214D01*
X142349500Y-122478711D01*
X121490500Y-122478711D01*
X121458838Y-122238211D01*
X121396054Y-122003900D01*
X121303224Y-121779788D01*
X121181936Y-121569711D01*
X121034265Y-121377262D01*
X121034260Y-121377256D01*
X120862743Y-121205739D01*
X120862736Y-121205733D01*
X120670293Y-121058067D01*
X120670292Y-121058066D01*
X120670289Y-121058064D01*
X120460212Y-120936776D01*
X120460205Y-120936773D01*
X120236104Y-120843947D01*
X120001785Y-120781161D01*
X119761289Y-120749500D01*
X119761288Y-120749500D01*
X119518712Y-120749500D01*
X119518711Y-120749500D01*
X119278214Y-120781161D01*
X119043895Y-120843947D01*
X118819794Y-120936773D01*
X118819785Y-120936777D01*
X118609706Y-121058067D01*
X118417263Y-121205733D01*
X118417256Y-121205739D01*
X118245739Y-121377256D01*
X118245733Y-121377263D01*
X118098067Y-121569706D01*
X117976777Y-121779785D01*
X117976773Y-121779794D01*
X117883947Y-122003895D01*
X117821161Y-122238214D01*
X117789500Y-122478711D01*
X112340500Y-122478711D01*
X112340500Y-112083316D01*
X116389500Y-112083316D01*
X116389500Y-112402683D01*
X116420803Y-112720522D01*
X116483109Y-113033754D01*
X116575820Y-113339382D01*
X116698040Y-113634446D01*
X116698042Y-113634451D01*
X116848584Y-113916094D01*
X116848601Y-113916122D01*
X117026012Y-114181638D01*
X117026029Y-114181661D01*
X117228638Y-114428540D01*
X117454459Y-114654361D01*
X117454464Y-114654365D01*
X117454465Y-114654366D01*
X117701344Y-114856975D01*
X117701351Y-114856980D01*
X117701361Y-114856987D01*
X117966877Y-115034398D01*
X117966882Y-115034401D01*
X117966894Y-115034409D01*
X117966903Y-115034413D01*
X117966905Y-115034415D01*
X118248548Y-115184957D01*
X118248550Y-115184957D01*
X118248556Y-115184961D01*
X118543619Y-115307180D01*
X118849240Y-115399889D01*
X119162477Y-115462196D01*
X119480313Y-115493500D01*
X119480316Y-115493500D01*
X119799684Y-115493500D01*
X119799687Y-115493500D01*
X120117523Y-115462196D01*
X120430760Y-115399889D01*
X120736381Y-115307180D01*
X121031444Y-115184961D01*
X121313106Y-115034409D01*
X121578656Y-114856975D01*
X121825535Y-114654366D01*
X122051366Y-114428535D01*
X122253975Y-114181656D01*
X122431409Y-113916106D01*
X122581961Y-113634444D01*
X122704180Y-113339381D01*
X122796889Y-113033760D01*
X122859196Y-112720523D01*
X122890500Y-112402687D01*
X122890500Y-112083313D01*
X122859196Y-111765477D01*
X122796889Y-111452240D01*
X122704180Y-111146619D01*
X122581961Y-110851556D01*
X122431409Y-110569894D01*
X122431398Y-110569877D01*
X122253987Y-110304361D01*
X122253980Y-110304351D01*
X122253975Y-110304344D01*
X122051366Y-110057465D01*
X122051365Y-110057464D01*
X122051361Y-110057459D01*
X121825540Y-109831638D01*
X121578661Y-109629029D01*
X121578638Y-109629012D01*
X121313122Y-109451601D01*
X121313094Y-109451584D01*
X121031451Y-109301042D01*
X121031446Y-109301040D01*
X120736382Y-109178820D01*
X120430754Y-109086109D01*
X120117521Y-109023803D01*
X120117522Y-109023803D01*
X119878141Y-109000227D01*
X119799687Y-108992500D01*
X119480313Y-108992500D01*
X119407822Y-108999639D01*
X119162477Y-109023803D01*
X118849245Y-109086109D01*
X118543617Y-109178820D01*
X118248553Y-109301040D01*
X118248548Y-109301042D01*
X117966905Y-109451584D01*
X117966877Y-109451601D01*
X117701361Y-109629012D01*
X117701338Y-109629029D01*
X117454459Y-109831638D01*
X117228638Y-110057459D01*
X117026029Y-110304338D01*
X117026012Y-110304361D01*
X116848601Y-110569877D01*
X116848584Y-110569905D01*
X116698042Y-110851548D01*
X116698040Y-110851553D01*
X116575820Y-111146617D01*
X116483109Y-111452245D01*
X116420803Y-111765477D01*
X116389500Y-112083316D01*
X112340500Y-112083316D01*
X112340500Y-106653934D01*
X141474500Y-106653934D01*
X141474500Y-106960065D01*
X141508773Y-107264244D01*
X141508775Y-107264256D01*
X141576893Y-107562703D01*
X141576894Y-107562705D01*
X141677999Y-107851648D01*
X141810818Y-108127450D01*
X141973688Y-108386655D01*
X141973689Y-108386657D01*
X142164543Y-108625982D01*
X142381017Y-108842456D01*
X142620342Y-109033310D01*
X142620345Y-109033311D01*
X142620347Y-109033313D01*
X142879547Y-109196180D01*
X143155353Y-109329001D01*
X143444296Y-109430106D01*
X143742743Y-109498225D01*
X144046935Y-109532499D01*
X144046936Y-109532500D01*
X144046939Y-109532500D01*
X144353064Y-109532500D01*
X144353064Y-109532499D01*
X144657257Y-109498225D01*
X144955704Y-109430106D01*
X145244647Y-109329001D01*
X145520453Y-109196180D01*
X145779653Y-109033313D01*
X145830831Y-108992500D01*
X146018982Y-108842456D01*
X146018984Y-108842453D01*
X146018989Y-108842450D01*
X146235450Y-108625989D01*
X146426313Y-108386653D01*
X146589180Y-108127453D01*
X146722001Y-107851647D01*
X146823106Y-107562704D01*
X146891225Y-107264257D01*
X146925500Y-106960061D01*
X146925500Y-106653939D01*
X146891225Y-106349743D01*
X146823106Y-106051296D01*
X146722001Y-105762353D01*
X146589180Y-105486547D01*
X146426313Y-105227347D01*
X146426311Y-105227344D01*
X146426310Y-105227342D01*
X146235456Y-104988017D01*
X146018982Y-104771543D01*
X145779657Y-104580689D01*
X145779655Y-104580688D01*
X145520450Y-104417818D01*
X145244648Y-104284999D01*
X144955705Y-104183894D01*
X144955703Y-104183893D01*
X144725375Y-104131322D01*
X144657257Y-104115775D01*
X144657253Y-104115774D01*
X144657244Y-104115773D01*
X144353065Y-104081500D01*
X144353061Y-104081500D01*
X144046939Y-104081500D01*
X144046934Y-104081500D01*
X143742755Y-104115773D01*
X143742743Y-104115775D01*
X143444296Y-104183893D01*
X143444294Y-104183894D01*
X143155351Y-104284999D01*
X142879549Y-104417818D01*
X142620344Y-104580688D01*
X142620342Y-104580689D01*
X142381017Y-104771543D01*
X142164543Y-104988017D01*
X141973689Y-105227342D01*
X141973688Y-105227344D01*
X141810818Y-105486549D01*
X141677999Y-105762351D01*
X141576894Y-106051294D01*
X141576893Y-106051296D01*
X141508775Y-106349743D01*
X141508773Y-106349755D01*
X141474500Y-106653934D01*
X112340500Y-106653934D01*
X112340500Y-104185711D01*
X130069500Y-104185711D01*
X130069500Y-104428288D01*
X130101161Y-104668785D01*
X130163947Y-104903104D01*
X130256773Y-105127205D01*
X130256776Y-105127212D01*
X130378064Y-105337289D01*
X130378066Y-105337292D01*
X130378067Y-105337293D01*
X130525733Y-105529736D01*
X130525739Y-105529743D01*
X130697256Y-105701260D01*
X130697262Y-105701265D01*
X130889711Y-105848936D01*
X131099788Y-105970224D01*
X131323900Y-106063054D01*
X131558211Y-106125838D01*
X131738586Y-106149584D01*
X131798711Y-106157500D01*
X131798712Y-106157500D01*
X132041289Y-106157500D01*
X132089388Y-106151167D01*
X132281789Y-106125838D01*
X132516100Y-106063054D01*
X132740212Y-105970224D01*
X132950289Y-105848936D01*
X133142738Y-105701265D01*
X133314265Y-105529738D01*
X133461936Y-105337289D01*
X133583224Y-105127212D01*
X133676054Y-104903100D01*
X133738838Y-104668789D01*
X133770500Y-104428288D01*
X133770500Y-104185712D01*
X133738838Y-103945211D01*
X133676054Y-103710900D01*
X133583224Y-103486788D01*
X133461936Y-103276711D01*
X133314265Y-103084262D01*
X133314260Y-103084256D01*
X133142743Y-102912739D01*
X133142736Y-102912733D01*
X132950293Y-102765067D01*
X132950292Y-102765066D01*
X132950289Y-102765064D01*
X132740212Y-102643776D01*
X132740205Y-102643773D01*
X132516104Y-102550947D01*
X132281785Y-102488161D01*
X132041289Y-102456500D01*
X132041288Y-102456500D01*
X131798712Y-102456500D01*
X131798711Y-102456500D01*
X131558214Y-102488161D01*
X131323895Y-102550947D01*
X131099794Y-102643773D01*
X131099785Y-102643777D01*
X130889706Y-102765067D01*
X130697263Y-102912733D01*
X130697256Y-102912739D01*
X130525739Y-103084256D01*
X130525733Y-103084263D01*
X130378067Y-103276706D01*
X130256777Y-103486785D01*
X130256773Y-103486794D01*
X130163947Y-103710895D01*
X130101161Y-103945214D01*
X130069500Y-104185711D01*
X112340500Y-104185711D01*
X112340500Y-98653934D01*
X116914500Y-98653934D01*
X116914500Y-98960065D01*
X116948773Y-99264244D01*
X116948775Y-99264256D01*
X117016893Y-99562703D01*
X117016894Y-99562705D01*
X117117999Y-99851648D01*
X117250818Y-100127450D01*
X117413688Y-100386655D01*
X117413689Y-100386657D01*
X117604543Y-100625982D01*
X117821017Y-100842456D01*
X118060342Y-101033310D01*
X118060345Y-101033311D01*
X118060347Y-101033313D01*
X118319547Y-101196180D01*
X118595353Y-101329001D01*
X118884296Y-101430106D01*
X119182743Y-101498225D01*
X119486935Y-101532499D01*
X119486936Y-101532500D01*
X119486939Y-101532500D01*
X119793064Y-101532500D01*
X119793064Y-101532499D01*
X120097257Y-101498225D01*
X120395704Y-101430106D01*
X120684647Y-101329001D01*
X120960453Y-101196180D01*
X121219653Y-101033313D01*
X121219657Y-101033310D01*
X121458982Y-100842456D01*
X121458984Y-100842453D01*
X121458989Y-100842450D01*
X121675450Y-100625989D01*
X121866313Y-100386653D01*
X122029180Y-100127453D01*
X122162001Y-99851647D01*
X122263106Y-99562704D01*
X122331225Y-99264257D01*
X122365500Y-98960061D01*
X122365500Y-98653939D01*
X122331225Y-98349743D01*
X122263106Y-98051296D01*
X122162001Y-97762353D01*
X122029180Y-97486547D01*
X121866313Y-97227347D01*
X121866311Y-97227344D01*
X121866310Y-97227342D01*
X121675456Y-96988017D01*
X121458982Y-96771543D01*
X121219657Y-96580689D01*
X121219655Y-96580688D01*
X120960447Y-96417816D01*
X120702037Y-96293373D01*
X120702036Y-96293373D01*
X120684647Y-96284999D01*
X120400898Y-96185711D01*
X130069500Y-96185711D01*
X130069500Y-96428288D01*
X130101161Y-96668785D01*
X130163947Y-96903104D01*
X130256773Y-97127205D01*
X130256776Y-97127212D01*
X130378064Y-97337289D01*
X130378066Y-97337292D01*
X130378067Y-97337293D01*
X130525733Y-97529736D01*
X130525739Y-97529743D01*
X130697256Y-97701260D01*
X130697262Y-97701265D01*
X130889711Y-97848936D01*
X131099788Y-97970224D01*
X131323900Y-98063054D01*
X131558211Y-98125838D01*
X131738586Y-98149584D01*
X131798711Y-98157500D01*
X131798712Y-98157500D01*
X132041289Y-98157500D01*
X132089388Y-98151167D01*
X132281789Y-98125838D01*
X132516100Y-98063054D01*
X132740212Y-97970224D01*
X132950289Y-97848936D01*
X133142738Y-97701265D01*
X133314265Y-97529738D01*
X133461936Y-97337289D01*
X133583224Y-97127212D01*
X133676054Y-96903100D01*
X133738838Y-96668789D01*
X133770500Y-96428288D01*
X133770500Y-96185712D01*
X133738838Y-95945211D01*
X133676054Y-95710900D01*
X133583224Y-95486788D01*
X133461936Y-95276711D01*
X133314265Y-95084262D01*
X133314260Y-95084256D01*
X133142743Y-94912739D01*
X133142736Y-94912733D01*
X132950293Y-94765067D01*
X132950292Y-94765066D01*
X132950289Y-94765064D01*
X132740212Y-94643776D01*
X132740205Y-94643773D01*
X132516104Y-94550947D01*
X132281785Y-94488161D01*
X132041289Y-94456500D01*
X132041288Y-94456500D01*
X131798712Y-94456500D01*
X131798711Y-94456500D01*
X131558214Y-94488161D01*
X131323895Y-94550947D01*
X131099794Y-94643773D01*
X131099785Y-94643777D01*
X130889706Y-94765067D01*
X130697263Y-94912733D01*
X130697256Y-94912739D01*
X130525739Y-95084256D01*
X130525733Y-95084263D01*
X130378067Y-95276706D01*
X130256777Y-95486785D01*
X130256773Y-95486794D01*
X130163947Y-95710895D01*
X130101161Y-95945214D01*
X130069500Y-96185711D01*
X120400898Y-96185711D01*
X120395705Y-96183894D01*
X120395703Y-96183893D01*
X120165375Y-96131322D01*
X120097257Y-96115775D01*
X120097253Y-96115774D01*
X120097244Y-96115773D01*
X119793065Y-96081500D01*
X119793061Y-96081500D01*
X119486939Y-96081500D01*
X119486934Y-96081500D01*
X119182755Y-96115773D01*
X119182743Y-96115775D01*
X118884296Y-96183893D01*
X118884294Y-96183894D01*
X118595351Y-96284999D01*
X118319549Y-96417818D01*
X118060344Y-96580688D01*
X118060342Y-96580689D01*
X117821017Y-96771543D01*
X117604543Y-96988017D01*
X117413689Y-97227342D01*
X117413688Y-97227344D01*
X117250818Y-97486549D01*
X117117999Y-97762351D01*
X117016894Y-98051294D01*
X117016893Y-98051296D01*
X116948775Y-98349743D01*
X116948773Y-98349755D01*
X116914500Y-98653934D01*
X112340500Y-98653934D01*
X112340500Y-90653934D01*
X141474500Y-90653934D01*
X141474500Y-90960065D01*
X141508773Y-91264244D01*
X141508775Y-91264256D01*
X141576893Y-91562703D01*
X141576894Y-91562705D01*
X141677999Y-91851648D01*
X141810818Y-92127450D01*
X141973688Y-92386655D01*
X141973689Y-92386657D01*
X142164543Y-92625982D01*
X142381017Y-92842456D01*
X142620342Y-93033310D01*
X142620345Y-93033311D01*
X142620347Y-93033313D01*
X142879547Y-93196180D01*
X143155353Y-93329001D01*
X143444296Y-93430106D01*
X143742743Y-93498225D01*
X144046935Y-93532499D01*
X144046936Y-93532500D01*
X144046939Y-93532500D01*
X144353064Y-93532500D01*
X144353064Y-93532499D01*
X144657257Y-93498225D01*
X144955704Y-93430106D01*
X145244647Y-93329001D01*
X145520453Y-93196180D01*
X145779653Y-93033313D01*
X145779657Y-93033310D01*
X146018982Y-92842456D01*
X146018984Y-92842453D01*
X146018989Y-92842450D01*
X146235450Y-92625989D01*
X146426313Y-92386653D01*
X146589180Y-92127453D01*
X146722001Y-91851647D01*
X146823106Y-91562704D01*
X146891225Y-91264257D01*
X146925500Y-90960061D01*
X146925500Y-90653939D01*
X146891225Y-90349743D01*
X146823106Y-90051296D01*
X146722001Y-89762353D01*
X146589180Y-89486547D01*
X146426313Y-89227347D01*
X146426311Y-89227344D01*
X146426310Y-89227342D01*
X146235456Y-88988017D01*
X146018982Y-88771543D01*
X145779657Y-88580689D01*
X145779655Y-88580688D01*
X145520450Y-88417818D01*
X145244648Y-88284999D01*
X144955705Y-88183894D01*
X144955703Y-88183893D01*
X144725375Y-88131322D01*
X144657257Y-88115775D01*
X144657253Y-88115774D01*
X144657244Y-88115773D01*
X144353065Y-88081500D01*
X144353061Y-88081500D01*
X144046939Y-88081500D01*
X144046934Y-88081500D01*
X143742755Y-88115773D01*
X143742743Y-88115775D01*
X143444296Y-88183893D01*
X143444294Y-88183894D01*
X143155351Y-88284999D01*
X142879549Y-88417818D01*
X142620344Y-88580688D01*
X142620342Y-88580689D01*
X142381017Y-88771543D01*
X142164543Y-88988017D01*
X141973689Y-89227342D01*
X141973688Y-89227344D01*
X141810818Y-89486549D01*
X141677999Y-89762351D01*
X141576894Y-90051294D01*
X141576893Y-90051296D01*
X141508775Y-90349743D01*
X141508773Y-90349755D01*
X141474500Y-90653934D01*
X112340500Y-90653934D01*
X112340500Y-88185711D01*
X130069500Y-88185711D01*
X130069500Y-88428288D01*
X130101161Y-88668785D01*
X130163947Y-88903104D01*
X130256773Y-89127205D01*
X130256776Y-89127212D01*
X130378064Y-89337289D01*
X130378066Y-89337292D01*
X130378067Y-89337293D01*
X130525733Y-89529736D01*
X130525739Y-89529743D01*
X130697256Y-89701260D01*
X130697262Y-89701265D01*
X130889711Y-89848936D01*
X131099788Y-89970224D01*
X131323900Y-90063054D01*
X131558211Y-90125838D01*
X131738586Y-90149584D01*
X131798711Y-90157500D01*
X131798712Y-90157500D01*
X132041289Y-90157500D01*
X132089388Y-90151167D01*
X132281789Y-90125838D01*
X132516100Y-90063054D01*
X132740212Y-89970224D01*
X132950289Y-89848936D01*
X133142738Y-89701265D01*
X133314265Y-89529738D01*
X133461936Y-89337289D01*
X133583224Y-89127212D01*
X133676054Y-88903100D01*
X133738838Y-88668789D01*
X133770500Y-88428288D01*
X133770500Y-88185712D01*
X133738838Y-87945211D01*
X133676054Y-87710900D01*
X133583224Y-87486788D01*
X133461936Y-87276711D01*
X133314265Y-87084262D01*
X133314260Y-87084256D01*
X133142743Y-86912739D01*
X133142736Y-86912733D01*
X132950293Y-86765067D01*
X132950292Y-86765066D01*
X132950289Y-86765064D01*
X132740212Y-86643776D01*
X132740205Y-86643773D01*
X132516104Y-86550947D01*
X132281785Y-86488161D01*
X132041289Y-86456500D01*
X132041288Y-86456500D01*
X131798712Y-86456500D01*
X131798711Y-86456500D01*
X131558214Y-86488161D01*
X131323895Y-86550947D01*
X131099794Y-86643773D01*
X131099785Y-86643777D01*
X130889706Y-86765067D01*
X130697263Y-86912733D01*
X130697256Y-86912739D01*
X130525739Y-87084256D01*
X130525733Y-87084263D01*
X130378067Y-87276706D01*
X130256777Y-87486785D01*
X130256773Y-87486794D01*
X130163947Y-87710895D01*
X130101161Y-87945214D01*
X130069500Y-88185711D01*
X112340500Y-88185711D01*
X112340500Y-82653934D01*
X116914500Y-82653934D01*
X116914500Y-82960065D01*
X116948773Y-83264244D01*
X116948775Y-83264256D01*
X117016893Y-83562703D01*
X117016894Y-83562705D01*
X117117999Y-83851648D01*
X117250818Y-84127450D01*
X117413688Y-84386655D01*
X117413689Y-84386657D01*
X117604543Y-84625982D01*
X117821017Y-84842456D01*
X118060342Y-85033310D01*
X118060345Y-85033311D01*
X118060347Y-85033313D01*
X118319547Y-85196180D01*
X118595353Y-85329001D01*
X118884296Y-85430106D01*
X119182743Y-85498225D01*
X119486935Y-85532499D01*
X119486936Y-85532500D01*
X119486939Y-85532500D01*
X119793064Y-85532500D01*
X119793064Y-85532499D01*
X120097257Y-85498225D01*
X120395704Y-85430106D01*
X120684647Y-85329001D01*
X120960453Y-85196180D01*
X121219653Y-85033313D01*
X121219657Y-85033310D01*
X121458982Y-84842456D01*
X121458984Y-84842453D01*
X121458989Y-84842450D01*
X121675450Y-84625989D01*
X121866313Y-84386653D01*
X122029180Y-84127453D01*
X122162001Y-83851647D01*
X122263106Y-83562704D01*
X122331225Y-83264257D01*
X122365500Y-82960061D01*
X122365500Y-82653939D01*
X122331225Y-82349743D01*
X122263106Y-82051296D01*
X122162001Y-81762353D01*
X122029180Y-81486547D01*
X121866313Y-81227347D01*
X121866311Y-81227344D01*
X121866310Y-81227342D01*
X121675456Y-80988017D01*
X121458982Y-80771543D01*
X121219657Y-80580689D01*
X121219655Y-80580688D01*
X120960447Y-80417816D01*
X120702037Y-80293373D01*
X120702036Y-80293373D01*
X120684647Y-80284999D01*
X120400898Y-80185711D01*
X130069500Y-80185711D01*
X130069500Y-80428288D01*
X130101161Y-80668785D01*
X130163947Y-80903104D01*
X130256773Y-81127205D01*
X130256776Y-81127212D01*
X130378064Y-81337289D01*
X130378066Y-81337292D01*
X130378067Y-81337293D01*
X130525733Y-81529736D01*
X130525739Y-81529743D01*
X130697256Y-81701260D01*
X130697262Y-81701265D01*
X130889711Y-81848936D01*
X131099788Y-81970224D01*
X131323900Y-82063054D01*
X131558211Y-82125838D01*
X131738586Y-82149584D01*
X131798711Y-82157500D01*
X131798712Y-82157500D01*
X132041289Y-82157500D01*
X132089388Y-82151167D01*
X132281789Y-82125838D01*
X132516100Y-82063054D01*
X132740212Y-81970224D01*
X132950289Y-81848936D01*
X133142738Y-81701265D01*
X133314265Y-81529738D01*
X133461936Y-81337289D01*
X133583224Y-81127212D01*
X133676054Y-80903100D01*
X133738838Y-80668789D01*
X133770500Y-80428288D01*
X133770500Y-80185712D01*
X133738838Y-79945211D01*
X133676054Y-79710900D01*
X133583224Y-79486788D01*
X133461936Y-79276711D01*
X133314265Y-79084262D01*
X133314260Y-79084256D01*
X133142743Y-78912739D01*
X133142736Y-78912733D01*
X132950293Y-78765067D01*
X132950292Y-78765066D01*
X132950289Y-78765064D01*
X132740212Y-78643776D01*
X132740205Y-78643773D01*
X132516104Y-78550947D01*
X132281785Y-78488161D01*
X132041289Y-78456500D01*
X132041288Y-78456500D01*
X131798712Y-78456500D01*
X131798711Y-78456500D01*
X131558214Y-78488161D01*
X131323895Y-78550947D01*
X131099794Y-78643773D01*
X131099785Y-78643777D01*
X130889706Y-78765067D01*
X130697263Y-78912733D01*
X130697256Y-78912739D01*
X130525739Y-79084256D01*
X130525733Y-79084263D01*
X130378067Y-79276706D01*
X130256777Y-79486785D01*
X130256773Y-79486794D01*
X130163947Y-79710895D01*
X130101161Y-79945214D01*
X130069500Y-80185711D01*
X120400898Y-80185711D01*
X120395705Y-80183894D01*
X120395703Y-80183893D01*
X120165375Y-80131322D01*
X120097257Y-80115775D01*
X120097253Y-80115774D01*
X120097244Y-80115773D01*
X119793065Y-80081500D01*
X119793061Y-80081500D01*
X119486939Y-80081500D01*
X119486934Y-80081500D01*
X119182755Y-80115773D01*
X119182743Y-80115775D01*
X118884296Y-80183893D01*
X118884294Y-80183894D01*
X118595351Y-80284999D01*
X118319549Y-80417818D01*
X118060344Y-80580688D01*
X118060342Y-80580689D01*
X117821017Y-80771543D01*
X117604543Y-80988017D01*
X117413689Y-81227342D01*
X117413688Y-81227344D01*
X117250818Y-81486549D01*
X117117999Y-81762351D01*
X117016894Y-82051294D01*
X117016893Y-82051296D01*
X116948775Y-82349743D01*
X116948773Y-82349755D01*
X116914500Y-82653934D01*
X112340500Y-82653934D01*
X112340500Y-74653934D01*
X141474500Y-74653934D01*
X141474500Y-74960065D01*
X141508773Y-75264244D01*
X141508775Y-75264256D01*
X141576893Y-75562703D01*
X141576894Y-75562705D01*
X141677999Y-75851648D01*
X141810818Y-76127450D01*
X141973688Y-76386655D01*
X141973689Y-76386657D01*
X142164543Y-76625982D01*
X142381017Y-76842456D01*
X142620342Y-77033310D01*
X142620345Y-77033311D01*
X142620347Y-77033313D01*
X142879547Y-77196180D01*
X143155353Y-77329001D01*
X143444296Y-77430106D01*
X143742743Y-77498225D01*
X144046935Y-77532499D01*
X144046936Y-77532500D01*
X144046939Y-77532500D01*
X144353064Y-77532500D01*
X144353064Y-77532499D01*
X144657257Y-77498225D01*
X144955704Y-77430106D01*
X145244647Y-77329001D01*
X145520453Y-77196180D01*
X145779653Y-77033313D01*
X145779657Y-77033310D01*
X146018982Y-76842456D01*
X146018984Y-76842453D01*
X146018989Y-76842450D01*
X146235450Y-76625989D01*
X146426313Y-76386653D01*
X146589180Y-76127453D01*
X146722001Y-75851647D01*
X146823106Y-75562704D01*
X146891225Y-75264257D01*
X146925500Y-74960061D01*
X146925500Y-74653939D01*
X146891225Y-74349743D01*
X146823106Y-74051296D01*
X146722001Y-73762353D01*
X146589180Y-73486547D01*
X146426313Y-73227347D01*
X146426311Y-73227344D01*
X146426310Y-73227342D01*
X146235456Y-72988017D01*
X146018982Y-72771543D01*
X145779657Y-72580689D01*
X145779655Y-72580688D01*
X145520450Y-72417818D01*
X145244648Y-72284999D01*
X144955705Y-72183894D01*
X144955703Y-72183893D01*
X144725375Y-72131322D01*
X144657257Y-72115775D01*
X144657253Y-72115774D01*
X144657244Y-72115773D01*
X144353065Y-72081500D01*
X144353061Y-72081500D01*
X144046939Y-72081500D01*
X144046934Y-72081500D01*
X143742755Y-72115773D01*
X143742743Y-72115775D01*
X143444296Y-72183893D01*
X143444294Y-72183894D01*
X143155351Y-72284999D01*
X142879549Y-72417818D01*
X142620344Y-72580688D01*
X142620342Y-72580689D01*
X142381017Y-72771543D01*
X142164543Y-72988017D01*
X141973689Y-73227342D01*
X141973688Y-73227344D01*
X141810818Y-73486549D01*
X141677999Y-73762351D01*
X141576894Y-74051294D01*
X141576893Y-74051296D01*
X141508775Y-74349743D01*
X141508773Y-74349755D01*
X141474500Y-74653934D01*
X112340500Y-74653934D01*
X112340500Y-72185711D01*
X130069500Y-72185711D01*
X130069500Y-72428288D01*
X130101161Y-72668785D01*
X130163947Y-72903104D01*
X130256773Y-73127205D01*
X130256776Y-73127212D01*
X130378064Y-73337289D01*
X130378066Y-73337292D01*
X130378067Y-73337293D01*
X130525733Y-73529736D01*
X130525739Y-73529743D01*
X130697256Y-73701260D01*
X130697262Y-73701265D01*
X130889711Y-73848936D01*
X131099788Y-73970224D01*
X131323900Y-74063054D01*
X131558211Y-74125838D01*
X131738586Y-74149584D01*
X131798711Y-74157500D01*
X131798712Y-74157500D01*
X132041289Y-74157500D01*
X132089388Y-74151167D01*
X132281789Y-74125838D01*
X132516100Y-74063054D01*
X132740212Y-73970224D01*
X132950289Y-73848936D01*
X133142738Y-73701265D01*
X133314265Y-73529738D01*
X133461936Y-73337289D01*
X133583224Y-73127212D01*
X133676054Y-72903100D01*
X133738838Y-72668789D01*
X133770500Y-72428288D01*
X133770500Y-72185712D01*
X133738838Y-71945211D01*
X133676054Y-71710900D01*
X133583224Y-71486788D01*
X133461936Y-71276711D01*
X133314265Y-71084262D01*
X133314260Y-71084256D01*
X133142743Y-70912739D01*
X133142736Y-70912733D01*
X132950293Y-70765067D01*
X132950292Y-70765066D01*
X132950289Y-70765064D01*
X132740212Y-70643776D01*
X132740205Y-70643773D01*
X132516104Y-70550947D01*
X132281785Y-70488161D01*
X132041289Y-70456500D01*
X132041288Y-70456500D01*
X131798712Y-70456500D01*
X131798711Y-70456500D01*
X131558214Y-70488161D01*
X131323895Y-70550947D01*
X131099794Y-70643773D01*
X131099785Y-70643777D01*
X130889706Y-70765067D01*
X130697263Y-70912733D01*
X130697256Y-70912739D01*
X130525739Y-71084256D01*
X130525733Y-71084263D01*
X130378067Y-71276706D01*
X130256777Y-71486785D01*
X130256773Y-71486794D01*
X130163947Y-71710895D01*
X130101161Y-71945214D01*
X130069500Y-72185711D01*
X112340500Y-72185711D01*
X112340500Y-66653934D01*
X116914500Y-66653934D01*
X116914500Y-66960065D01*
X116948773Y-67264244D01*
X116948775Y-67264256D01*
X117016893Y-67562703D01*
X117016894Y-67562705D01*
X117117999Y-67851648D01*
X117250818Y-68127450D01*
X117413688Y-68386655D01*
X117413689Y-68386657D01*
X117604543Y-68625982D01*
X117821017Y-68842456D01*
X118060342Y-69033310D01*
X118060345Y-69033311D01*
X118060347Y-69033313D01*
X118319547Y-69196180D01*
X118595353Y-69329001D01*
X118884296Y-69430106D01*
X119182743Y-69498225D01*
X119486935Y-69532499D01*
X119486936Y-69532500D01*
X119486939Y-69532500D01*
X119793064Y-69532500D01*
X119793064Y-69532499D01*
X120097257Y-69498225D01*
X120395704Y-69430106D01*
X120684647Y-69329001D01*
X120960453Y-69196180D01*
X121219653Y-69033313D01*
X121219657Y-69033310D01*
X121458982Y-68842456D01*
X121458984Y-68842453D01*
X121458989Y-68842450D01*
X121675450Y-68625989D01*
X121866313Y-68386653D01*
X122029180Y-68127453D01*
X122162001Y-67851647D01*
X122263106Y-67562704D01*
X122331225Y-67264257D01*
X122365500Y-66960061D01*
X122365500Y-66653939D01*
X122331225Y-66349743D01*
X122263106Y-66051296D01*
X122162001Y-65762353D01*
X122029180Y-65486547D01*
X121866313Y-65227347D01*
X121866311Y-65227344D01*
X121866310Y-65227342D01*
X121675456Y-64988017D01*
X121458982Y-64771543D01*
X121219657Y-64580689D01*
X121219655Y-64580688D01*
X120960447Y-64417816D01*
X120702037Y-64293373D01*
X120702036Y-64293373D01*
X120684647Y-64284999D01*
X120400898Y-64185711D01*
X130069500Y-64185711D01*
X130069500Y-64428288D01*
X130101161Y-64668785D01*
X130163947Y-64903104D01*
X130256773Y-65127205D01*
X130256776Y-65127212D01*
X130378064Y-65337289D01*
X130378066Y-65337292D01*
X130378067Y-65337293D01*
X130525733Y-65529736D01*
X130525739Y-65529743D01*
X130697256Y-65701260D01*
X130697262Y-65701265D01*
X130889711Y-65848936D01*
X131099788Y-65970224D01*
X131323900Y-66063054D01*
X131558211Y-66125838D01*
X131738586Y-66149584D01*
X131798711Y-66157500D01*
X131798712Y-66157500D01*
X132041289Y-66157500D01*
X132089388Y-66151167D01*
X132281789Y-66125838D01*
X132516100Y-66063054D01*
X132740212Y-65970224D01*
X132950289Y-65848936D01*
X133142738Y-65701265D01*
X133314265Y-65529738D01*
X133461936Y-65337289D01*
X133583224Y-65127212D01*
X133676054Y-64903100D01*
X133738838Y-64668789D01*
X133770500Y-64428288D01*
X133770500Y-64185712D01*
X133738838Y-63945211D01*
X133676054Y-63710900D01*
X133583224Y-63486788D01*
X133461936Y-63276711D01*
X133314265Y-63084262D01*
X133314260Y-63084256D01*
X133142743Y-62912739D01*
X133142736Y-62912733D01*
X132950293Y-62765067D01*
X132950292Y-62765066D01*
X132950289Y-62765064D01*
X132740212Y-62643776D01*
X132740205Y-62643773D01*
X132516104Y-62550947D01*
X132281785Y-62488161D01*
X132041289Y-62456500D01*
X132041288Y-62456500D01*
X131798712Y-62456500D01*
X131798711Y-62456500D01*
X131558214Y-62488161D01*
X131323895Y-62550947D01*
X131099794Y-62643773D01*
X131099785Y-62643777D01*
X130889706Y-62765067D01*
X130697263Y-62912733D01*
X130697256Y-62912739D01*
X130525739Y-63084256D01*
X130525733Y-63084263D01*
X130378067Y-63276706D01*
X130256777Y-63486785D01*
X130256773Y-63486794D01*
X130163947Y-63710895D01*
X130101161Y-63945214D01*
X130069500Y-64185711D01*
X120400898Y-64185711D01*
X120395705Y-64183894D01*
X120395703Y-64183893D01*
X120165375Y-64131322D01*
X120097257Y-64115775D01*
X120097253Y-64115774D01*
X120097244Y-64115773D01*
X119793065Y-64081500D01*
X119793061Y-64081500D01*
X119486939Y-64081500D01*
X119486934Y-64081500D01*
X119182755Y-64115773D01*
X119182743Y-64115775D01*
X118884296Y-64183893D01*
X118884294Y-64183894D01*
X118595351Y-64284999D01*
X118319549Y-64417818D01*
X118060344Y-64580688D01*
X118060342Y-64580689D01*
X117821017Y-64771543D01*
X117604543Y-64988017D01*
X117413689Y-65227342D01*
X117413688Y-65227344D01*
X117250818Y-65486549D01*
X117117999Y-65762351D01*
X117016894Y-66051294D01*
X117016893Y-66051296D01*
X116948775Y-66349743D01*
X116948773Y-66349755D01*
X116914500Y-66653934D01*
X112340500Y-66653934D01*
X112340500Y-58653934D01*
X141474500Y-58653934D01*
X141474500Y-58960065D01*
X141508773Y-59264244D01*
X141508775Y-59264256D01*
X141576893Y-59562703D01*
X141576894Y-59562705D01*
X141677999Y-59851648D01*
X141810818Y-60127450D01*
X141973688Y-60386655D01*
X141973689Y-60386657D01*
X142164543Y-60625982D01*
X142381017Y-60842456D01*
X142620342Y-61033310D01*
X142620345Y-61033311D01*
X142620347Y-61033313D01*
X142879547Y-61196180D01*
X143155353Y-61329001D01*
X143444296Y-61430106D01*
X143742743Y-61498225D01*
X144046935Y-61532499D01*
X144046936Y-61532500D01*
X144046939Y-61532500D01*
X144353064Y-61532500D01*
X144353064Y-61532499D01*
X144657257Y-61498225D01*
X144955704Y-61430106D01*
X145244647Y-61329001D01*
X145520453Y-61196180D01*
X145779653Y-61033313D01*
X145779657Y-61033310D01*
X146018982Y-60842456D01*
X146018984Y-60842453D01*
X146018989Y-60842450D01*
X146235450Y-60625989D01*
X146426313Y-60386653D01*
X146589180Y-60127453D01*
X146722001Y-59851647D01*
X146823106Y-59562704D01*
X146891225Y-59264257D01*
X146925500Y-58960061D01*
X146925500Y-58653939D01*
X146891225Y-58349743D01*
X146823106Y-58051296D01*
X146722001Y-57762353D01*
X146589180Y-57486547D01*
X146426313Y-57227347D01*
X146426311Y-57227344D01*
X146426310Y-57227342D01*
X146235456Y-56988017D01*
X146018982Y-56771543D01*
X145779657Y-56580689D01*
X145779655Y-56580688D01*
X145520450Y-56417818D01*
X145244648Y-56284999D01*
X144955705Y-56183894D01*
X144955703Y-56183893D01*
X144725375Y-56131322D01*
X144657257Y-56115775D01*
X144657253Y-56115774D01*
X144657244Y-56115773D01*
X144353065Y-56081500D01*
X144353061Y-56081500D01*
X144046939Y-56081500D01*
X144046934Y-56081500D01*
X143742755Y-56115773D01*
X143742743Y-56115775D01*
X143444296Y-56183893D01*
X143444294Y-56183894D01*
X143155351Y-56284999D01*
X142879549Y-56417818D01*
X142620344Y-56580688D01*
X142620342Y-56580689D01*
X142381017Y-56771543D01*
X142164543Y-56988017D01*
X141973689Y-57227342D01*
X141973688Y-57227344D01*
X141810818Y-57486549D01*
X141677999Y-57762351D01*
X141576894Y-58051294D01*
X141576893Y-58051296D01*
X141508775Y-58349743D01*
X141508773Y-58349755D01*
X141474500Y-58653934D01*
X112340500Y-58653934D01*
X112340500Y-56185711D01*
X130069500Y-56185711D01*
X130069500Y-56428288D01*
X130101161Y-56668785D01*
X130163947Y-56903104D01*
X130256773Y-57127205D01*
X130256776Y-57127212D01*
X130378064Y-57337289D01*
X130378066Y-57337292D01*
X130378067Y-57337293D01*
X130525733Y-57529736D01*
X130525739Y-57529743D01*
X130697256Y-57701260D01*
X130697262Y-57701265D01*
X130889711Y-57848936D01*
X131099788Y-57970224D01*
X131323900Y-58063054D01*
X131558211Y-58125838D01*
X131738586Y-58149584D01*
X131798711Y-58157500D01*
X131798712Y-58157500D01*
X132041289Y-58157500D01*
X132089388Y-58151167D01*
X132281789Y-58125838D01*
X132516100Y-58063054D01*
X132740212Y-57970224D01*
X132950289Y-57848936D01*
X133142738Y-57701265D01*
X133314265Y-57529738D01*
X133461936Y-57337289D01*
X133583224Y-57127212D01*
X133676054Y-56903100D01*
X133738838Y-56668789D01*
X133770500Y-56428288D01*
X133770500Y-56185712D01*
X133738838Y-55945211D01*
X133676054Y-55710900D01*
X133583224Y-55486788D01*
X133461936Y-55276711D01*
X133314265Y-55084262D01*
X133314260Y-55084256D01*
X133142743Y-54912739D01*
X133142736Y-54912733D01*
X132950293Y-54765067D01*
X132950292Y-54765066D01*
X132950289Y-54765064D01*
X132740212Y-54643776D01*
X132740205Y-54643773D01*
X132516104Y-54550947D01*
X132281785Y-54488161D01*
X132041289Y-54456500D01*
X132041288Y-54456500D01*
X131798712Y-54456500D01*
X131798711Y-54456500D01*
X131558214Y-54488161D01*
X131323895Y-54550947D01*
X131099794Y-54643773D01*
X131099785Y-54643777D01*
X130889706Y-54765067D01*
X130697263Y-54912733D01*
X130697256Y-54912739D01*
X130525739Y-55084256D01*
X130525733Y-55084263D01*
X130378067Y-55276706D01*
X130256777Y-55486785D01*
X130256773Y-55486794D01*
X130163947Y-55710895D01*
X130101161Y-55945214D01*
X130069500Y-56185711D01*
X112340500Y-56185711D01*
X112340500Y-50653934D01*
X116914500Y-50653934D01*
X116914500Y-50960065D01*
X116948773Y-51264244D01*
X116948775Y-51264256D01*
X117016893Y-51562703D01*
X117016894Y-51562705D01*
X117117999Y-51851648D01*
X117250818Y-52127450D01*
X117413688Y-52386655D01*
X117413689Y-52386657D01*
X117604543Y-52625982D01*
X117821017Y-52842456D01*
X118060342Y-53033310D01*
X118060345Y-53033311D01*
X118060347Y-53033313D01*
X118319547Y-53196180D01*
X118595353Y-53329001D01*
X118884296Y-53430106D01*
X119182743Y-53498225D01*
X119486935Y-53532499D01*
X119486936Y-53532500D01*
X119486939Y-53532500D01*
X119793064Y-53532500D01*
X119793064Y-53532499D01*
X120097257Y-53498225D01*
X120395704Y-53430106D01*
X120684647Y-53329001D01*
X120960453Y-53196180D01*
X121219653Y-53033313D01*
X121219657Y-53033310D01*
X121458982Y-52842456D01*
X121458984Y-52842453D01*
X121458989Y-52842450D01*
X121675450Y-52625989D01*
X121866313Y-52386653D01*
X122029180Y-52127453D01*
X122162001Y-51851647D01*
X122263106Y-51562704D01*
X122331225Y-51264257D01*
X122365500Y-50960061D01*
X122365500Y-50653939D01*
X122331225Y-50349743D01*
X122263106Y-50051296D01*
X122162001Y-49762353D01*
X122029180Y-49486547D01*
X121866313Y-49227347D01*
X121866311Y-49227344D01*
X121866310Y-49227342D01*
X121675456Y-48988017D01*
X121458982Y-48771543D01*
X121219657Y-48580689D01*
X121219655Y-48580688D01*
X120960447Y-48417816D01*
X120702037Y-48293373D01*
X120702036Y-48293373D01*
X120684647Y-48284999D01*
X120400898Y-48185711D01*
X130069500Y-48185711D01*
X130069500Y-48428288D01*
X130101161Y-48668785D01*
X130163947Y-48903104D01*
X130256773Y-49127205D01*
X130256776Y-49127212D01*
X130378064Y-49337289D01*
X130378066Y-49337292D01*
X130378067Y-49337293D01*
X130525733Y-49529736D01*
X130525739Y-49529743D01*
X130697256Y-49701260D01*
X130697262Y-49701265D01*
X130889711Y-49848936D01*
X131099788Y-49970224D01*
X131323900Y-50063054D01*
X131558211Y-50125838D01*
X131738586Y-50149584D01*
X131798711Y-50157500D01*
X131798712Y-50157500D01*
X132041289Y-50157500D01*
X132089388Y-50151167D01*
X132281789Y-50125838D01*
X132516100Y-50063054D01*
X132740212Y-49970224D01*
X132950289Y-49848936D01*
X133142738Y-49701265D01*
X133314265Y-49529738D01*
X133461936Y-49337289D01*
X133583224Y-49127212D01*
X133676054Y-48903100D01*
X133738838Y-48668789D01*
X133770500Y-48428288D01*
X133770500Y-48185712D01*
X133738838Y-47945211D01*
X133676054Y-47710900D01*
X133583224Y-47486788D01*
X133461936Y-47276711D01*
X133314265Y-47084262D01*
X133314260Y-47084256D01*
X133142743Y-46912739D01*
X133142736Y-46912733D01*
X132950293Y-46765067D01*
X132950292Y-46765066D01*
X132950289Y-46765064D01*
X132740212Y-46643776D01*
X132740205Y-46643773D01*
X132516104Y-46550947D01*
X132281785Y-46488161D01*
X132041289Y-46456500D01*
X132041288Y-46456500D01*
X131798712Y-46456500D01*
X131798711Y-46456500D01*
X131558214Y-46488161D01*
X131323895Y-46550947D01*
X131099794Y-46643773D01*
X131099785Y-46643777D01*
X130889706Y-46765067D01*
X130697263Y-46912733D01*
X130697256Y-46912739D01*
X130525739Y-47084256D01*
X130525733Y-47084263D01*
X130378067Y-47276706D01*
X130256777Y-47486785D01*
X130256773Y-47486794D01*
X130163947Y-47710895D01*
X130101161Y-47945214D01*
X130069500Y-48185711D01*
X120400898Y-48185711D01*
X120395705Y-48183894D01*
X120395703Y-48183893D01*
X120165375Y-48131322D01*
X120097257Y-48115775D01*
X120097253Y-48115774D01*
X120097244Y-48115773D01*
X119793065Y-48081500D01*
X119793061Y-48081500D01*
X119486939Y-48081500D01*
X119486934Y-48081500D01*
X119182755Y-48115773D01*
X119182743Y-48115775D01*
X118884296Y-48183893D01*
X118884294Y-48183894D01*
X118595351Y-48284999D01*
X118319549Y-48417818D01*
X118060344Y-48580688D01*
X118060342Y-48580689D01*
X117821017Y-48771543D01*
X117604543Y-48988017D01*
X117413689Y-49227342D01*
X117413688Y-49227344D01*
X117250818Y-49486549D01*
X117117999Y-49762351D01*
X117016894Y-50051294D01*
X117016893Y-50051296D01*
X116948775Y-50349743D01*
X116948773Y-50349755D01*
X116914500Y-50653934D01*
X112340500Y-50653934D01*
X112340500Y-37785711D01*
X117489500Y-37785711D01*
X117489500Y-38028288D01*
X117521161Y-38268785D01*
X117583947Y-38503104D01*
X117676773Y-38727205D01*
X117676776Y-38727212D01*
X117798064Y-38937289D01*
X117798066Y-38937292D01*
X117798067Y-38937293D01*
X117945733Y-39129736D01*
X117945739Y-39129743D01*
X118117256Y-39301260D01*
X118117262Y-39301265D01*
X118309711Y-39448936D01*
X118519788Y-39570224D01*
X118743900Y-39663054D01*
X118978211Y-39725838D01*
X119158586Y-39749584D01*
X119218711Y-39757500D01*
X119218712Y-39757500D01*
X119461289Y-39757500D01*
X119509388Y-39751167D01*
X119701789Y-39725838D01*
X119936100Y-39663054D01*
X120160212Y-39570224D01*
X120370289Y-39448936D01*
X120562738Y-39301265D01*
X120734265Y-39129738D01*
X120881936Y-38937289D01*
X121003224Y-38727212D01*
X121096054Y-38503100D01*
X121158838Y-38268789D01*
X121190500Y-38028288D01*
X121190500Y-37785712D01*
X121190500Y-37785711D01*
X142649500Y-37785711D01*
X142649500Y-38028288D01*
X142681161Y-38268785D01*
X142743947Y-38503104D01*
X142836773Y-38727205D01*
X142836776Y-38727212D01*
X142958064Y-38937289D01*
X142958066Y-38937292D01*
X142958067Y-38937293D01*
X143105733Y-39129736D01*
X143105739Y-39129743D01*
X143277256Y-39301260D01*
X143277262Y-39301265D01*
X143469711Y-39448936D01*
X143679788Y-39570224D01*
X143903900Y-39663054D01*
X144138211Y-39725838D01*
X144318586Y-39749584D01*
X144378711Y-39757500D01*
X144378712Y-39757500D01*
X144621289Y-39757500D01*
X144669388Y-39751167D01*
X144861789Y-39725838D01*
X145096100Y-39663054D01*
X145320212Y-39570224D01*
X145530289Y-39448936D01*
X145722738Y-39301265D01*
X145894265Y-39129738D01*
X146041936Y-38937289D01*
X146163224Y-38727212D01*
X146256054Y-38503100D01*
X146318838Y-38268789D01*
X146350500Y-38028288D01*
X146350500Y-37785712D01*
X146318838Y-37545211D01*
X146256054Y-37310900D01*
X146163224Y-37086788D01*
X146041936Y-36876711D01*
X145894265Y-36684262D01*
X145894260Y-36684256D01*
X145722743Y-36512739D01*
X145722736Y-36512733D01*
X145530293Y-36365067D01*
X145530292Y-36365066D01*
X145530289Y-36365064D01*
X145320212Y-36243776D01*
X145320205Y-36243773D01*
X145096104Y-36150947D01*
X144861785Y-36088161D01*
X144621289Y-36056500D01*
X144621288Y-36056500D01*
X144378712Y-36056500D01*
X144378711Y-36056500D01*
X144138214Y-36088161D01*
X143903895Y-36150947D01*
X143679794Y-36243773D01*
X143679785Y-36243777D01*
X143469706Y-36365067D01*
X143277263Y-36512733D01*
X143277256Y-36512739D01*
X143105739Y-36684256D01*
X143105733Y-36684263D01*
X142958067Y-36876706D01*
X142836777Y-37086785D01*
X142836773Y-37086794D01*
X142743947Y-37310895D01*
X142681161Y-37545214D01*
X142649500Y-37785711D01*
X121190500Y-37785711D01*
X121158838Y-37545211D01*
X121096054Y-37310900D01*
X121003224Y-37086788D01*
X120881936Y-36876711D01*
X120734265Y-36684262D01*
X120734260Y-36684256D01*
X120562743Y-36512739D01*
X120562736Y-36512733D01*
X120370293Y-36365067D01*
X120370292Y-36365066D01*
X120370289Y-36365064D01*
X120160212Y-36243776D01*
X120160205Y-36243773D01*
X119936104Y-36150947D01*
X119701785Y-36088161D01*
X119461289Y-36056500D01*
X119461288Y-36056500D01*
X119218712Y-36056500D01*
X119218711Y-36056500D01*
X118978214Y-36088161D01*
X118743895Y-36150947D01*
X118519794Y-36243773D01*
X118519785Y-36243777D01*
X118309706Y-36365067D01*
X118117263Y-36512733D01*
X118117256Y-36512739D01*
X117945739Y-36684256D01*
X117945733Y-36684263D01*
X117798067Y-36876706D01*
X117676777Y-37086785D01*
X117676773Y-37086794D01*
X117583947Y-37310895D01*
X117521161Y-37545214D01*
X117489500Y-37785711D01*
X112340500Y-37785711D01*
X112340500Y-35531500D01*
X112360185Y-35464461D01*
X112412989Y-35418706D01*
X112464500Y-35407500D01*
X151375500Y-35407500D01*
X151442539Y-35427185D01*
G37*
%TD.AperFunction*%
%TD*%
M02*
