%TF.GenerationSoftware,KiCad,Pcbnew,10.0.0*%
%TF.CreationDate,2026-07-18T22:04:34-07:00*%
%TF.ProjectId,pulses_plus_submin,70756c73-6573-45f7-906c-75735f737562,rev?*%
%TF.SameCoordinates,Original*%
%TF.FileFunction,Legend,Top*%
%TF.FilePolarity,Positive*%
%FSLAX46Y46*%
G04 Gerber Fmt 4.6, Leading zero omitted, Abs format (unit mm)*
G04 Created by KiCad (PCBNEW 10.0.0) date 2026-07-18 22:04:34*
%MOMM*%
%LPD*%
G01*
G04 APERTURE LIST*
%ADD10C,0.100000*%
%ADD11C,0.150000*%
%ADD12C,0.120000*%
%ADD13C,0.127000*%
G04 APERTURE END LIST*
D10*
X151161027Y-46942587D02*
X151494360Y-47942587D01*
X151494360Y-47942587D02*
X151827693Y-46942587D01*
X152541979Y-47894968D02*
X152446741Y-47942587D01*
X152446741Y-47942587D02*
X152256265Y-47942587D01*
X152256265Y-47942587D02*
X152161027Y-47894968D01*
X152161027Y-47894968D02*
X152113408Y-47799729D01*
X152113408Y-47799729D02*
X152113408Y-47418777D01*
X152113408Y-47418777D02*
X152161027Y-47323539D01*
X152161027Y-47323539D02*
X152256265Y-47275920D01*
X152256265Y-47275920D02*
X152446741Y-47275920D01*
X152446741Y-47275920D02*
X152541979Y-47323539D01*
X152541979Y-47323539D02*
X152589598Y-47418777D01*
X152589598Y-47418777D02*
X152589598Y-47514015D01*
X152589598Y-47514015D02*
X152113408Y-47609253D01*
X153018170Y-47942587D02*
X153018170Y-47275920D01*
X153018170Y-47466396D02*
X153065789Y-47371158D01*
X153065789Y-47371158D02*
X153113408Y-47323539D01*
X153113408Y-47323539D02*
X153208646Y-47275920D01*
X153208646Y-47275920D02*
X153303884Y-47275920D01*
X153589599Y-47894968D02*
X153684837Y-47942587D01*
X153684837Y-47942587D02*
X153875313Y-47942587D01*
X153875313Y-47942587D02*
X153970551Y-47894968D01*
X153970551Y-47894968D02*
X154018170Y-47799729D01*
X154018170Y-47799729D02*
X154018170Y-47752110D01*
X154018170Y-47752110D02*
X153970551Y-47656872D01*
X153970551Y-47656872D02*
X153875313Y-47609253D01*
X153875313Y-47609253D02*
X153732456Y-47609253D01*
X153732456Y-47609253D02*
X153637218Y-47561634D01*
X153637218Y-47561634D02*
X153589599Y-47466396D01*
X153589599Y-47466396D02*
X153589599Y-47418777D01*
X153589599Y-47418777D02*
X153637218Y-47323539D01*
X153637218Y-47323539D02*
X153732456Y-47275920D01*
X153732456Y-47275920D02*
X153875313Y-47275920D01*
X153875313Y-47275920D02*
X153970551Y-47323539D01*
X154446742Y-47942587D02*
X154446742Y-47275920D01*
X154446742Y-46942587D02*
X154399123Y-46990206D01*
X154399123Y-46990206D02*
X154446742Y-47037825D01*
X154446742Y-47037825D02*
X154494361Y-46990206D01*
X154494361Y-46990206D02*
X154446742Y-46942587D01*
X154446742Y-46942587D02*
X154446742Y-47037825D01*
X155065789Y-47942587D02*
X154970551Y-47894968D01*
X154970551Y-47894968D02*
X154922932Y-47847348D01*
X154922932Y-47847348D02*
X154875313Y-47752110D01*
X154875313Y-47752110D02*
X154875313Y-47466396D01*
X154875313Y-47466396D02*
X154922932Y-47371158D01*
X154922932Y-47371158D02*
X154970551Y-47323539D01*
X154970551Y-47323539D02*
X155065789Y-47275920D01*
X155065789Y-47275920D02*
X155208646Y-47275920D01*
X155208646Y-47275920D02*
X155303884Y-47323539D01*
X155303884Y-47323539D02*
X155351503Y-47371158D01*
X155351503Y-47371158D02*
X155399122Y-47466396D01*
X155399122Y-47466396D02*
X155399122Y-47752110D01*
X155399122Y-47752110D02*
X155351503Y-47847348D01*
X155351503Y-47847348D02*
X155303884Y-47894968D01*
X155303884Y-47894968D02*
X155208646Y-47942587D01*
X155208646Y-47942587D02*
X155065789Y-47942587D01*
X155827694Y-47275920D02*
X155827694Y-47942587D01*
X155827694Y-47371158D02*
X155875313Y-47323539D01*
X155875313Y-47323539D02*
X155970551Y-47275920D01*
X155970551Y-47275920D02*
X156113408Y-47275920D01*
X156113408Y-47275920D02*
X156208646Y-47323539D01*
X156208646Y-47323539D02*
X156256265Y-47418777D01*
X156256265Y-47418777D02*
X156256265Y-47942587D01*
X158018170Y-47942587D02*
X157446742Y-47942587D01*
X157732456Y-47942587D02*
X157732456Y-46942587D01*
X157732456Y-46942587D02*
X157637218Y-47085444D01*
X157637218Y-47085444D02*
X157541980Y-47180682D01*
X157541980Y-47180682D02*
X157446742Y-47228301D01*
X158446742Y-47847348D02*
X158494361Y-47894968D01*
X158494361Y-47894968D02*
X158446742Y-47942587D01*
X158446742Y-47942587D02*
X158399123Y-47894968D01*
X158399123Y-47894968D02*
X158446742Y-47847348D01*
X158446742Y-47847348D02*
X158446742Y-47942587D01*
X159113408Y-46942587D02*
X159208646Y-46942587D01*
X159208646Y-46942587D02*
X159303884Y-46990206D01*
X159303884Y-46990206D02*
X159351503Y-47037825D01*
X159351503Y-47037825D02*
X159399122Y-47133063D01*
X159399122Y-47133063D02*
X159446741Y-47323539D01*
X159446741Y-47323539D02*
X159446741Y-47561634D01*
X159446741Y-47561634D02*
X159399122Y-47752110D01*
X159399122Y-47752110D02*
X159351503Y-47847348D01*
X159351503Y-47847348D02*
X159303884Y-47894968D01*
X159303884Y-47894968D02*
X159208646Y-47942587D01*
X159208646Y-47942587D02*
X159113408Y-47942587D01*
X159113408Y-47942587D02*
X159018170Y-47894968D01*
X159018170Y-47894968D02*
X158970551Y-47847348D01*
X158970551Y-47847348D02*
X158922932Y-47752110D01*
X158922932Y-47752110D02*
X158875313Y-47561634D01*
X158875313Y-47561634D02*
X158875313Y-47323539D01*
X158875313Y-47323539D02*
X158922932Y-47133063D01*
X158922932Y-47133063D02*
X158970551Y-47037825D01*
X158970551Y-47037825D02*
X159018170Y-46990206D01*
X159018170Y-46990206D02*
X159113408Y-46942587D01*
X151303884Y-49552531D02*
X151303884Y-48552531D01*
X151399122Y-49171578D02*
X151684836Y-49552531D01*
X151684836Y-48885864D02*
X151303884Y-49266816D01*
X152541979Y-48885864D02*
X152541979Y-49552531D01*
X152113408Y-48885864D02*
X152113408Y-49409673D01*
X152113408Y-49409673D02*
X152161027Y-49504912D01*
X152161027Y-49504912D02*
X152256265Y-49552531D01*
X152256265Y-49552531D02*
X152399122Y-49552531D01*
X152399122Y-49552531D02*
X152494360Y-49504912D01*
X152494360Y-49504912D02*
X152541979Y-49457292D01*
X153446741Y-49552531D02*
X153446741Y-49028721D01*
X153446741Y-49028721D02*
X153399122Y-48933483D01*
X153399122Y-48933483D02*
X153303884Y-48885864D01*
X153303884Y-48885864D02*
X153113408Y-48885864D01*
X153113408Y-48885864D02*
X153018170Y-48933483D01*
X153446741Y-49504912D02*
X153351503Y-49552531D01*
X153351503Y-49552531D02*
X153113408Y-49552531D01*
X153113408Y-49552531D02*
X153018170Y-49504912D01*
X153018170Y-49504912D02*
X152970551Y-49409673D01*
X152970551Y-49409673D02*
X152970551Y-49314435D01*
X152970551Y-49314435D02*
X153018170Y-49219197D01*
X153018170Y-49219197D02*
X153113408Y-49171578D01*
X153113408Y-49171578D02*
X153351503Y-49171578D01*
X153351503Y-49171578D02*
X153446741Y-49123959D01*
X153922932Y-48885864D02*
X153922932Y-49552531D01*
X153922932Y-48981102D02*
X153970551Y-48933483D01*
X153970551Y-48933483D02*
X154065789Y-48885864D01*
X154065789Y-48885864D02*
X154208646Y-48885864D01*
X154208646Y-48885864D02*
X154303884Y-48933483D01*
X154303884Y-48933483D02*
X154351503Y-49028721D01*
X154351503Y-49028721D02*
X154351503Y-49552531D01*
X155256265Y-48885864D02*
X155256265Y-49695388D01*
X155256265Y-49695388D02*
X155208646Y-49790626D01*
X155208646Y-49790626D02*
X155161027Y-49838245D01*
X155161027Y-49838245D02*
X155065789Y-49885864D01*
X155065789Y-49885864D02*
X154922932Y-49885864D01*
X154922932Y-49885864D02*
X154827694Y-49838245D01*
X155256265Y-49504912D02*
X155161027Y-49552531D01*
X155161027Y-49552531D02*
X154970551Y-49552531D01*
X154970551Y-49552531D02*
X154875313Y-49504912D01*
X154875313Y-49504912D02*
X154827694Y-49457292D01*
X154827694Y-49457292D02*
X154780075Y-49362054D01*
X154780075Y-49362054D02*
X154780075Y-49076340D01*
X154780075Y-49076340D02*
X154827694Y-48981102D01*
X154827694Y-48981102D02*
X154875313Y-48933483D01*
X154875313Y-48933483D02*
X154970551Y-48885864D01*
X154970551Y-48885864D02*
X155161027Y-48885864D01*
X155161027Y-48885864D02*
X155256265Y-48933483D01*
X155732456Y-49552531D02*
X155732456Y-48885864D01*
X155732456Y-48981102D02*
X155780075Y-48933483D01*
X155780075Y-48933483D02*
X155875313Y-48885864D01*
X155875313Y-48885864D02*
X156018170Y-48885864D01*
X156018170Y-48885864D02*
X156113408Y-48933483D01*
X156113408Y-48933483D02*
X156161027Y-49028721D01*
X156161027Y-49028721D02*
X156161027Y-49552531D01*
X156161027Y-49028721D02*
X156208646Y-48933483D01*
X156208646Y-48933483D02*
X156303884Y-48885864D01*
X156303884Y-48885864D02*
X156446741Y-48885864D01*
X156446741Y-48885864D02*
X156541980Y-48933483D01*
X156541980Y-48933483D02*
X156589599Y-49028721D01*
X156589599Y-49028721D02*
X156589599Y-49552531D01*
X157065789Y-49552531D02*
X157065789Y-48552531D01*
X157161027Y-49171578D02*
X157446741Y-49552531D01*
X157446741Y-48885864D02*
X157065789Y-49266816D01*
X158399122Y-49552531D02*
X157827694Y-49552531D01*
X158113408Y-49552531D02*
X158113408Y-48552531D01*
X158113408Y-48552531D02*
X158018170Y-48695388D01*
X158018170Y-48695388D02*
X157922932Y-48790626D01*
X157922932Y-48790626D02*
X157827694Y-48838245D01*
X159351503Y-49552531D02*
X158780075Y-49552531D01*
X159065789Y-49552531D02*
X159065789Y-48552531D01*
X159065789Y-48552531D02*
X158970551Y-48695388D01*
X158970551Y-48695388D02*
X158875313Y-48790626D01*
X158875313Y-48790626D02*
X158780075Y-48838245D01*
X151494360Y-50162475D02*
X151589598Y-50162475D01*
X151589598Y-50162475D02*
X151684836Y-50210094D01*
X151684836Y-50210094D02*
X151732455Y-50257713D01*
X151732455Y-50257713D02*
X151780074Y-50352951D01*
X151780074Y-50352951D02*
X151827693Y-50543427D01*
X151827693Y-50543427D02*
X151827693Y-50781522D01*
X151827693Y-50781522D02*
X151780074Y-50971998D01*
X151780074Y-50971998D02*
X151732455Y-51067236D01*
X151732455Y-51067236D02*
X151684836Y-51114856D01*
X151684836Y-51114856D02*
X151589598Y-51162475D01*
X151589598Y-51162475D02*
X151494360Y-51162475D01*
X151494360Y-51162475D02*
X151399122Y-51114856D01*
X151399122Y-51114856D02*
X151351503Y-51067236D01*
X151351503Y-51067236D02*
X151303884Y-50971998D01*
X151303884Y-50971998D02*
X151256265Y-50781522D01*
X151256265Y-50781522D02*
X151256265Y-50543427D01*
X151256265Y-50543427D02*
X151303884Y-50352951D01*
X151303884Y-50352951D02*
X151351503Y-50257713D01*
X151351503Y-50257713D02*
X151399122Y-50210094D01*
X151399122Y-50210094D02*
X151494360Y-50162475D01*
X152161027Y-50162475D02*
X152827693Y-50162475D01*
X152827693Y-50162475D02*
X152399122Y-51162475D01*
X153922931Y-50114856D02*
X153065789Y-51400570D01*
X154208646Y-50257713D02*
X154256265Y-50210094D01*
X154256265Y-50210094D02*
X154351503Y-50162475D01*
X154351503Y-50162475D02*
X154589598Y-50162475D01*
X154589598Y-50162475D02*
X154684836Y-50210094D01*
X154684836Y-50210094D02*
X154732455Y-50257713D01*
X154732455Y-50257713D02*
X154780074Y-50352951D01*
X154780074Y-50352951D02*
X154780074Y-50448189D01*
X154780074Y-50448189D02*
X154732455Y-50591046D01*
X154732455Y-50591046D02*
X154161027Y-51162475D01*
X154161027Y-51162475D02*
X154780074Y-51162475D01*
X155399122Y-50162475D02*
X155494360Y-50162475D01*
X155494360Y-50162475D02*
X155589598Y-50210094D01*
X155589598Y-50210094D02*
X155637217Y-50257713D01*
X155637217Y-50257713D02*
X155684836Y-50352951D01*
X155684836Y-50352951D02*
X155732455Y-50543427D01*
X155732455Y-50543427D02*
X155732455Y-50781522D01*
X155732455Y-50781522D02*
X155684836Y-50971998D01*
X155684836Y-50971998D02*
X155637217Y-51067236D01*
X155637217Y-51067236D02*
X155589598Y-51114856D01*
X155589598Y-51114856D02*
X155494360Y-51162475D01*
X155494360Y-51162475D02*
X155399122Y-51162475D01*
X155399122Y-51162475D02*
X155303884Y-51114856D01*
X155303884Y-51114856D02*
X155256265Y-51067236D01*
X155256265Y-51067236D02*
X155208646Y-50971998D01*
X155208646Y-50971998D02*
X155161027Y-50781522D01*
X155161027Y-50781522D02*
X155161027Y-50543427D01*
X155161027Y-50543427D02*
X155208646Y-50352951D01*
X155208646Y-50352951D02*
X155256265Y-50257713D01*
X155256265Y-50257713D02*
X155303884Y-50210094D01*
X155303884Y-50210094D02*
X155399122Y-50162475D01*
X156113408Y-50257713D02*
X156161027Y-50210094D01*
X156161027Y-50210094D02*
X156256265Y-50162475D01*
X156256265Y-50162475D02*
X156494360Y-50162475D01*
X156494360Y-50162475D02*
X156589598Y-50210094D01*
X156589598Y-50210094D02*
X156637217Y-50257713D01*
X156637217Y-50257713D02*
X156684836Y-50352951D01*
X156684836Y-50352951D02*
X156684836Y-50448189D01*
X156684836Y-50448189D02*
X156637217Y-50591046D01*
X156637217Y-50591046D02*
X156065789Y-51162475D01*
X156065789Y-51162475D02*
X156684836Y-51162475D01*
X157541979Y-50162475D02*
X157351503Y-50162475D01*
X157351503Y-50162475D02*
X157256265Y-50210094D01*
X157256265Y-50210094D02*
X157208646Y-50257713D01*
X157208646Y-50257713D02*
X157113408Y-50400570D01*
X157113408Y-50400570D02*
X157065789Y-50591046D01*
X157065789Y-50591046D02*
X157065789Y-50971998D01*
X157065789Y-50971998D02*
X157113408Y-51067236D01*
X157113408Y-51067236D02*
X157161027Y-51114856D01*
X157161027Y-51114856D02*
X157256265Y-51162475D01*
X157256265Y-51162475D02*
X157446741Y-51162475D01*
X157446741Y-51162475D02*
X157541979Y-51114856D01*
X157541979Y-51114856D02*
X157589598Y-51067236D01*
X157589598Y-51067236D02*
X157637217Y-50971998D01*
X157637217Y-50971998D02*
X157637217Y-50733903D01*
X157637217Y-50733903D02*
X157589598Y-50638665D01*
X157589598Y-50638665D02*
X157541979Y-50591046D01*
X157541979Y-50591046D02*
X157446741Y-50543427D01*
X157446741Y-50543427D02*
X157256265Y-50543427D01*
X157256265Y-50543427D02*
X157161027Y-50591046D01*
X157161027Y-50591046D02*
X157113408Y-50638665D01*
X157113408Y-50638665D02*
X157065789Y-50733903D01*
X151875312Y-52677180D02*
X151827693Y-52724800D01*
X151827693Y-52724800D02*
X151684836Y-52772419D01*
X151684836Y-52772419D02*
X151589598Y-52772419D01*
X151589598Y-52772419D02*
X151446741Y-52724800D01*
X151446741Y-52724800D02*
X151351503Y-52629561D01*
X151351503Y-52629561D02*
X151303884Y-52534323D01*
X151303884Y-52534323D02*
X151256265Y-52343847D01*
X151256265Y-52343847D02*
X151256265Y-52200990D01*
X151256265Y-52200990D02*
X151303884Y-52010514D01*
X151303884Y-52010514D02*
X151351503Y-51915276D01*
X151351503Y-51915276D02*
X151446741Y-51820038D01*
X151446741Y-51820038D02*
X151589598Y-51772419D01*
X151589598Y-51772419D02*
X151684836Y-51772419D01*
X151684836Y-51772419D02*
X151827693Y-51820038D01*
X151827693Y-51820038D02*
X151875312Y-51867657D01*
X152875312Y-52677180D02*
X152827693Y-52724800D01*
X152827693Y-52724800D02*
X152684836Y-52772419D01*
X152684836Y-52772419D02*
X152589598Y-52772419D01*
X152589598Y-52772419D02*
X152446741Y-52724800D01*
X152446741Y-52724800D02*
X152351503Y-52629561D01*
X152351503Y-52629561D02*
X152303884Y-52534323D01*
X152303884Y-52534323D02*
X152256265Y-52343847D01*
X152256265Y-52343847D02*
X152256265Y-52200990D01*
X152256265Y-52200990D02*
X152303884Y-52010514D01*
X152303884Y-52010514D02*
X152351503Y-51915276D01*
X152351503Y-51915276D02*
X152446741Y-51820038D01*
X152446741Y-51820038D02*
X152589598Y-51772419D01*
X152589598Y-51772419D02*
X152684836Y-51772419D01*
X152684836Y-51772419D02*
X152827693Y-51820038D01*
X152827693Y-51820038D02*
X152875312Y-51867657D01*
X154399122Y-52248609D02*
X154541979Y-52296228D01*
X154541979Y-52296228D02*
X154589598Y-52343847D01*
X154589598Y-52343847D02*
X154637217Y-52439085D01*
X154637217Y-52439085D02*
X154637217Y-52581942D01*
X154637217Y-52581942D02*
X154589598Y-52677180D01*
X154589598Y-52677180D02*
X154541979Y-52724800D01*
X154541979Y-52724800D02*
X154446741Y-52772419D01*
X154446741Y-52772419D02*
X154065789Y-52772419D01*
X154065789Y-52772419D02*
X154065789Y-51772419D01*
X154065789Y-51772419D02*
X154399122Y-51772419D01*
X154399122Y-51772419D02*
X154494360Y-51820038D01*
X154494360Y-51820038D02*
X154541979Y-51867657D01*
X154541979Y-51867657D02*
X154589598Y-51962895D01*
X154589598Y-51962895D02*
X154589598Y-52058133D01*
X154589598Y-52058133D02*
X154541979Y-52153371D01*
X154541979Y-52153371D02*
X154494360Y-52200990D01*
X154494360Y-52200990D02*
X154399122Y-52248609D01*
X154399122Y-52248609D02*
X154065789Y-52248609D01*
X155256265Y-52296228D02*
X155256265Y-52772419D01*
X154922932Y-51772419D02*
X155256265Y-52296228D01*
X155256265Y-52296228D02*
X155589598Y-51772419D01*
X155922932Y-52391466D02*
X156684837Y-52391466D01*
X157161027Y-52772419D02*
X157161027Y-51772419D01*
X157161027Y-51772419D02*
X157732455Y-52772419D01*
X157732455Y-52772419D02*
X157732455Y-51772419D01*
X158780074Y-52677180D02*
X158732455Y-52724800D01*
X158732455Y-52724800D02*
X158589598Y-52772419D01*
X158589598Y-52772419D02*
X158494360Y-52772419D01*
X158494360Y-52772419D02*
X158351503Y-52724800D01*
X158351503Y-52724800D02*
X158256265Y-52629561D01*
X158256265Y-52629561D02*
X158208646Y-52534323D01*
X158208646Y-52534323D02*
X158161027Y-52343847D01*
X158161027Y-52343847D02*
X158161027Y-52200990D01*
X158161027Y-52200990D02*
X158208646Y-52010514D01*
X158208646Y-52010514D02*
X158256265Y-51915276D01*
X158256265Y-51915276D02*
X158351503Y-51820038D01*
X158351503Y-51820038D02*
X158494360Y-51772419D01*
X158494360Y-51772419D02*
X158589598Y-51772419D01*
X158589598Y-51772419D02*
X158732455Y-51820038D01*
X158732455Y-51820038D02*
X158780074Y-51867657D01*
X159208646Y-52391466D02*
X159970551Y-52391466D01*
X160399122Y-52724800D02*
X160541979Y-52772419D01*
X160541979Y-52772419D02*
X160780074Y-52772419D01*
X160780074Y-52772419D02*
X160875312Y-52724800D01*
X160875312Y-52724800D02*
X160922931Y-52677180D01*
X160922931Y-52677180D02*
X160970550Y-52581942D01*
X160970550Y-52581942D02*
X160970550Y-52486704D01*
X160970550Y-52486704D02*
X160922931Y-52391466D01*
X160922931Y-52391466D02*
X160875312Y-52343847D01*
X160875312Y-52343847D02*
X160780074Y-52296228D01*
X160780074Y-52296228D02*
X160589598Y-52248609D01*
X160589598Y-52248609D02*
X160494360Y-52200990D01*
X160494360Y-52200990D02*
X160446741Y-52153371D01*
X160446741Y-52153371D02*
X160399122Y-52058133D01*
X160399122Y-52058133D02*
X160399122Y-51962895D01*
X160399122Y-51962895D02*
X160446741Y-51867657D01*
X160446741Y-51867657D02*
X160494360Y-51820038D01*
X160494360Y-51820038D02*
X160589598Y-51772419D01*
X160589598Y-51772419D02*
X160827693Y-51772419D01*
X160827693Y-51772419D02*
X160970550Y-51820038D01*
X161351503Y-52486704D02*
X161827693Y-52486704D01*
X161256265Y-52772419D02*
X161589598Y-51772419D01*
X161589598Y-51772419D02*
X161922931Y-52772419D01*
X163446741Y-52105752D02*
X163446741Y-52772419D01*
X163208646Y-51724800D02*
X162970551Y-52439085D01*
X162970551Y-52439085D02*
X163589598Y-52439085D01*
X163970551Y-52677180D02*
X164018170Y-52724800D01*
X164018170Y-52724800D02*
X163970551Y-52772419D01*
X163970551Y-52772419D02*
X163922932Y-52724800D01*
X163922932Y-52724800D02*
X163970551Y-52677180D01*
X163970551Y-52677180D02*
X163970551Y-52772419D01*
X164637217Y-51772419D02*
X164732455Y-51772419D01*
X164732455Y-51772419D02*
X164827693Y-51820038D01*
X164827693Y-51820038D02*
X164875312Y-51867657D01*
X164875312Y-51867657D02*
X164922931Y-51962895D01*
X164922931Y-51962895D02*
X164970550Y-52153371D01*
X164970550Y-52153371D02*
X164970550Y-52391466D01*
X164970550Y-52391466D02*
X164922931Y-52581942D01*
X164922931Y-52581942D02*
X164875312Y-52677180D01*
X164875312Y-52677180D02*
X164827693Y-52724800D01*
X164827693Y-52724800D02*
X164732455Y-52772419D01*
X164732455Y-52772419D02*
X164637217Y-52772419D01*
X164637217Y-52772419D02*
X164541979Y-52724800D01*
X164541979Y-52724800D02*
X164494360Y-52677180D01*
X164494360Y-52677180D02*
X164446741Y-52581942D01*
X164446741Y-52581942D02*
X164399122Y-52391466D01*
X164399122Y-52391466D02*
X164399122Y-52153371D01*
X164399122Y-52153371D02*
X164446741Y-51962895D01*
X164446741Y-51962895D02*
X164494360Y-51867657D01*
X164494360Y-51867657D02*
X164541979Y-51820038D01*
X164541979Y-51820038D02*
X164637217Y-51772419D01*
D11*
X144880952Y-95654819D02*
X144404762Y-95654819D01*
X144404762Y-95654819D02*
X144404762Y-94654819D01*
X145214286Y-95131009D02*
X145547619Y-95131009D01*
X145690476Y-95654819D02*
X145214286Y-95654819D01*
X145214286Y-95654819D02*
X145214286Y-94654819D01*
X145214286Y-94654819D02*
X145690476Y-94654819D01*
X146119048Y-95654819D02*
X146119048Y-94654819D01*
X146119048Y-94654819D02*
X146357143Y-94654819D01*
X146357143Y-94654819D02*
X146500000Y-94702438D01*
X146500000Y-94702438D02*
X146595238Y-94797676D01*
X146595238Y-94797676D02*
X146642857Y-94892914D01*
X146642857Y-94892914D02*
X146690476Y-95083390D01*
X146690476Y-95083390D02*
X146690476Y-95226247D01*
X146690476Y-95226247D02*
X146642857Y-95416723D01*
X146642857Y-95416723D02*
X146595238Y-95511961D01*
X146595238Y-95511961D02*
X146500000Y-95607200D01*
X146500000Y-95607200D02*
X146357143Y-95654819D01*
X146357143Y-95654819D02*
X146119048Y-95654819D01*
X147023810Y-94654819D02*
X147690476Y-94654819D01*
X147690476Y-94654819D02*
X147261905Y-95654819D01*
X128080952Y-124854819D02*
X127604762Y-124854819D01*
X127604762Y-124854819D02*
X127604762Y-123854819D01*
X128414286Y-124331009D02*
X128747619Y-124331009D01*
X128890476Y-124854819D02*
X128414286Y-124854819D01*
X128414286Y-124854819D02*
X128414286Y-123854819D01*
X128414286Y-123854819D02*
X128890476Y-123854819D01*
X129319048Y-124854819D02*
X129319048Y-123854819D01*
X129319048Y-123854819D02*
X129557143Y-123854819D01*
X129557143Y-123854819D02*
X129700000Y-123902438D01*
X129700000Y-123902438D02*
X129795238Y-123997676D01*
X129795238Y-123997676D02*
X129842857Y-124092914D01*
X129842857Y-124092914D02*
X129890476Y-124283390D01*
X129890476Y-124283390D02*
X129890476Y-124426247D01*
X129890476Y-124426247D02*
X129842857Y-124616723D01*
X129842857Y-124616723D02*
X129795238Y-124711961D01*
X129795238Y-124711961D02*
X129700000Y-124807200D01*
X129700000Y-124807200D02*
X129557143Y-124854819D01*
X129557143Y-124854819D02*
X129319048Y-124854819D01*
X130366667Y-124854819D02*
X130557143Y-124854819D01*
X130557143Y-124854819D02*
X130652381Y-124807200D01*
X130652381Y-124807200D02*
X130700000Y-124759580D01*
X130700000Y-124759580D02*
X130795238Y-124616723D01*
X130795238Y-124616723D02*
X130842857Y-124426247D01*
X130842857Y-124426247D02*
X130842857Y-124045295D01*
X130842857Y-124045295D02*
X130795238Y-123950057D01*
X130795238Y-123950057D02*
X130747619Y-123902438D01*
X130747619Y-123902438D02*
X130652381Y-123854819D01*
X130652381Y-123854819D02*
X130461905Y-123854819D01*
X130461905Y-123854819D02*
X130366667Y-123902438D01*
X130366667Y-123902438D02*
X130319048Y-123950057D01*
X130319048Y-123950057D02*
X130271429Y-124045295D01*
X130271429Y-124045295D02*
X130271429Y-124283390D01*
X130271429Y-124283390D02*
X130319048Y-124378628D01*
X130319048Y-124378628D02*
X130366667Y-124426247D01*
X130366667Y-124426247D02*
X130461905Y-124473866D01*
X130461905Y-124473866D02*
X130652381Y-124473866D01*
X130652381Y-124473866D02*
X130747619Y-124426247D01*
X130747619Y-124426247D02*
X130795238Y-124378628D01*
X130795238Y-124378628D02*
X130842857Y-124283390D01*
X144680952Y-61554819D02*
X144204762Y-61554819D01*
X144204762Y-61554819D02*
X144204762Y-60554819D01*
X145014286Y-61031009D02*
X145347619Y-61031009D01*
X145490476Y-61554819D02*
X145014286Y-61554819D01*
X145014286Y-61554819D02*
X145014286Y-60554819D01*
X145014286Y-60554819D02*
X145490476Y-60554819D01*
X145919048Y-61554819D02*
X145919048Y-60554819D01*
X145919048Y-60554819D02*
X146157143Y-60554819D01*
X146157143Y-60554819D02*
X146300000Y-60602438D01*
X146300000Y-60602438D02*
X146395238Y-60697676D01*
X146395238Y-60697676D02*
X146442857Y-60792914D01*
X146442857Y-60792914D02*
X146490476Y-60983390D01*
X146490476Y-60983390D02*
X146490476Y-61126247D01*
X146490476Y-61126247D02*
X146442857Y-61316723D01*
X146442857Y-61316723D02*
X146395238Y-61411961D01*
X146395238Y-61411961D02*
X146300000Y-61507200D01*
X146300000Y-61507200D02*
X146157143Y-61554819D01*
X146157143Y-61554819D02*
X145919048Y-61554819D01*
X146871429Y-60650057D02*
X146919048Y-60602438D01*
X146919048Y-60602438D02*
X147014286Y-60554819D01*
X147014286Y-60554819D02*
X147252381Y-60554819D01*
X147252381Y-60554819D02*
X147347619Y-60602438D01*
X147347619Y-60602438D02*
X147395238Y-60650057D01*
X147395238Y-60650057D02*
X147442857Y-60745295D01*
X147442857Y-60745295D02*
X147442857Y-60840533D01*
X147442857Y-60840533D02*
X147395238Y-60983390D01*
X147395238Y-60983390D02*
X146823810Y-61554819D01*
X146823810Y-61554819D02*
X147442857Y-61554819D01*
X156809167Y-108807200D02*
X156952024Y-108854819D01*
X156952024Y-108854819D02*
X157190119Y-108854819D01*
X157190119Y-108854819D02*
X157285357Y-108807200D01*
X157285357Y-108807200D02*
X157332976Y-108759580D01*
X157332976Y-108759580D02*
X157380595Y-108664342D01*
X157380595Y-108664342D02*
X157380595Y-108569104D01*
X157380595Y-108569104D02*
X157332976Y-108473866D01*
X157332976Y-108473866D02*
X157285357Y-108426247D01*
X157285357Y-108426247D02*
X157190119Y-108378628D01*
X157190119Y-108378628D02*
X156999643Y-108331009D01*
X156999643Y-108331009D02*
X156904405Y-108283390D01*
X156904405Y-108283390D02*
X156856786Y-108235771D01*
X156856786Y-108235771D02*
X156809167Y-108140533D01*
X156809167Y-108140533D02*
X156809167Y-108045295D01*
X156809167Y-108045295D02*
X156856786Y-107950057D01*
X156856786Y-107950057D02*
X156904405Y-107902438D01*
X156904405Y-107902438D02*
X156999643Y-107854819D01*
X156999643Y-107854819D02*
X157237738Y-107854819D01*
X157237738Y-107854819D02*
X157380595Y-107902438D01*
X157713929Y-107854819D02*
X157952024Y-108854819D01*
X157952024Y-108854819D02*
X158142500Y-108140533D01*
X158142500Y-108140533D02*
X158332976Y-108854819D01*
X158332976Y-108854819D02*
X158571072Y-107854819D01*
X159094881Y-108283390D02*
X158999643Y-108235771D01*
X158999643Y-108235771D02*
X158952024Y-108188152D01*
X158952024Y-108188152D02*
X158904405Y-108092914D01*
X158904405Y-108092914D02*
X158904405Y-108045295D01*
X158904405Y-108045295D02*
X158952024Y-107950057D01*
X158952024Y-107950057D02*
X158999643Y-107902438D01*
X158999643Y-107902438D02*
X159094881Y-107854819D01*
X159094881Y-107854819D02*
X159285357Y-107854819D01*
X159285357Y-107854819D02*
X159380595Y-107902438D01*
X159380595Y-107902438D02*
X159428214Y-107950057D01*
X159428214Y-107950057D02*
X159475833Y-108045295D01*
X159475833Y-108045295D02*
X159475833Y-108092914D01*
X159475833Y-108092914D02*
X159428214Y-108188152D01*
X159428214Y-108188152D02*
X159380595Y-108235771D01*
X159380595Y-108235771D02*
X159285357Y-108283390D01*
X159285357Y-108283390D02*
X159094881Y-108283390D01*
X159094881Y-108283390D02*
X158999643Y-108331009D01*
X158999643Y-108331009D02*
X158952024Y-108378628D01*
X158952024Y-108378628D02*
X158904405Y-108473866D01*
X158904405Y-108473866D02*
X158904405Y-108664342D01*
X158904405Y-108664342D02*
X158952024Y-108759580D01*
X158952024Y-108759580D02*
X158999643Y-108807200D01*
X158999643Y-108807200D02*
X159094881Y-108854819D01*
X159094881Y-108854819D02*
X159285357Y-108854819D01*
X159285357Y-108854819D02*
X159380595Y-108807200D01*
X159380595Y-108807200D02*
X159428214Y-108759580D01*
X159428214Y-108759580D02*
X159475833Y-108664342D01*
X159475833Y-108664342D02*
X159475833Y-108473866D01*
X159475833Y-108473866D02*
X159428214Y-108378628D01*
X159428214Y-108378628D02*
X159380595Y-108331009D01*
X159380595Y-108331009D02*
X159285357Y-108283390D01*
X156809167Y-60807200D02*
X156952024Y-60854819D01*
X156952024Y-60854819D02*
X157190119Y-60854819D01*
X157190119Y-60854819D02*
X157285357Y-60807200D01*
X157285357Y-60807200D02*
X157332976Y-60759580D01*
X157332976Y-60759580D02*
X157380595Y-60664342D01*
X157380595Y-60664342D02*
X157380595Y-60569104D01*
X157380595Y-60569104D02*
X157332976Y-60473866D01*
X157332976Y-60473866D02*
X157285357Y-60426247D01*
X157285357Y-60426247D02*
X157190119Y-60378628D01*
X157190119Y-60378628D02*
X156999643Y-60331009D01*
X156999643Y-60331009D02*
X156904405Y-60283390D01*
X156904405Y-60283390D02*
X156856786Y-60235771D01*
X156856786Y-60235771D02*
X156809167Y-60140533D01*
X156809167Y-60140533D02*
X156809167Y-60045295D01*
X156809167Y-60045295D02*
X156856786Y-59950057D01*
X156856786Y-59950057D02*
X156904405Y-59902438D01*
X156904405Y-59902438D02*
X156999643Y-59854819D01*
X156999643Y-59854819D02*
X157237738Y-59854819D01*
X157237738Y-59854819D02*
X157380595Y-59902438D01*
X157713929Y-59854819D02*
X157952024Y-60854819D01*
X157952024Y-60854819D02*
X158142500Y-60140533D01*
X158142500Y-60140533D02*
X158332976Y-60854819D01*
X158332976Y-60854819D02*
X158571072Y-59854819D01*
X158904405Y-59950057D02*
X158952024Y-59902438D01*
X158952024Y-59902438D02*
X159047262Y-59854819D01*
X159047262Y-59854819D02*
X159285357Y-59854819D01*
X159285357Y-59854819D02*
X159380595Y-59902438D01*
X159380595Y-59902438D02*
X159428214Y-59950057D01*
X159428214Y-59950057D02*
X159475833Y-60045295D01*
X159475833Y-60045295D02*
X159475833Y-60140533D01*
X159475833Y-60140533D02*
X159428214Y-60283390D01*
X159428214Y-60283390D02*
X158856786Y-60854819D01*
X158856786Y-60854819D02*
X159475833Y-60854819D01*
X144880952Y-87454819D02*
X144404762Y-87454819D01*
X144404762Y-87454819D02*
X144404762Y-86454819D01*
X145214286Y-86931009D02*
X145547619Y-86931009D01*
X145690476Y-87454819D02*
X145214286Y-87454819D01*
X145214286Y-87454819D02*
X145214286Y-86454819D01*
X145214286Y-86454819D02*
X145690476Y-86454819D01*
X146119048Y-87454819D02*
X146119048Y-86454819D01*
X146119048Y-86454819D02*
X146357143Y-86454819D01*
X146357143Y-86454819D02*
X146500000Y-86502438D01*
X146500000Y-86502438D02*
X146595238Y-86597676D01*
X146595238Y-86597676D02*
X146642857Y-86692914D01*
X146642857Y-86692914D02*
X146690476Y-86883390D01*
X146690476Y-86883390D02*
X146690476Y-87026247D01*
X146690476Y-87026247D02*
X146642857Y-87216723D01*
X146642857Y-87216723D02*
X146595238Y-87311961D01*
X146595238Y-87311961D02*
X146500000Y-87407200D01*
X146500000Y-87407200D02*
X146357143Y-87454819D01*
X146357143Y-87454819D02*
X146119048Y-87454819D01*
X147547619Y-86454819D02*
X147357143Y-86454819D01*
X147357143Y-86454819D02*
X147261905Y-86502438D01*
X147261905Y-86502438D02*
X147214286Y-86550057D01*
X147214286Y-86550057D02*
X147119048Y-86692914D01*
X147119048Y-86692914D02*
X147071429Y-86883390D01*
X147071429Y-86883390D02*
X147071429Y-87264342D01*
X147071429Y-87264342D02*
X147119048Y-87359580D01*
X147119048Y-87359580D02*
X147166667Y-87407200D01*
X147166667Y-87407200D02*
X147261905Y-87454819D01*
X147261905Y-87454819D02*
X147452381Y-87454819D01*
X147452381Y-87454819D02*
X147547619Y-87407200D01*
X147547619Y-87407200D02*
X147595238Y-87359580D01*
X147595238Y-87359580D02*
X147642857Y-87264342D01*
X147642857Y-87264342D02*
X147642857Y-87026247D01*
X147642857Y-87026247D02*
X147595238Y-86931009D01*
X147595238Y-86931009D02*
X147547619Y-86883390D01*
X147547619Y-86883390D02*
X147452381Y-86835771D01*
X147452381Y-86835771D02*
X147261905Y-86835771D01*
X147261905Y-86835771D02*
X147166667Y-86883390D01*
X147166667Y-86883390D02*
X147119048Y-86931009D01*
X147119048Y-86931009D02*
X147071429Y-87026247D01*
X161404761Y-124654819D02*
X160928571Y-124654819D01*
X160928571Y-124654819D02*
X160928571Y-123654819D01*
X161738095Y-124131009D02*
X162071428Y-124131009D01*
X162214285Y-124654819D02*
X161738095Y-124654819D01*
X161738095Y-124654819D02*
X161738095Y-123654819D01*
X161738095Y-123654819D02*
X162214285Y-123654819D01*
X162642857Y-124654819D02*
X162642857Y-123654819D01*
X162642857Y-123654819D02*
X162880952Y-123654819D01*
X162880952Y-123654819D02*
X163023809Y-123702438D01*
X163023809Y-123702438D02*
X163119047Y-123797676D01*
X163119047Y-123797676D02*
X163166666Y-123892914D01*
X163166666Y-123892914D02*
X163214285Y-124083390D01*
X163214285Y-124083390D02*
X163214285Y-124226247D01*
X163214285Y-124226247D02*
X163166666Y-124416723D01*
X163166666Y-124416723D02*
X163119047Y-124511961D01*
X163119047Y-124511961D02*
X163023809Y-124607200D01*
X163023809Y-124607200D02*
X162880952Y-124654819D01*
X162880952Y-124654819D02*
X162642857Y-124654819D01*
X164166666Y-124654819D02*
X163595238Y-124654819D01*
X163880952Y-124654819D02*
X163880952Y-123654819D01*
X163880952Y-123654819D02*
X163785714Y-123797676D01*
X163785714Y-123797676D02*
X163690476Y-123892914D01*
X163690476Y-123892914D02*
X163595238Y-123940533D01*
X164785714Y-123654819D02*
X164880952Y-123654819D01*
X164880952Y-123654819D02*
X164976190Y-123702438D01*
X164976190Y-123702438D02*
X165023809Y-123750057D01*
X165023809Y-123750057D02*
X165071428Y-123845295D01*
X165071428Y-123845295D02*
X165119047Y-124035771D01*
X165119047Y-124035771D02*
X165119047Y-124273866D01*
X165119047Y-124273866D02*
X165071428Y-124464342D01*
X165071428Y-124464342D02*
X165023809Y-124559580D01*
X165023809Y-124559580D02*
X164976190Y-124607200D01*
X164976190Y-124607200D02*
X164880952Y-124654819D01*
X164880952Y-124654819D02*
X164785714Y-124654819D01*
X164785714Y-124654819D02*
X164690476Y-124607200D01*
X164690476Y-124607200D02*
X164642857Y-124559580D01*
X164642857Y-124559580D02*
X164595238Y-124464342D01*
X164595238Y-124464342D02*
X164547619Y-124273866D01*
X164547619Y-124273866D02*
X164547619Y-124035771D01*
X164547619Y-124035771D02*
X164595238Y-123845295D01*
X164595238Y-123845295D02*
X164642857Y-123750057D01*
X164642857Y-123750057D02*
X164690476Y-123702438D01*
X164690476Y-123702438D02*
X164785714Y-123654819D01*
X144680952Y-47454819D02*
X144204762Y-47454819D01*
X144204762Y-47454819D02*
X144204762Y-46454819D01*
X145014286Y-46931009D02*
X145347619Y-46931009D01*
X145490476Y-47454819D02*
X145014286Y-47454819D01*
X145014286Y-47454819D02*
X145014286Y-46454819D01*
X145014286Y-46454819D02*
X145490476Y-46454819D01*
X145919048Y-47454819D02*
X145919048Y-46454819D01*
X145919048Y-46454819D02*
X146157143Y-46454819D01*
X146157143Y-46454819D02*
X146300000Y-46502438D01*
X146300000Y-46502438D02*
X146395238Y-46597676D01*
X146395238Y-46597676D02*
X146442857Y-46692914D01*
X146442857Y-46692914D02*
X146490476Y-46883390D01*
X146490476Y-46883390D02*
X146490476Y-47026247D01*
X146490476Y-47026247D02*
X146442857Y-47216723D01*
X146442857Y-47216723D02*
X146395238Y-47311961D01*
X146395238Y-47311961D02*
X146300000Y-47407200D01*
X146300000Y-47407200D02*
X146157143Y-47454819D01*
X146157143Y-47454819D02*
X145919048Y-47454819D01*
X147442857Y-47454819D02*
X146871429Y-47454819D01*
X147157143Y-47454819D02*
X147157143Y-46454819D01*
X147157143Y-46454819D02*
X147061905Y-46597676D01*
X147061905Y-46597676D02*
X146966667Y-46692914D01*
X146966667Y-46692914D02*
X146871429Y-46740533D01*
X132066667Y-84407200D02*
X132209524Y-84454819D01*
X132209524Y-84454819D02*
X132447619Y-84454819D01*
X132447619Y-84454819D02*
X132542857Y-84407200D01*
X132542857Y-84407200D02*
X132590476Y-84359580D01*
X132590476Y-84359580D02*
X132638095Y-84264342D01*
X132638095Y-84264342D02*
X132638095Y-84169104D01*
X132638095Y-84169104D02*
X132590476Y-84073866D01*
X132590476Y-84073866D02*
X132542857Y-84026247D01*
X132542857Y-84026247D02*
X132447619Y-83978628D01*
X132447619Y-83978628D02*
X132257143Y-83931009D01*
X132257143Y-83931009D02*
X132161905Y-83883390D01*
X132161905Y-83883390D02*
X132114286Y-83835771D01*
X132114286Y-83835771D02*
X132066667Y-83740533D01*
X132066667Y-83740533D02*
X132066667Y-83645295D01*
X132066667Y-83645295D02*
X132114286Y-83550057D01*
X132114286Y-83550057D02*
X132161905Y-83502438D01*
X132161905Y-83502438D02*
X132257143Y-83454819D01*
X132257143Y-83454819D02*
X132495238Y-83454819D01*
X132495238Y-83454819D02*
X132638095Y-83502438D01*
X132971429Y-83454819D02*
X133209524Y-84454819D01*
X133209524Y-84454819D02*
X133400000Y-83740533D01*
X133400000Y-83740533D02*
X133590476Y-84454819D01*
X133590476Y-84454819D02*
X133828572Y-83454819D01*
X134685714Y-83454819D02*
X134209524Y-83454819D01*
X134209524Y-83454819D02*
X134161905Y-83931009D01*
X134161905Y-83931009D02*
X134209524Y-83883390D01*
X134209524Y-83883390D02*
X134304762Y-83835771D01*
X134304762Y-83835771D02*
X134542857Y-83835771D01*
X134542857Y-83835771D02*
X134638095Y-83883390D01*
X134638095Y-83883390D02*
X134685714Y-83931009D01*
X134685714Y-83931009D02*
X134733333Y-84026247D01*
X134733333Y-84026247D02*
X134733333Y-84264342D01*
X134733333Y-84264342D02*
X134685714Y-84359580D01*
X134685714Y-84359580D02*
X134638095Y-84407200D01*
X134638095Y-84407200D02*
X134542857Y-84454819D01*
X134542857Y-84454819D02*
X134304762Y-84454819D01*
X134304762Y-84454819D02*
X134209524Y-84407200D01*
X134209524Y-84407200D02*
X134161905Y-84359580D01*
X144680952Y-103454819D02*
X144204762Y-103454819D01*
X144204762Y-103454819D02*
X144204762Y-102454819D01*
X145014286Y-102931009D02*
X145347619Y-102931009D01*
X145490476Y-103454819D02*
X145014286Y-103454819D01*
X145014286Y-103454819D02*
X145014286Y-102454819D01*
X145014286Y-102454819D02*
X145490476Y-102454819D01*
X145919048Y-103454819D02*
X145919048Y-102454819D01*
X145919048Y-102454819D02*
X146157143Y-102454819D01*
X146157143Y-102454819D02*
X146300000Y-102502438D01*
X146300000Y-102502438D02*
X146395238Y-102597676D01*
X146395238Y-102597676D02*
X146442857Y-102692914D01*
X146442857Y-102692914D02*
X146490476Y-102883390D01*
X146490476Y-102883390D02*
X146490476Y-103026247D01*
X146490476Y-103026247D02*
X146442857Y-103216723D01*
X146442857Y-103216723D02*
X146395238Y-103311961D01*
X146395238Y-103311961D02*
X146300000Y-103407200D01*
X146300000Y-103407200D02*
X146157143Y-103454819D01*
X146157143Y-103454819D02*
X145919048Y-103454819D01*
X147061905Y-102883390D02*
X146966667Y-102835771D01*
X146966667Y-102835771D02*
X146919048Y-102788152D01*
X146919048Y-102788152D02*
X146871429Y-102692914D01*
X146871429Y-102692914D02*
X146871429Y-102645295D01*
X146871429Y-102645295D02*
X146919048Y-102550057D01*
X146919048Y-102550057D02*
X146966667Y-102502438D01*
X146966667Y-102502438D02*
X147061905Y-102454819D01*
X147061905Y-102454819D02*
X147252381Y-102454819D01*
X147252381Y-102454819D02*
X147347619Y-102502438D01*
X147347619Y-102502438D02*
X147395238Y-102550057D01*
X147395238Y-102550057D02*
X147442857Y-102645295D01*
X147442857Y-102645295D02*
X147442857Y-102692914D01*
X147442857Y-102692914D02*
X147395238Y-102788152D01*
X147395238Y-102788152D02*
X147347619Y-102835771D01*
X147347619Y-102835771D02*
X147252381Y-102883390D01*
X147252381Y-102883390D02*
X147061905Y-102883390D01*
X147061905Y-102883390D02*
X146966667Y-102931009D01*
X146966667Y-102931009D02*
X146919048Y-102978628D01*
X146919048Y-102978628D02*
X146871429Y-103073866D01*
X146871429Y-103073866D02*
X146871429Y-103264342D01*
X146871429Y-103264342D02*
X146919048Y-103359580D01*
X146919048Y-103359580D02*
X146966667Y-103407200D01*
X146966667Y-103407200D02*
X147061905Y-103454819D01*
X147061905Y-103454819D02*
X147252381Y-103454819D01*
X147252381Y-103454819D02*
X147347619Y-103407200D01*
X147347619Y-103407200D02*
X147395238Y-103359580D01*
X147395238Y-103359580D02*
X147442857Y-103264342D01*
X147442857Y-103264342D02*
X147442857Y-103073866D01*
X147442857Y-103073866D02*
X147395238Y-102978628D01*
X147395238Y-102978628D02*
X147347619Y-102931009D01*
X147347619Y-102931009D02*
X147252381Y-102883390D01*
X156866667Y-92807200D02*
X157009524Y-92854819D01*
X157009524Y-92854819D02*
X157247619Y-92854819D01*
X157247619Y-92854819D02*
X157342857Y-92807200D01*
X157342857Y-92807200D02*
X157390476Y-92759580D01*
X157390476Y-92759580D02*
X157438095Y-92664342D01*
X157438095Y-92664342D02*
X157438095Y-92569104D01*
X157438095Y-92569104D02*
X157390476Y-92473866D01*
X157390476Y-92473866D02*
X157342857Y-92426247D01*
X157342857Y-92426247D02*
X157247619Y-92378628D01*
X157247619Y-92378628D02*
X157057143Y-92331009D01*
X157057143Y-92331009D02*
X156961905Y-92283390D01*
X156961905Y-92283390D02*
X156914286Y-92235771D01*
X156914286Y-92235771D02*
X156866667Y-92140533D01*
X156866667Y-92140533D02*
X156866667Y-92045295D01*
X156866667Y-92045295D02*
X156914286Y-91950057D01*
X156914286Y-91950057D02*
X156961905Y-91902438D01*
X156961905Y-91902438D02*
X157057143Y-91854819D01*
X157057143Y-91854819D02*
X157295238Y-91854819D01*
X157295238Y-91854819D02*
X157438095Y-91902438D01*
X157771429Y-91854819D02*
X158009524Y-92854819D01*
X158009524Y-92854819D02*
X158200000Y-92140533D01*
X158200000Y-92140533D02*
X158390476Y-92854819D01*
X158390476Y-92854819D02*
X158628572Y-91854819D01*
X159438095Y-91854819D02*
X159247619Y-91854819D01*
X159247619Y-91854819D02*
X159152381Y-91902438D01*
X159152381Y-91902438D02*
X159104762Y-91950057D01*
X159104762Y-91950057D02*
X159009524Y-92092914D01*
X159009524Y-92092914D02*
X158961905Y-92283390D01*
X158961905Y-92283390D02*
X158961905Y-92664342D01*
X158961905Y-92664342D02*
X159009524Y-92759580D01*
X159009524Y-92759580D02*
X159057143Y-92807200D01*
X159057143Y-92807200D02*
X159152381Y-92854819D01*
X159152381Y-92854819D02*
X159342857Y-92854819D01*
X159342857Y-92854819D02*
X159438095Y-92807200D01*
X159438095Y-92807200D02*
X159485714Y-92759580D01*
X159485714Y-92759580D02*
X159533333Y-92664342D01*
X159533333Y-92664342D02*
X159533333Y-92426247D01*
X159533333Y-92426247D02*
X159485714Y-92331009D01*
X159485714Y-92331009D02*
X159438095Y-92283390D01*
X159438095Y-92283390D02*
X159342857Y-92235771D01*
X159342857Y-92235771D02*
X159152381Y-92235771D01*
X159152381Y-92235771D02*
X159057143Y-92283390D01*
X159057143Y-92283390D02*
X159009524Y-92331009D01*
X159009524Y-92331009D02*
X158961905Y-92426247D01*
X156390476Y-137207200D02*
X156533333Y-137254819D01*
X156533333Y-137254819D02*
X156771428Y-137254819D01*
X156771428Y-137254819D02*
X156866666Y-137207200D01*
X156866666Y-137207200D02*
X156914285Y-137159580D01*
X156914285Y-137159580D02*
X156961904Y-137064342D01*
X156961904Y-137064342D02*
X156961904Y-136969104D01*
X156961904Y-136969104D02*
X156914285Y-136873866D01*
X156914285Y-136873866D02*
X156866666Y-136826247D01*
X156866666Y-136826247D02*
X156771428Y-136778628D01*
X156771428Y-136778628D02*
X156580952Y-136731009D01*
X156580952Y-136731009D02*
X156485714Y-136683390D01*
X156485714Y-136683390D02*
X156438095Y-136635771D01*
X156438095Y-136635771D02*
X156390476Y-136540533D01*
X156390476Y-136540533D02*
X156390476Y-136445295D01*
X156390476Y-136445295D02*
X156438095Y-136350057D01*
X156438095Y-136350057D02*
X156485714Y-136302438D01*
X156485714Y-136302438D02*
X156580952Y-136254819D01*
X156580952Y-136254819D02*
X156819047Y-136254819D01*
X156819047Y-136254819D02*
X156961904Y-136302438D01*
X157295238Y-136254819D02*
X157533333Y-137254819D01*
X157533333Y-137254819D02*
X157723809Y-136540533D01*
X157723809Y-136540533D02*
X157914285Y-137254819D01*
X157914285Y-137254819D02*
X158152381Y-136254819D01*
X159057142Y-137254819D02*
X158485714Y-137254819D01*
X158771428Y-137254819D02*
X158771428Y-136254819D01*
X158771428Y-136254819D02*
X158676190Y-136397676D01*
X158676190Y-136397676D02*
X158580952Y-136492914D01*
X158580952Y-136492914D02*
X158485714Y-136540533D01*
X159676190Y-136254819D02*
X159771428Y-136254819D01*
X159771428Y-136254819D02*
X159866666Y-136302438D01*
X159866666Y-136302438D02*
X159914285Y-136350057D01*
X159914285Y-136350057D02*
X159961904Y-136445295D01*
X159961904Y-136445295D02*
X160009523Y-136635771D01*
X160009523Y-136635771D02*
X160009523Y-136873866D01*
X160009523Y-136873866D02*
X159961904Y-137064342D01*
X159961904Y-137064342D02*
X159914285Y-137159580D01*
X159914285Y-137159580D02*
X159866666Y-137207200D01*
X159866666Y-137207200D02*
X159771428Y-137254819D01*
X159771428Y-137254819D02*
X159676190Y-137254819D01*
X159676190Y-137254819D02*
X159580952Y-137207200D01*
X159580952Y-137207200D02*
X159533333Y-137159580D01*
X159533333Y-137159580D02*
X159485714Y-137064342D01*
X159485714Y-137064342D02*
X159438095Y-136873866D01*
X159438095Y-136873866D02*
X159438095Y-136635771D01*
X159438095Y-136635771D02*
X159485714Y-136445295D01*
X159485714Y-136445295D02*
X159533333Y-136350057D01*
X159533333Y-136350057D02*
X159580952Y-136302438D01*
X159580952Y-136302438D02*
X159676190Y-136254819D01*
X132066667Y-68607200D02*
X132209524Y-68654819D01*
X132209524Y-68654819D02*
X132447619Y-68654819D01*
X132447619Y-68654819D02*
X132542857Y-68607200D01*
X132542857Y-68607200D02*
X132590476Y-68559580D01*
X132590476Y-68559580D02*
X132638095Y-68464342D01*
X132638095Y-68464342D02*
X132638095Y-68369104D01*
X132638095Y-68369104D02*
X132590476Y-68273866D01*
X132590476Y-68273866D02*
X132542857Y-68226247D01*
X132542857Y-68226247D02*
X132447619Y-68178628D01*
X132447619Y-68178628D02*
X132257143Y-68131009D01*
X132257143Y-68131009D02*
X132161905Y-68083390D01*
X132161905Y-68083390D02*
X132114286Y-68035771D01*
X132114286Y-68035771D02*
X132066667Y-67940533D01*
X132066667Y-67940533D02*
X132066667Y-67845295D01*
X132066667Y-67845295D02*
X132114286Y-67750057D01*
X132114286Y-67750057D02*
X132161905Y-67702438D01*
X132161905Y-67702438D02*
X132257143Y-67654819D01*
X132257143Y-67654819D02*
X132495238Y-67654819D01*
X132495238Y-67654819D02*
X132638095Y-67702438D01*
X132971429Y-67654819D02*
X133209524Y-68654819D01*
X133209524Y-68654819D02*
X133400000Y-67940533D01*
X133400000Y-67940533D02*
X133590476Y-68654819D01*
X133590476Y-68654819D02*
X133828572Y-67654819D01*
X134114286Y-67654819D02*
X134733333Y-67654819D01*
X134733333Y-67654819D02*
X134400000Y-68035771D01*
X134400000Y-68035771D02*
X134542857Y-68035771D01*
X134542857Y-68035771D02*
X134638095Y-68083390D01*
X134638095Y-68083390D02*
X134685714Y-68131009D01*
X134685714Y-68131009D02*
X134733333Y-68226247D01*
X134733333Y-68226247D02*
X134733333Y-68464342D01*
X134733333Y-68464342D02*
X134685714Y-68559580D01*
X134685714Y-68559580D02*
X134638095Y-68607200D01*
X134638095Y-68607200D02*
X134542857Y-68654819D01*
X134542857Y-68654819D02*
X134257143Y-68654819D01*
X134257143Y-68654819D02*
X134161905Y-68607200D01*
X134161905Y-68607200D02*
X134114286Y-68559580D01*
X156809167Y-76407200D02*
X156952024Y-76454819D01*
X156952024Y-76454819D02*
X157190119Y-76454819D01*
X157190119Y-76454819D02*
X157285357Y-76407200D01*
X157285357Y-76407200D02*
X157332976Y-76359580D01*
X157332976Y-76359580D02*
X157380595Y-76264342D01*
X157380595Y-76264342D02*
X157380595Y-76169104D01*
X157380595Y-76169104D02*
X157332976Y-76073866D01*
X157332976Y-76073866D02*
X157285357Y-76026247D01*
X157285357Y-76026247D02*
X157190119Y-75978628D01*
X157190119Y-75978628D02*
X156999643Y-75931009D01*
X156999643Y-75931009D02*
X156904405Y-75883390D01*
X156904405Y-75883390D02*
X156856786Y-75835771D01*
X156856786Y-75835771D02*
X156809167Y-75740533D01*
X156809167Y-75740533D02*
X156809167Y-75645295D01*
X156809167Y-75645295D02*
X156856786Y-75550057D01*
X156856786Y-75550057D02*
X156904405Y-75502438D01*
X156904405Y-75502438D02*
X156999643Y-75454819D01*
X156999643Y-75454819D02*
X157237738Y-75454819D01*
X157237738Y-75454819D02*
X157380595Y-75502438D01*
X157713929Y-75454819D02*
X157952024Y-76454819D01*
X157952024Y-76454819D02*
X158142500Y-75740533D01*
X158142500Y-75740533D02*
X158332976Y-76454819D01*
X158332976Y-76454819D02*
X158571072Y-75454819D01*
X159380595Y-75788152D02*
X159380595Y-76454819D01*
X159142500Y-75407200D02*
X158904405Y-76121485D01*
X158904405Y-76121485D02*
X159523452Y-76121485D01*
X144880952Y-71654819D02*
X144404762Y-71654819D01*
X144404762Y-71654819D02*
X144404762Y-70654819D01*
X145214286Y-71131009D02*
X145547619Y-71131009D01*
X145690476Y-71654819D02*
X145214286Y-71654819D01*
X145214286Y-71654819D02*
X145214286Y-70654819D01*
X145214286Y-70654819D02*
X145690476Y-70654819D01*
X146119048Y-71654819D02*
X146119048Y-70654819D01*
X146119048Y-70654819D02*
X146357143Y-70654819D01*
X146357143Y-70654819D02*
X146500000Y-70702438D01*
X146500000Y-70702438D02*
X146595238Y-70797676D01*
X146595238Y-70797676D02*
X146642857Y-70892914D01*
X146642857Y-70892914D02*
X146690476Y-71083390D01*
X146690476Y-71083390D02*
X146690476Y-71226247D01*
X146690476Y-71226247D02*
X146642857Y-71416723D01*
X146642857Y-71416723D02*
X146595238Y-71511961D01*
X146595238Y-71511961D02*
X146500000Y-71607200D01*
X146500000Y-71607200D02*
X146357143Y-71654819D01*
X146357143Y-71654819D02*
X146119048Y-71654819D01*
X147547619Y-70988152D02*
X147547619Y-71654819D01*
X147309524Y-70607200D02*
X147071429Y-71321485D01*
X147071429Y-71321485D02*
X147690476Y-71321485D01*
X132249167Y-52807200D02*
X132392024Y-52854819D01*
X132392024Y-52854819D02*
X132630119Y-52854819D01*
X132630119Y-52854819D02*
X132725357Y-52807200D01*
X132725357Y-52807200D02*
X132772976Y-52759580D01*
X132772976Y-52759580D02*
X132820595Y-52664342D01*
X132820595Y-52664342D02*
X132820595Y-52569104D01*
X132820595Y-52569104D02*
X132772976Y-52473866D01*
X132772976Y-52473866D02*
X132725357Y-52426247D01*
X132725357Y-52426247D02*
X132630119Y-52378628D01*
X132630119Y-52378628D02*
X132439643Y-52331009D01*
X132439643Y-52331009D02*
X132344405Y-52283390D01*
X132344405Y-52283390D02*
X132296786Y-52235771D01*
X132296786Y-52235771D02*
X132249167Y-52140533D01*
X132249167Y-52140533D02*
X132249167Y-52045295D01*
X132249167Y-52045295D02*
X132296786Y-51950057D01*
X132296786Y-51950057D02*
X132344405Y-51902438D01*
X132344405Y-51902438D02*
X132439643Y-51854819D01*
X132439643Y-51854819D02*
X132677738Y-51854819D01*
X132677738Y-51854819D02*
X132820595Y-51902438D01*
X133153929Y-51854819D02*
X133392024Y-52854819D01*
X133392024Y-52854819D02*
X133582500Y-52140533D01*
X133582500Y-52140533D02*
X133772976Y-52854819D01*
X133772976Y-52854819D02*
X134011072Y-51854819D01*
X134915833Y-52854819D02*
X134344405Y-52854819D01*
X134630119Y-52854819D02*
X134630119Y-51854819D01*
X134630119Y-51854819D02*
X134534881Y-51997676D01*
X134534881Y-51997676D02*
X134439643Y-52092914D01*
X134439643Y-52092914D02*
X134344405Y-52140533D01*
X132066667Y-136807200D02*
X132209524Y-136854819D01*
X132209524Y-136854819D02*
X132447619Y-136854819D01*
X132447619Y-136854819D02*
X132542857Y-136807200D01*
X132542857Y-136807200D02*
X132590476Y-136759580D01*
X132590476Y-136759580D02*
X132638095Y-136664342D01*
X132638095Y-136664342D02*
X132638095Y-136569104D01*
X132638095Y-136569104D02*
X132590476Y-136473866D01*
X132590476Y-136473866D02*
X132542857Y-136426247D01*
X132542857Y-136426247D02*
X132447619Y-136378628D01*
X132447619Y-136378628D02*
X132257143Y-136331009D01*
X132257143Y-136331009D02*
X132161905Y-136283390D01*
X132161905Y-136283390D02*
X132114286Y-136235771D01*
X132114286Y-136235771D02*
X132066667Y-136140533D01*
X132066667Y-136140533D02*
X132066667Y-136045295D01*
X132066667Y-136045295D02*
X132114286Y-135950057D01*
X132114286Y-135950057D02*
X132161905Y-135902438D01*
X132161905Y-135902438D02*
X132257143Y-135854819D01*
X132257143Y-135854819D02*
X132495238Y-135854819D01*
X132495238Y-135854819D02*
X132638095Y-135902438D01*
X132971429Y-135854819D02*
X133209524Y-136854819D01*
X133209524Y-136854819D02*
X133400000Y-136140533D01*
X133400000Y-136140533D02*
X133590476Y-136854819D01*
X133590476Y-136854819D02*
X133828572Y-135854819D01*
X134257143Y-136854819D02*
X134447619Y-136854819D01*
X134447619Y-136854819D02*
X134542857Y-136807200D01*
X134542857Y-136807200D02*
X134590476Y-136759580D01*
X134590476Y-136759580D02*
X134685714Y-136616723D01*
X134685714Y-136616723D02*
X134733333Y-136426247D01*
X134733333Y-136426247D02*
X134733333Y-136045295D01*
X134733333Y-136045295D02*
X134685714Y-135950057D01*
X134685714Y-135950057D02*
X134638095Y-135902438D01*
X134638095Y-135902438D02*
X134542857Y-135854819D01*
X134542857Y-135854819D02*
X134352381Y-135854819D01*
X134352381Y-135854819D02*
X134257143Y-135902438D01*
X134257143Y-135902438D02*
X134209524Y-135950057D01*
X134209524Y-135950057D02*
X134161905Y-136045295D01*
X134161905Y-136045295D02*
X134161905Y-136283390D01*
X134161905Y-136283390D02*
X134209524Y-136378628D01*
X134209524Y-136378628D02*
X134257143Y-136426247D01*
X134257143Y-136426247D02*
X134352381Y-136473866D01*
X134352381Y-136473866D02*
X134542857Y-136473866D01*
X134542857Y-136473866D02*
X134638095Y-136426247D01*
X134638095Y-136426247D02*
X134685714Y-136378628D01*
X134685714Y-136378628D02*
X134733333Y-136283390D01*
X144880952Y-79854819D02*
X144404762Y-79854819D01*
X144404762Y-79854819D02*
X144404762Y-78854819D01*
X145214286Y-79331009D02*
X145547619Y-79331009D01*
X145690476Y-79854819D02*
X145214286Y-79854819D01*
X145214286Y-79854819D02*
X145214286Y-78854819D01*
X145214286Y-78854819D02*
X145690476Y-78854819D01*
X146119048Y-79854819D02*
X146119048Y-78854819D01*
X146119048Y-78854819D02*
X146357143Y-78854819D01*
X146357143Y-78854819D02*
X146500000Y-78902438D01*
X146500000Y-78902438D02*
X146595238Y-78997676D01*
X146595238Y-78997676D02*
X146642857Y-79092914D01*
X146642857Y-79092914D02*
X146690476Y-79283390D01*
X146690476Y-79283390D02*
X146690476Y-79426247D01*
X146690476Y-79426247D02*
X146642857Y-79616723D01*
X146642857Y-79616723D02*
X146595238Y-79711961D01*
X146595238Y-79711961D02*
X146500000Y-79807200D01*
X146500000Y-79807200D02*
X146357143Y-79854819D01*
X146357143Y-79854819D02*
X146119048Y-79854819D01*
X147595238Y-78854819D02*
X147119048Y-78854819D01*
X147119048Y-78854819D02*
X147071429Y-79331009D01*
X147071429Y-79331009D02*
X147119048Y-79283390D01*
X147119048Y-79283390D02*
X147214286Y-79235771D01*
X147214286Y-79235771D02*
X147452381Y-79235771D01*
X147452381Y-79235771D02*
X147547619Y-79283390D01*
X147547619Y-79283390D02*
X147595238Y-79331009D01*
X147595238Y-79331009D02*
X147642857Y-79426247D01*
X147642857Y-79426247D02*
X147642857Y-79664342D01*
X147642857Y-79664342D02*
X147595238Y-79759580D01*
X147595238Y-79759580D02*
X147547619Y-79807200D01*
X147547619Y-79807200D02*
X147452381Y-79854819D01*
X147452381Y-79854819D02*
X147214286Y-79854819D01*
X147214286Y-79854819D02*
X147119048Y-79807200D01*
X147119048Y-79807200D02*
X147071429Y-79759580D01*
X144880952Y-63654819D02*
X144404762Y-63654819D01*
X144404762Y-63654819D02*
X144404762Y-62654819D01*
X145214286Y-63131009D02*
X145547619Y-63131009D01*
X145690476Y-63654819D02*
X145214286Y-63654819D01*
X145214286Y-63654819D02*
X145214286Y-62654819D01*
X145214286Y-62654819D02*
X145690476Y-62654819D01*
X146119048Y-63654819D02*
X146119048Y-62654819D01*
X146119048Y-62654819D02*
X146357143Y-62654819D01*
X146357143Y-62654819D02*
X146500000Y-62702438D01*
X146500000Y-62702438D02*
X146595238Y-62797676D01*
X146595238Y-62797676D02*
X146642857Y-62892914D01*
X146642857Y-62892914D02*
X146690476Y-63083390D01*
X146690476Y-63083390D02*
X146690476Y-63226247D01*
X146690476Y-63226247D02*
X146642857Y-63416723D01*
X146642857Y-63416723D02*
X146595238Y-63511961D01*
X146595238Y-63511961D02*
X146500000Y-63607200D01*
X146500000Y-63607200D02*
X146357143Y-63654819D01*
X146357143Y-63654819D02*
X146119048Y-63654819D01*
X147023810Y-62654819D02*
X147642857Y-62654819D01*
X147642857Y-62654819D02*
X147309524Y-63035771D01*
X147309524Y-63035771D02*
X147452381Y-63035771D01*
X147452381Y-63035771D02*
X147547619Y-63083390D01*
X147547619Y-63083390D02*
X147595238Y-63131009D01*
X147595238Y-63131009D02*
X147642857Y-63226247D01*
X147642857Y-63226247D02*
X147642857Y-63464342D01*
X147642857Y-63464342D02*
X147595238Y-63559580D01*
X147595238Y-63559580D02*
X147547619Y-63607200D01*
X147547619Y-63607200D02*
X147452381Y-63654819D01*
X147452381Y-63654819D02*
X147166667Y-63654819D01*
X147166667Y-63654819D02*
X147071429Y-63607200D01*
X147071429Y-63607200D02*
X147023810Y-63559580D01*
X132249167Y-100607200D02*
X132392024Y-100654819D01*
X132392024Y-100654819D02*
X132630119Y-100654819D01*
X132630119Y-100654819D02*
X132725357Y-100607200D01*
X132725357Y-100607200D02*
X132772976Y-100559580D01*
X132772976Y-100559580D02*
X132820595Y-100464342D01*
X132820595Y-100464342D02*
X132820595Y-100369104D01*
X132820595Y-100369104D02*
X132772976Y-100273866D01*
X132772976Y-100273866D02*
X132725357Y-100226247D01*
X132725357Y-100226247D02*
X132630119Y-100178628D01*
X132630119Y-100178628D02*
X132439643Y-100131009D01*
X132439643Y-100131009D02*
X132344405Y-100083390D01*
X132344405Y-100083390D02*
X132296786Y-100035771D01*
X132296786Y-100035771D02*
X132249167Y-99940533D01*
X132249167Y-99940533D02*
X132249167Y-99845295D01*
X132249167Y-99845295D02*
X132296786Y-99750057D01*
X132296786Y-99750057D02*
X132344405Y-99702438D01*
X132344405Y-99702438D02*
X132439643Y-99654819D01*
X132439643Y-99654819D02*
X132677738Y-99654819D01*
X132677738Y-99654819D02*
X132820595Y-99702438D01*
X133153929Y-99654819D02*
X133392024Y-100654819D01*
X133392024Y-100654819D02*
X133582500Y-99940533D01*
X133582500Y-99940533D02*
X133772976Y-100654819D01*
X133772976Y-100654819D02*
X134011072Y-99654819D01*
X134296786Y-99654819D02*
X134963452Y-99654819D01*
X134963452Y-99654819D02*
X134534881Y-100654819D01*
%TO.C,LED7*%
D12*
X144302500Y-96749000D02*
X144302500Y-96905000D01*
X144302500Y-99065000D02*
X144302500Y-99221000D01*
X144302500Y-96749484D02*
G75*
G02*
X147533937Y-96905000I1560000J-1235516D01*
G01*
X144821539Y-96905000D02*
G75*
G02*
X146903461Y-96905000I1040961J-1080000D01*
G01*
X146903461Y-99065000D02*
G75*
G02*
X144821539Y-99065000I-1040961J1080000D01*
G01*
X147533937Y-99065000D02*
G75*
G02*
X144302500Y-99220516I-1671437J1080000D01*
G01*
%TO.C,LED9*%
X132022500Y-123042000D02*
X132022500Y-123198000D01*
X132022500Y-125358000D02*
X132022500Y-125514000D01*
X132022500Y-123042484D02*
G75*
G02*
X135253937Y-123198000I1560000J-1235516D01*
G01*
X132541539Y-123198000D02*
G75*
G02*
X134623461Y-123198000I1040961J-1080000D01*
G01*
X134623461Y-125358000D02*
G75*
G02*
X132541539Y-125358000I-1040961J1080000D01*
G01*
X135253937Y-125358000D02*
G75*
G02*
X132022500Y-125513516I-1671437J1080000D01*
G01*
%TO.C,LED2*%
X144302500Y-56749000D02*
X144302500Y-56905000D01*
X144302500Y-59065000D02*
X144302500Y-59221000D01*
X144302500Y-56749484D02*
G75*
G02*
X147533937Y-56905000I1560000J-1235516D01*
G01*
X144821539Y-56905000D02*
G75*
G02*
X146903461Y-56905000I1040961J-1080000D01*
G01*
X146903461Y-59065000D02*
G75*
G02*
X144821539Y-59065000I-1040961J1080000D01*
G01*
X147533937Y-59065000D02*
G75*
G02*
X144302500Y-59220516I-1671437J1080000D01*
G01*
%TO.C,SW8*%
X154092500Y-103635000D02*
X162192500Y-103635000D01*
%TO.C,SW2*%
X154092500Y-55635000D02*
X162192500Y-55635000D01*
%TO.C,LED6*%
X144302500Y-88749000D02*
X144302500Y-88905000D01*
X144302500Y-91065000D02*
X144302500Y-91221000D01*
X144302500Y-88749484D02*
G75*
G02*
X147533937Y-88905000I1560000J-1235516D01*
G01*
X144821539Y-88905000D02*
G75*
G02*
X146903461Y-88905000I1040961J-1080000D01*
G01*
X146903461Y-91065000D02*
G75*
G02*
X144821539Y-91065000I-1040961J1080000D01*
G01*
X147533937Y-91065000D02*
G75*
G02*
X144302500Y-91220516I-1671437J1080000D01*
G01*
%TO.C,LED10*%
X156582500Y-123042000D02*
X156582500Y-123198000D01*
X156582500Y-125358000D02*
X156582500Y-125514000D01*
X156582500Y-123042484D02*
G75*
G02*
X159813937Y-123198000I1560000J-1235516D01*
G01*
X157101539Y-123198000D02*
G75*
G02*
X159183461Y-123198000I1040961J-1080000D01*
G01*
X159183461Y-125358000D02*
G75*
G02*
X157101539Y-125358000I-1040961J1080000D01*
G01*
X159813937Y-125358000D02*
G75*
G02*
X156582500Y-125513516I-1671437J1080000D01*
G01*
%TO.C,LED1*%
X144302500Y-48749000D02*
X144302500Y-48905000D01*
X144302500Y-51065000D02*
X144302500Y-51221000D01*
X144302500Y-48749484D02*
G75*
G02*
X147533937Y-48905000I1560000J-1235516D01*
G01*
X144821539Y-48905000D02*
G75*
G02*
X146903461Y-48905000I1040961J-1080000D01*
G01*
X146903461Y-51065000D02*
G75*
G02*
X144821539Y-51065000I-1040961J1080000D01*
G01*
X147533937Y-51065000D02*
G75*
G02*
X144302500Y-51220516I-1671437J1080000D01*
G01*
%TO.C,J5*%
D13*
X153642500Y-142010000D02*
X153642500Y-152510000D01*
X153642500Y-142010000D02*
X156642500Y-142010000D01*
X153642500Y-152510000D02*
X158342500Y-152510000D01*
X156642500Y-142010000D02*
X156642500Y-144010000D01*
X156642500Y-142010000D02*
X159642500Y-142010000D01*
X156642500Y-144010000D02*
X159642500Y-144010000D01*
X157942500Y-152610000D02*
X157942500Y-154710000D01*
X157942500Y-154710000D02*
X158342500Y-154710000D01*
X158342500Y-152510000D02*
X162642500Y-152510000D01*
X158342500Y-154710000D02*
X158342500Y-152510000D01*
X159642500Y-142010000D02*
X162642500Y-142010000D01*
X159642500Y-144010000D02*
X159642500Y-142010000D01*
X162642500Y-152510000D02*
X162642500Y-142010000D01*
X160833221Y-148010000D02*
G75*
G02*
X155451779Y-148010000I-2690721J0D01*
G01*
X155451779Y-148010000D02*
G75*
G02*
X160833221Y-148010000I2690721J0D01*
G01*
X161304775Y-148010000D02*
G75*
G02*
X154980225Y-148010000I-3162275J0D01*
G01*
X154980225Y-148010000D02*
G75*
G02*
X161304775Y-148010000I3162275J0D01*
G01*
%TO.C,SW5*%
D12*
X129532500Y-79635000D02*
X137632500Y-79635000D01*
%TO.C,J4*%
D13*
X129082500Y-142010000D02*
X129082500Y-152510000D01*
X129082500Y-142010000D02*
X132082500Y-142010000D01*
X129082500Y-152510000D02*
X133782500Y-152510000D01*
X132082500Y-142010000D02*
X132082500Y-144010000D01*
X132082500Y-142010000D02*
X135082500Y-142010000D01*
X132082500Y-144010000D02*
X135082500Y-144010000D01*
X133382500Y-152610000D02*
X133382500Y-154710000D01*
X133382500Y-154710000D02*
X133782500Y-154710000D01*
X133782500Y-152510000D02*
X138082500Y-152510000D01*
X133782500Y-154710000D02*
X133782500Y-152510000D01*
X135082500Y-142010000D02*
X138082500Y-142010000D01*
X135082500Y-144010000D02*
X135082500Y-142010000D01*
X138082500Y-152510000D02*
X138082500Y-142010000D01*
X136273221Y-148010000D02*
G75*
G02*
X130891779Y-148010000I-2690721J0D01*
G01*
X130891779Y-148010000D02*
G75*
G02*
X136273221Y-148010000I2690721J0D01*
G01*
X136744775Y-148010000D02*
G75*
G02*
X130420225Y-148010000I-3162275J0D01*
G01*
X130420225Y-148010000D02*
G75*
G02*
X136744775Y-148010000I3162275J0D01*
G01*
%TO.C,LED8*%
D12*
X144302500Y-104749000D02*
X144302500Y-104905000D01*
X144302500Y-107065000D02*
X144302500Y-107221000D01*
X144302500Y-104749484D02*
G75*
G02*
X147533937Y-104905000I1560000J-1235516D01*
G01*
X144821539Y-104905000D02*
G75*
G02*
X146903461Y-104905000I1040961J-1080000D01*
G01*
X146903461Y-107065000D02*
G75*
G02*
X144821539Y-107065000I-1040961J1080000D01*
G01*
X147533937Y-107065000D02*
G75*
G02*
X144302500Y-107220516I-1671437J1080000D01*
G01*
%TO.C,SW6*%
X154092500Y-87635000D02*
X162192500Y-87635000D01*
%TO.C,SW10*%
X153292500Y-138210000D02*
X153292500Y-130110000D01*
%TO.C,SW3*%
X129532500Y-63635000D02*
X137632500Y-63635000D01*
%TO.C,SW4*%
X154092500Y-71635000D02*
X162192500Y-71635000D01*
%TO.C,LED4*%
X144302500Y-72749000D02*
X144302500Y-72905000D01*
X144302500Y-75065000D02*
X144302500Y-75221000D01*
X144302500Y-72749484D02*
G75*
G02*
X147533937Y-72905000I1560000J-1235516D01*
G01*
X144821539Y-72905000D02*
G75*
G02*
X146903461Y-72905000I1040961J-1080000D01*
G01*
X146903461Y-75065000D02*
G75*
G02*
X144821539Y-75065000I-1040961J1080000D01*
G01*
X147533937Y-75065000D02*
G75*
G02*
X144302500Y-75220516I-1671437J1080000D01*
G01*
%TO.C,SW1*%
X129532500Y-47635000D02*
X137632500Y-47635000D01*
%TO.C,SW9*%
X128732500Y-138210000D02*
X128732500Y-130110000D01*
%TO.C,LED5*%
X144302500Y-80749000D02*
X144302500Y-80905000D01*
X144302500Y-83065000D02*
X144302500Y-83221000D01*
X144302500Y-80749484D02*
G75*
G02*
X147533937Y-80905000I1560000J-1235516D01*
G01*
X144821539Y-80905000D02*
G75*
G02*
X146903461Y-80905000I1040961J-1080000D01*
G01*
X146903461Y-83065000D02*
G75*
G02*
X144821539Y-83065000I-1040961J1080000D01*
G01*
X147533937Y-83065000D02*
G75*
G02*
X144302500Y-83220516I-1671437J1080000D01*
G01*
%TO.C,LED3*%
X144302500Y-64749000D02*
X144302500Y-64905000D01*
X144302500Y-67065000D02*
X144302500Y-67221000D01*
X144302500Y-64749484D02*
G75*
G02*
X147533937Y-64905000I1560000J-1235516D01*
G01*
X144821539Y-64905000D02*
G75*
G02*
X146903461Y-64905000I1040961J-1080000D01*
G01*
X146903461Y-67065000D02*
G75*
G02*
X144821539Y-67065000I-1040961J1080000D01*
G01*
X147533937Y-67065000D02*
G75*
G02*
X144302500Y-67220516I-1671437J1080000D01*
G01*
%TO.C,J3*%
D13*
X129082500Y-107921000D02*
X129082500Y-118421000D01*
X129082500Y-107921000D02*
X132082500Y-107921000D01*
X129082500Y-118421000D02*
X133782500Y-118421000D01*
X132082500Y-107921000D02*
X132082500Y-109921000D01*
X132082500Y-107921000D02*
X135082500Y-107921000D01*
X132082500Y-109921000D02*
X135082500Y-109921000D01*
X133382500Y-118521000D02*
X133382500Y-120621000D01*
X133382500Y-120621000D02*
X133782500Y-120621000D01*
X133782500Y-118421000D02*
X138082500Y-118421000D01*
X133782500Y-120621000D02*
X133782500Y-118421000D01*
X135082500Y-107921000D02*
X138082500Y-107921000D01*
X135082500Y-109921000D02*
X135082500Y-107921000D01*
X138082500Y-118421000D02*
X138082500Y-107921000D01*
X136273221Y-113921000D02*
G75*
G02*
X130891779Y-113921000I-2690721J0D01*
G01*
X130891779Y-113921000D02*
G75*
G02*
X136273221Y-113921000I2690721J0D01*
G01*
X136744775Y-113921000D02*
G75*
G02*
X130420225Y-113921000I-3162275J0D01*
G01*
X130420225Y-113921000D02*
G75*
G02*
X136744775Y-113921000I3162275J0D01*
G01*
%TO.C,SW7*%
D12*
X129532500Y-95635000D02*
X137632500Y-95635000D01*
%TD*%
M02*
