%TF.GenerationSoftware,KiCad,Pcbnew,10.0.0*%
%TF.CreationDate,2026-07-18T12:55:48-07:00*%
%TF.ProjectId,pulses_plus_submin_panel,70756c73-6573-45f7-906c-75735f737562,rev?*%
%TF.SameCoordinates,Original*%
%TF.FileFunction,Legend,Top*%
%TF.FilePolarity,Positive*%
%FSLAX46Y46*%
G04 Gerber Fmt 4.6, Leading zero omitted, Abs format (unit mm)*
G04 Created by KiCad (PCBNEW 10.0.0) date 2026-07-18 12:55:48*
%MOMM*%
%LPD*%
G01*
G04 APERTURE LIST*
%ADD10C,0.100000*%
%ADD11C,0.160000*%
%ADD12C,0.200000*%
%ADD13C,0.250000*%
%ADD14C,0.280000*%
G04 APERTURE END LIST*
D10*
X7800000Y-47800000D02*
X7800000Y-47800000D01*
X119440000Y-50907000D02*
X119640000Y-50907000D01*
X132040000Y-72507000D02*
X132041442Y-72505544D01*
X132042857Y-72504087D01*
X132044237Y-72502637D01*
X132045590Y-72501186D01*
X132046910Y-72499742D01*
X132048203Y-72498298D01*
X132049464Y-72496859D01*
X132050698Y-72495421D01*
X132051902Y-72493988D01*
X132053079Y-72492555D01*
X132054226Y-72491127D01*
X132055347Y-72489700D01*
X132056439Y-72488277D01*
X132057506Y-72486855D01*
X132058544Y-72485437D01*
X132059558Y-72484019D01*
X132060544Y-72482606D01*
X132061505Y-72481193D01*
X132062439Y-72479784D01*
X132063350Y-72478375D01*
X132064234Y-72476970D01*
X132065094Y-72475566D01*
X132065929Y-72474164D01*
X132066741Y-72472763D01*
X132067528Y-72471365D01*
X132068291Y-72469967D01*
X132069031Y-72468572D01*
X132069748Y-72467177D01*
X132070441Y-72465784D01*
X132071112Y-72464392D01*
X132071760Y-72463001D01*
X132072385Y-72461611D01*
X132072989Y-72460222D01*
X132073570Y-72458834D01*
X132074129Y-72457446D01*
X132074667Y-72456059D01*
X132075183Y-72454672D01*
X132075678Y-72453285D01*
X132076151Y-72451899D01*
X132076604Y-72450512D01*
X132077035Y-72449126D01*
X132077446Y-72447739D01*
X132077836Y-72446352D01*
X132078205Y-72444965D01*
X132078883Y-72442188D01*
X132079479Y-72439408D01*
X132079995Y-72436623D01*
X132080431Y-72433832D01*
X132080788Y-72431035D01*
X132081065Y-72428230D01*
X132081263Y-72425416D01*
X132081382Y-72422592D01*
X132081421Y-72419756D01*
X132081381Y-72416908D01*
X132081262Y-72414045D01*
X132081061Y-72411168D01*
X132080780Y-72408274D01*
X132080417Y-72405363D01*
X132079971Y-72402434D01*
X132079442Y-72399484D01*
X132078827Y-72396513D01*
X132078127Y-72393520D01*
X132077339Y-72390503D01*
X132076462Y-72387461D01*
X132075495Y-72384393D01*
X132074435Y-72381298D01*
X132073281Y-72378174D01*
X132072032Y-72375021D01*
X132070684Y-72371837D01*
X132069236Y-72368620D01*
X132067685Y-72365370D01*
X132066030Y-72362086D01*
X132064267Y-72358765D01*
X132062395Y-72355408D01*
X132060409Y-72352012D01*
X132058308Y-72348576D01*
X132056089Y-72345100D01*
X132053748Y-72341582D01*
X132051282Y-72338019D01*
X132048689Y-72334412D01*
X132045964Y-72330759D01*
X132043104Y-72327058D01*
X132040105Y-72323307D01*
X132036964Y-72319505D01*
X132033675Y-72315651D01*
X132030236Y-72311742D01*
X132026641Y-72307777D01*
X132022886Y-72303753D01*
X132018965Y-72299668D01*
X132014874Y-72295519D01*
X132010606Y-72291305D01*
X132006155Y-72287022D01*
X132001514Y-72282665D01*
X131996676Y-72278233D01*
X131991633Y-72273719D01*
X131986375Y-72269119D01*
X131980891Y-72264427D01*
X131975170Y-72259635D01*
X131969197Y-72254735D01*
X131962955Y-72249715D01*
X131956421Y-72244562D01*
X131949571Y-72239259D01*
X131942368Y-72233781D01*
X131934765Y-72228096D01*
X131926695Y-72222158D01*
X131918055Y-72215896D01*
X131908676Y-72209191D01*
X131898233Y-72201817D01*
X131885945Y-72193225D01*
X131876340Y-72186543D01*
X131863444Y-72177564D01*
X131857275Y-72173244D01*
X131851314Y-72169039D01*
X131845580Y-72164951D01*
X131840089Y-72160983D01*
X131834860Y-72157138D01*
X131829909Y-72153416D01*
X131827544Y-72151602D01*
X131825255Y-72149821D01*
X131823044Y-72148071D01*
X131820914Y-72146354D01*
X131818866Y-72144669D01*
X131816903Y-72143018D01*
X131815028Y-72141399D01*
X131813241Y-72139814D01*
X131811547Y-72138263D01*
X131809945Y-72136746D01*
X131808440Y-72135263D01*
X131807032Y-72133815D01*
X131805725Y-72132402D01*
X131804520Y-72131023D01*
X131803420Y-72129680D01*
X131802426Y-72128373D01*
X131801541Y-72127102D01*
X131800767Y-72125867D01*
X131800423Y-72125263D01*
X131800107Y-72124668D01*
X131799820Y-72124082D01*
X131799562Y-72123506D01*
X131799333Y-72122939D01*
X131799134Y-72122381D01*
X131798965Y-72121833D01*
X131798826Y-72121294D01*
X131798718Y-72120764D01*
X131798640Y-72120244D01*
X131798594Y-72119733D01*
X131798579Y-72119231D01*
X131798595Y-72118740D01*
X131798643Y-72118257D01*
X131798724Y-72117785D01*
X131798836Y-72117322D01*
X131798982Y-72116868D01*
X131799160Y-72116425D01*
X131799372Y-72115991D01*
X131799617Y-72115567D01*
X131799895Y-72115152D01*
X131800208Y-72114748D01*
X131800555Y-72114353D01*
X131800937Y-72113968D01*
X131801353Y-72113594D01*
X131801805Y-72113229D01*
X131802292Y-72112874D01*
X131802815Y-72112529D01*
X131803373Y-72112194D01*
X131803968Y-72111870D01*
X131804600Y-72111555D01*
X131805268Y-72111251D01*
X131805973Y-72110957D01*
X131806715Y-72110673D01*
X131807495Y-72110400D01*
X131808313Y-72110136D01*
X131809169Y-72109883D01*
X131810063Y-72109641D01*
X131811968Y-72109187D01*
X131814029Y-72108775D01*
X131816250Y-72108406D01*
X131818632Y-72108078D01*
X131821177Y-72107794D01*
X131823888Y-72107552D01*
X131826766Y-72107354D01*
X131829814Y-72107200D01*
X131833035Y-72107089D01*
X131836429Y-72107022D01*
X131840000Y-72107000D01*
D11*
G36*
X135696875Y-133701140D02*
G01*
X128236825Y-133701140D01*
X128236825Y-131398918D01*
X128459047Y-131398918D01*
X128459047Y-133398918D01*
X128460584Y-133414525D01*
X128472529Y-133443364D01*
X128494601Y-133465436D01*
X128523440Y-133477381D01*
X128554654Y-133477381D01*
X128583493Y-133465436D01*
X128605565Y-133443364D01*
X128617510Y-133414525D01*
X128619047Y-133398918D01*
X128619047Y-131759523D01*
X129133219Y-132861320D01*
X129136603Y-132867033D01*
X129137308Y-132868971D01*
X129138563Y-132870341D01*
X129141212Y-132874813D01*
X129150178Y-132883024D01*
X129158390Y-132891991D01*
X129161609Y-132893493D01*
X129164232Y-132895895D01*
X129175662Y-132900051D01*
X129186676Y-132905191D01*
X129190225Y-132905347D01*
X129193567Y-132906562D01*
X129205714Y-132906027D01*
X129217861Y-132906562D01*
X129221202Y-132905347D01*
X129224752Y-132905191D01*
X129235765Y-132900051D01*
X129247196Y-132895895D01*
X129249818Y-132893493D01*
X129253038Y-132891991D01*
X129261249Y-132883024D01*
X129270216Y-132874813D01*
X129272864Y-132870341D01*
X129274120Y-132868971D01*
X129274824Y-132867033D01*
X129278209Y-132861320D01*
X129792380Y-131759524D01*
X129792380Y-133398918D01*
X129793917Y-133414525D01*
X129805862Y-133443364D01*
X129827934Y-133465436D01*
X129856773Y-133477381D01*
X129887987Y-133477381D01*
X129916826Y-133465436D01*
X129938898Y-133443364D01*
X129950843Y-133414525D01*
X129952380Y-133398918D01*
X129952380Y-131398918D01*
X130744761Y-131398918D01*
X130744761Y-133017965D01*
X130746298Y-133033572D01*
X130747398Y-133036228D01*
X130747602Y-133039095D01*
X130753207Y-133053742D01*
X130848445Y-133244218D01*
X130852671Y-133250932D01*
X130853481Y-133252887D01*
X130855285Y-133255086D01*
X130856799Y-133257490D01*
X130858394Y-133258874D01*
X130863430Y-133265009D01*
X130958668Y-133360249D01*
X130964805Y-133365285D01*
X130966188Y-133366880D01*
X130968591Y-133368392D01*
X130970791Y-133370198D01*
X130972745Y-133371007D01*
X130979460Y-133375234D01*
X131169936Y-133470472D01*
X131184583Y-133476077D01*
X131187449Y-133476280D01*
X131190106Y-133477381D01*
X131205713Y-133478918D01*
X131586666Y-133478918D01*
X131602273Y-133477381D01*
X131604929Y-133476280D01*
X131607796Y-133476077D01*
X131622443Y-133470472D01*
X131812919Y-133375234D01*
X131819637Y-133371004D01*
X131821588Y-133370197D01*
X131823782Y-133368395D01*
X131826191Y-133366880D01*
X131827576Y-133365282D01*
X131833711Y-133360248D01*
X131928949Y-133265009D01*
X131933982Y-133258875D01*
X131935580Y-133257490D01*
X131937095Y-133255082D01*
X131938898Y-133252886D01*
X131939706Y-133250934D01*
X131943934Y-133244218D01*
X132039172Y-133053742D01*
X132044777Y-133039095D01*
X132044980Y-133036228D01*
X132046081Y-133033572D01*
X132047618Y-133017965D01*
X132047618Y-131398918D01*
X132046081Y-131383311D01*
X132555822Y-131383311D01*
X132555822Y-131414525D01*
X132567767Y-131443364D01*
X132589839Y-131465436D01*
X132618678Y-131477381D01*
X132634285Y-131478918D01*
X133125713Y-131478918D01*
X133125713Y-133398918D01*
X133127250Y-133414525D01*
X133139195Y-133443364D01*
X133161267Y-133465436D01*
X133190106Y-133477381D01*
X133221320Y-133477381D01*
X133250159Y-133465436D01*
X133272231Y-133443364D01*
X133284176Y-133414525D01*
X133285713Y-133398918D01*
X133285713Y-131478918D01*
X133777142Y-131478918D01*
X133792749Y-131477381D01*
X133821588Y-131465436D01*
X133843660Y-131443364D01*
X133855605Y-131414525D01*
X133855605Y-131398918D01*
X134363809Y-131398918D01*
X134363809Y-133398918D01*
X134365346Y-133414525D01*
X134377291Y-133443364D01*
X134399363Y-133465436D01*
X134428202Y-133477381D01*
X134443809Y-133478918D01*
X135396190Y-133478918D01*
X135411797Y-133477381D01*
X135440636Y-133465436D01*
X135462708Y-133443364D01*
X135474653Y-133414525D01*
X135474653Y-133383311D01*
X135462708Y-133354472D01*
X135440636Y-133332400D01*
X135411797Y-133320455D01*
X135396190Y-133318918D01*
X134523809Y-133318918D01*
X134523809Y-132431299D01*
X135110476Y-132431299D01*
X135126083Y-132429762D01*
X135154922Y-132417817D01*
X135176994Y-132395745D01*
X135188939Y-132366906D01*
X135188939Y-132335692D01*
X135176994Y-132306853D01*
X135154922Y-132284781D01*
X135126083Y-132272836D01*
X135110476Y-132271299D01*
X134523809Y-132271299D01*
X134523809Y-131478918D01*
X135396190Y-131478918D01*
X135411797Y-131477381D01*
X135440636Y-131465436D01*
X135462708Y-131443364D01*
X135474653Y-131414525D01*
X135474653Y-131383311D01*
X135462708Y-131354472D01*
X135440636Y-131332400D01*
X135411797Y-131320455D01*
X135396190Y-131318918D01*
X134443809Y-131318918D01*
X134428202Y-131320455D01*
X134399363Y-131332400D01*
X134377291Y-131354472D01*
X134365346Y-131383311D01*
X134363809Y-131398918D01*
X133855605Y-131398918D01*
X133855605Y-131383311D01*
X133843660Y-131354472D01*
X133821588Y-131332400D01*
X133792749Y-131320455D01*
X133777142Y-131318918D01*
X132634285Y-131318918D01*
X132618678Y-131320455D01*
X132589839Y-131332400D01*
X132567767Y-131354472D01*
X132555822Y-131383311D01*
X132046081Y-131383311D01*
X132034136Y-131354472D01*
X132012064Y-131332400D01*
X131983225Y-131320455D01*
X131952011Y-131320455D01*
X131923172Y-131332400D01*
X131901100Y-131354472D01*
X131889155Y-131383311D01*
X131887618Y-131398918D01*
X131887618Y-132999080D01*
X131806632Y-133161050D01*
X131729752Y-133237932D01*
X131567781Y-133318918D01*
X131224598Y-133318918D01*
X131062626Y-133237932D01*
X130985747Y-133161052D01*
X130904761Y-132999080D01*
X130904761Y-131398918D01*
X130903224Y-131383311D01*
X130891279Y-131354472D01*
X130869207Y-131332400D01*
X130840368Y-131320455D01*
X130809154Y-131320455D01*
X130780315Y-131332400D01*
X130758243Y-131354472D01*
X130746298Y-131383311D01*
X130744761Y-131398918D01*
X129952380Y-131398918D01*
X129951369Y-131388661D01*
X129951453Y-131386772D01*
X129951083Y-131385756D01*
X129950843Y-131383311D01*
X129945532Y-131370490D01*
X129940786Y-131357436D01*
X129939580Y-131356119D01*
X129938898Y-131354472D01*
X129929081Y-131344655D01*
X129919704Y-131334416D01*
X129918087Y-131333661D01*
X129916826Y-131332400D01*
X129903999Y-131327087D01*
X129891418Y-131321216D01*
X129889635Y-131321137D01*
X129887987Y-131320455D01*
X129874108Y-131320455D01*
X129860233Y-131319845D01*
X129858556Y-131320455D01*
X129856773Y-131320455D01*
X129843944Y-131325768D01*
X129830898Y-131330513D01*
X129829583Y-131331716D01*
X129827934Y-131332400D01*
X129818105Y-131342228D01*
X129807878Y-131351595D01*
X129806626Y-131353707D01*
X129805862Y-131354472D01*
X129805137Y-131356220D01*
X129799885Y-131365087D01*
X129205713Y-132638311D01*
X128611542Y-131365087D01*
X128606288Y-131356218D01*
X128605565Y-131354472D01*
X128604801Y-131353708D01*
X128603549Y-131351594D01*
X128593309Y-131342216D01*
X128583493Y-131332400D01*
X128581845Y-131331717D01*
X128580529Y-131330512D01*
X128567471Y-131325763D01*
X128554654Y-131320455D01*
X128552872Y-131320455D01*
X128551194Y-131319845D01*
X128537319Y-131320455D01*
X128523440Y-131320455D01*
X128521791Y-131321137D01*
X128520009Y-131321216D01*
X128507427Y-131327087D01*
X128494601Y-131332400D01*
X128493339Y-131333661D01*
X128491723Y-131334416D01*
X128482345Y-131344655D01*
X128472529Y-131354472D01*
X128471846Y-131356119D01*
X128470641Y-131357436D01*
X128465892Y-131370493D01*
X128460584Y-131383311D01*
X128460343Y-131385755D01*
X128459974Y-131386771D01*
X128460057Y-131388661D01*
X128459047Y-131398918D01*
X128236825Y-131398918D01*
X128236825Y-131096696D01*
X135696875Y-131096696D01*
X135696875Y-133701140D01*
G37*
D12*
X130649523Y-126996838D02*
X131030476Y-126996838D01*
X131030476Y-126996838D02*
X131220952Y-127092076D01*
X131220952Y-127092076D02*
X131411428Y-127282552D01*
X131411428Y-127282552D02*
X131506666Y-127663504D01*
X131506666Y-127663504D02*
X131506666Y-128330171D01*
X131506666Y-128330171D02*
X131411428Y-128711123D01*
X131411428Y-128711123D02*
X131220952Y-128901600D01*
X131220952Y-128901600D02*
X131030476Y-128996838D01*
X131030476Y-128996838D02*
X130649523Y-128996838D01*
X130649523Y-128996838D02*
X130459047Y-128901600D01*
X130459047Y-128901600D02*
X130268571Y-128711123D01*
X130268571Y-128711123D02*
X130173333Y-128330171D01*
X130173333Y-128330171D02*
X130173333Y-127663504D01*
X130173333Y-127663504D02*
X130268571Y-127282552D01*
X130268571Y-127282552D02*
X130459047Y-127092076D01*
X130459047Y-127092076D02*
X130649523Y-126996838D01*
X133506666Y-128996838D02*
X132839999Y-128044457D01*
X132363809Y-128996838D02*
X132363809Y-126996838D01*
X132363809Y-126996838D02*
X133125714Y-126996838D01*
X133125714Y-126996838D02*
X133316190Y-127092076D01*
X133316190Y-127092076D02*
X133411428Y-127187314D01*
X133411428Y-127187314D02*
X133506666Y-127377790D01*
X133506666Y-127377790D02*
X133506666Y-127663504D01*
X133506666Y-127663504D02*
X133411428Y-127853980D01*
X133411428Y-127853980D02*
X133316190Y-127949219D01*
X133316190Y-127949219D02*
X133125714Y-128044457D01*
X133125714Y-128044457D02*
X132363809Y-128044457D01*
X129316190Y-138025409D02*
X130268571Y-138025409D01*
X129125714Y-138596838D02*
X129792380Y-136596838D01*
X129792380Y-136596838D02*
X130459047Y-138596838D01*
X131125714Y-138596838D02*
X131125714Y-136596838D01*
X131125714Y-136596838D02*
X132268571Y-138596838D01*
X132268571Y-138596838D02*
X132268571Y-136596838D01*
X133220952Y-138596838D02*
X133220952Y-136596838D01*
X133220952Y-136596838D02*
X133697142Y-136596838D01*
X133697142Y-136596838D02*
X133982857Y-136692076D01*
X133982857Y-136692076D02*
X134173333Y-136882552D01*
X134173333Y-136882552D02*
X134268571Y-137073028D01*
X134268571Y-137073028D02*
X134363809Y-137453980D01*
X134363809Y-137453980D02*
X134363809Y-137739695D01*
X134363809Y-137739695D02*
X134268571Y-138120647D01*
X134268571Y-138120647D02*
X134173333Y-138311123D01*
X134173333Y-138311123D02*
X133982857Y-138501600D01*
X133982857Y-138501600D02*
X133697142Y-138596838D01*
X133697142Y-138596838D02*
X133220952Y-138596838D01*
D13*
X132491428Y-53219238D02*
X131348571Y-53219238D01*
X131919999Y-53219238D02*
X131919999Y-51219238D01*
X131919999Y-51219238D02*
X131729523Y-51504952D01*
X131729523Y-51504952D02*
X131539047Y-51695428D01*
X131539047Y-51695428D02*
X131348571Y-51790666D01*
X131348571Y-59409714D02*
X131443809Y-59314476D01*
X131443809Y-59314476D02*
X131634285Y-59219238D01*
X131634285Y-59219238D02*
X132110476Y-59219238D01*
X132110476Y-59219238D02*
X132300952Y-59314476D01*
X132300952Y-59314476D02*
X132396190Y-59409714D01*
X132396190Y-59409714D02*
X132491428Y-59600190D01*
X132491428Y-59600190D02*
X132491428Y-59790666D01*
X132491428Y-59790666D02*
X132396190Y-60076380D01*
X132396190Y-60076380D02*
X131253333Y-61219238D01*
X131253333Y-61219238D02*
X132491428Y-61219238D01*
X131253333Y-67219238D02*
X132491428Y-67219238D01*
X132491428Y-67219238D02*
X131824761Y-67981142D01*
X131824761Y-67981142D02*
X132110476Y-67981142D01*
X132110476Y-67981142D02*
X132300952Y-68076380D01*
X132300952Y-68076380D02*
X132396190Y-68171619D01*
X132396190Y-68171619D02*
X132491428Y-68362095D01*
X132491428Y-68362095D02*
X132491428Y-68838285D01*
X132491428Y-68838285D02*
X132396190Y-69028761D01*
X132396190Y-69028761D02*
X132300952Y-69124000D01*
X132300952Y-69124000D02*
X132110476Y-69219238D01*
X132110476Y-69219238D02*
X131539047Y-69219238D01*
X131539047Y-69219238D02*
X131348571Y-69124000D01*
X131348571Y-69124000D02*
X131253333Y-69028761D01*
X132300952Y-75885904D02*
X132300952Y-77219238D01*
X131824761Y-75124000D02*
X131348571Y-76552571D01*
X131348571Y-76552571D02*
X132586666Y-76552571D01*
X132396190Y-83219238D02*
X131443809Y-83219238D01*
X131443809Y-83219238D02*
X131348571Y-84171619D01*
X131348571Y-84171619D02*
X131443809Y-84076380D01*
X131443809Y-84076380D02*
X131634285Y-83981142D01*
X131634285Y-83981142D02*
X132110476Y-83981142D01*
X132110476Y-83981142D02*
X132300952Y-84076380D01*
X132300952Y-84076380D02*
X132396190Y-84171619D01*
X132396190Y-84171619D02*
X132491428Y-84362095D01*
X132491428Y-84362095D02*
X132491428Y-84838285D01*
X132491428Y-84838285D02*
X132396190Y-85028761D01*
X132396190Y-85028761D02*
X132300952Y-85124000D01*
X132300952Y-85124000D02*
X132110476Y-85219238D01*
X132110476Y-85219238D02*
X131634285Y-85219238D01*
X131634285Y-85219238D02*
X131443809Y-85124000D01*
X131443809Y-85124000D02*
X131348571Y-85028761D01*
X132300952Y-91219238D02*
X131919999Y-91219238D01*
X131919999Y-91219238D02*
X131729523Y-91314476D01*
X131729523Y-91314476D02*
X131634285Y-91409714D01*
X131634285Y-91409714D02*
X131443809Y-91695428D01*
X131443809Y-91695428D02*
X131348571Y-92076380D01*
X131348571Y-92076380D02*
X131348571Y-92838285D01*
X131348571Y-92838285D02*
X131443809Y-93028761D01*
X131443809Y-93028761D02*
X131539047Y-93124000D01*
X131539047Y-93124000D02*
X131729523Y-93219238D01*
X131729523Y-93219238D02*
X132110476Y-93219238D01*
X132110476Y-93219238D02*
X132300952Y-93124000D01*
X132300952Y-93124000D02*
X132396190Y-93028761D01*
X132396190Y-93028761D02*
X132491428Y-92838285D01*
X132491428Y-92838285D02*
X132491428Y-92362095D01*
X132491428Y-92362095D02*
X132396190Y-92171619D01*
X132396190Y-92171619D02*
X132300952Y-92076380D01*
X132300952Y-92076380D02*
X132110476Y-91981142D01*
X132110476Y-91981142D02*
X131729523Y-91981142D01*
X131729523Y-91981142D02*
X131539047Y-92076380D01*
X131539047Y-92076380D02*
X131443809Y-92171619D01*
X131443809Y-92171619D02*
X131348571Y-92362095D01*
X131253333Y-99219238D02*
X132586666Y-99219238D01*
X132586666Y-99219238D02*
X131729523Y-101219238D01*
X128824761Y-108076380D02*
X128634285Y-107981142D01*
X128634285Y-107981142D02*
X128539047Y-107885904D01*
X128539047Y-107885904D02*
X128443809Y-107695428D01*
X128443809Y-107695428D02*
X128443809Y-107600190D01*
X128443809Y-107600190D02*
X128539047Y-107409714D01*
X128539047Y-107409714D02*
X128634285Y-107314476D01*
X128634285Y-107314476D02*
X128824761Y-107219238D01*
X128824761Y-107219238D02*
X129205714Y-107219238D01*
X129205714Y-107219238D02*
X129396190Y-107314476D01*
X129396190Y-107314476D02*
X129491428Y-107409714D01*
X129491428Y-107409714D02*
X129586666Y-107600190D01*
X129586666Y-107600190D02*
X129586666Y-107695428D01*
X129586666Y-107695428D02*
X129491428Y-107885904D01*
X129491428Y-107885904D02*
X129396190Y-107981142D01*
X129396190Y-107981142D02*
X129205714Y-108076380D01*
X129205714Y-108076380D02*
X128824761Y-108076380D01*
X128824761Y-108076380D02*
X128634285Y-108171619D01*
X128634285Y-108171619D02*
X128539047Y-108266857D01*
X128539047Y-108266857D02*
X128443809Y-108457333D01*
X128443809Y-108457333D02*
X128443809Y-108838285D01*
X128443809Y-108838285D02*
X128539047Y-109028761D01*
X128539047Y-109028761D02*
X128634285Y-109124000D01*
X128634285Y-109124000D02*
X128824761Y-109219238D01*
X128824761Y-109219238D02*
X129205714Y-109219238D01*
X129205714Y-109219238D02*
X129396190Y-109124000D01*
X129396190Y-109124000D02*
X129491428Y-109028761D01*
X129491428Y-109028761D02*
X129586666Y-108838285D01*
X129586666Y-108838285D02*
X129586666Y-108457333D01*
X129586666Y-108457333D02*
X129491428Y-108266857D01*
X129491428Y-108266857D02*
X129396190Y-108171619D01*
X129396190Y-108171619D02*
X129205714Y-108076380D01*
X131872380Y-107124000D02*
X130158095Y-109695428D01*
X132539047Y-108171619D02*
X133205714Y-108171619D01*
X133491428Y-109219238D02*
X132539047Y-109219238D01*
X132539047Y-109219238D02*
X132539047Y-107219238D01*
X132539047Y-107219238D02*
X133491428Y-107219238D01*
X134158095Y-107219238D02*
X135491428Y-109219238D01*
X135491428Y-107219238D02*
X134158095Y-109219238D01*
D14*
X118925714Y-153248154D02*
X120354286Y-153248154D01*
X118640000Y-154105297D02*
X119640000Y-151105297D01*
X119640000Y-151105297D02*
X120640000Y-154105297D01*
X144414285Y-152533868D02*
X144842857Y-152676725D01*
X144842857Y-152676725D02*
X144985714Y-152819582D01*
X144985714Y-152819582D02*
X145128571Y-153105297D01*
X145128571Y-153105297D02*
X145128571Y-153533868D01*
X145128571Y-153533868D02*
X144985714Y-153819582D01*
X144985714Y-153819582D02*
X144842857Y-153962440D01*
X144842857Y-153962440D02*
X144557142Y-154105297D01*
X144557142Y-154105297D02*
X143414285Y-154105297D01*
X143414285Y-154105297D02*
X143414285Y-151105297D01*
X143414285Y-151105297D02*
X144414285Y-151105297D01*
X144414285Y-151105297D02*
X144700000Y-151248154D01*
X144700000Y-151248154D02*
X144842857Y-151391011D01*
X144842857Y-151391011D02*
X144985714Y-151676725D01*
X144985714Y-151676725D02*
X144985714Y-151962440D01*
X144985714Y-151962440D02*
X144842857Y-152248154D01*
X144842857Y-152248154D02*
X144700000Y-152391011D01*
X144700000Y-152391011D02*
X144414285Y-152533868D01*
X144414285Y-152533868D02*
X143414285Y-152533868D01*
M02*
