<svg xmlns="http://www.w3.org/2000/svg" width="120.000" height="380.000" viewBox="0 0 120.000 380.000">
<rect x="0" y="0" width="120.000" height="380.000" fill="#20232a"/>
<rect x="1.5" y="1.5" width="117.000" height="377.000" fill="none" stroke="#3a3f4b" stroke-width="1"/>
<path d="M33.44667930302658 13.80125030757874V17.216239388533467H33.96398829662893Q34.84866164800689 17.216239388533467 35.31536432701772 16.77765132874016Q35.78206700602854 16.339063268946852 35.78206700602854 15.5031219242126Q35.78206700602854 14.670929195374017 35.31723863496555 14.236089751476378Q34.852410263902556 13.80125030757874 33.96398829662893 13.80125030757874ZM32.003462183193896 12.710403081938978H33.52540023683563Q34.79992964136319 12.710403081938978 35.424074187992126 12.892210952878937Q36.04821873462106 13.074018823818898 36.49430402620571 13.508858267716537Q36.887908695250985 13.887468473179135 37.07908810593012 14.382285771407481Q37.27026751660925 14.877103069635828 37.27026751660925 15.5031219242126Q37.27026751660925 16.13663801058071 37.07908810593012 16.63332961675689Q36.887908695250985 17.13002122293307 36.49430402620571 17.50863142839567Q36.04447011872539 17.943470872293307 35.414702648252955 18.125278743233267Q34.78493517778051 18.30708661417323 33.52540023683563 18.30708661417323H32.003462183193896Z" fill="#ffd166"/><path d="M40.93266524667815 13.655054287647639Q40.272908849040356 13.655054287647639 39.90929310716044 14.142374354084648Q39.54567736528051 14.629694420521655 39.54567736528051 15.514367771899607Q39.54567736528051 16.395292507381892 39.90929310716044 16.8826125738189Q40.272908849040356 17.369932640255907 40.93266524667815 17.369932640255907Q41.596170260211615 17.369932640255907 41.95978600209153 16.8826125738189Q42.32340174397146 16.395292507381892 42.32340174397146 15.514367771899607Q42.32340174397146 14.629694420521655 41.95978600209153 14.142374354084648Q41.596170260211615 13.655054287647639 40.93266524667815 13.655054287647639ZM40.93266524667815 12.609190452755907Q42.282166969119096 12.609190452755907 43.04688461183564 13.381405327263781Q43.81160225455217 14.153620201771655 43.81160225455217 15.514367771899607Q43.81160225455217 16.871366726131892 43.04688461183564 17.643581600639767Q42.282166969119096 18.41579647514764 40.93266524667815 18.41579647514764Q39.586912140132874 18.41579647514764 38.820320189468504 17.643581600639767Q38.05372823880413 16.871366726131892 38.05372823880413 15.514367771899607Q38.05372823880413 14.153620201771655 38.820320189468504 13.381405327263781Q39.586912140132874 12.609190452755907 40.93266524667815 12.609190452755907Z" fill="#ffd166"/><path d="M44.90244948019193 12.710403081938978H46.34566660002461V16.065414308562993Q46.34566660002461 16.75890824926181 46.5724578617126 17.05692321296752Q46.79924912340059 17.35493817667323 47.31280950110728 17.35493817667323Q47.830118494709644 17.35493817667323 48.05690975639764 17.05692321296752Q48.28370101808563 16.75890824926181 48.28370101808563 16.065414308562993V12.710403081938978H49.72691813791831V16.065414308562993Q49.72691813791831 17.25372554749016 49.130888210506896 17.8347610113189Q48.534858283095474 18.41579647514764 47.31280950110728 18.41579647514764Q46.09450933501476 18.41579647514764 45.49847940760335 17.8347610113189Q44.90244948019193 17.25372554749016 44.90244948019193 16.065414308562993Z" fill="#ffd166"/><path d="M53.3780700203002 14.877103069635828Q53.719194066806104 14.877103069635828 53.895379013902556 14.727158433809056Q54.071563960999015 14.577213797982285 54.071563960999015 14.28482175812008Q54.071563960999015 13.996178334153544 53.895379013902556 13.844359390378937Q53.719194066806104 13.692540446604331 53.3780700203002 13.692540446604331H52.57961483452264V14.877103069635828ZM53.426802026943896 17.324949249507874Q53.86164147084153 17.324949249507874 54.08093550073819 17.14126707062008Q54.300229530634844 16.957584891732285 54.300229530634844 16.586471918061026Q54.300229530634844 16.222856176181104 54.08280980868602 16.04104830524114Q53.86539008673721 15.859240434301181 53.426802026943896 15.859240434301181H52.57961483452264V17.324949249507874ZM54.768806517593504 15.311942513533467Q55.233634888656496 15.44689268577756 55.48854076956201 15.810508427657481Q55.74344665046752 16.174124169537404 55.74344665046752 16.702679010826774Q55.74344665046752 17.51238004429134 55.1961487296998 17.909733329232285Q54.64885080893209 18.30708661417323 53.53176327202264 18.30708661417323H51.13639771468996V12.710403081938978H53.30309770238681Q54.46891724593996 12.710403081938978 54.99184916338583 13.06277297613189Q55.514781080831696 13.415142870324804 55.514781080831696 14.191106360728348Q55.514781080831696 14.5997054933563 55.323601670152556 14.886474609375Q55.13242225947342 15.173243725393702 54.768806517593504 15.311942513533467Z" fill="#ffd166"/><path d="M56.987987127829726 12.710403081938978H58.4312042476624V17.216239388533467H60.965268593134844V18.30708661417323H56.987987127829726Z" fill="#ffd166"/><path d="M61.87993087167815 12.710403081938978H65.77474278727854V13.80125030757874H63.32314799151082V14.843365526574804H65.62854676734744V15.934212752214568H63.32314799151082V17.216239388533467H65.85721233698327V18.30708661417323H61.87993087167815Z" fill="#ffd166"/><path d="M67.12424450971947 12.710403081938978H69.51961006705216Q70.5879655973179 12.710403081938978 71.15962952140748 13.184602992741143Q71.73129344549704 13.658802903543307 71.73129344549704 14.535979023129922Q71.73129344549704 15.416903758612206 71.15962952140748 15.89110366941437Q70.5879655973179 16.365303580216537 69.51961006705216 16.365303580216537H68.56746162955216V18.30708661417323H67.12424450971947ZM68.56746162955216 13.75626691683071V15.319439745324804H69.36591681532971Q69.78576179564467 15.319439745324804 70.01442736528051 15.115140179010828Q70.24309293491633 14.910840612696852 70.24309293491633 14.535979023129922Q70.24309293491633 14.161117433562993 70.01442736528051 13.958692175196852Q69.78576179564467 13.75626691683071 69.36591681532971 13.75626691683071Z" fill="#ffd166"/><path d="M72.75091696911907 12.710403081938978H74.19413408895176V17.216239388533467H76.7281984344242V18.30708661417323H72.75091696911907Z" fill="#ffd166"/><path d="M77.6428607129675 12.710403081938978H79.08607783280019V16.065414308562993Q79.08607783280019 16.75890824926181 79.31286909448818 17.05692321296752Q79.53966035617617 17.35493817667323 80.05322073388287 17.35493817667323Q80.57052972748522 17.35493817667323 80.79732098917322 17.05692321296752Q81.02411225086121 16.75890824926181 81.02411225086121 16.065414308562993V12.710403081938978H82.46732937069389V16.065414308562993Q82.46732937069389 17.25372554749016 81.87129944328248 17.8347610113189Q81.27526951587106 18.41579647514764 80.05322073388287 18.41579647514764Q78.83492056779035 18.41579647514764 78.23889064037893 17.8347610113189Q77.6428607129675 17.25372554749016 77.6428607129675 16.065414308562993Z" fill="#ffd166"/><path d="M87.77162086306593 12.886588029035433V14.07115065206693Q87.31054110789862 13.864976777805119 86.8719530481053 13.760015532726378Q86.433364988312 13.655054287647639 86.0435089351624 13.655054287647639Q85.52619994156002 13.655054287647639 85.27879129244585 13.79750169168307Q85.03138264333168 13.939949095718504 85.03138264333168 14.239838367372048Q85.03138264333168 14.464755321112206 85.19819605068896 14.590333953617126Q85.36500945804625 14.715912586122048 85.80359751783955 14.805879367618111L86.41837052472931 14.929583692175198Q87.35177588275097 15.117014486958663 87.74538055179625 15.49937330831693Q88.13898522084152 15.881732129675198 88.13898522084152 16.586471918061026Q88.13898522084152 17.51238004429134 87.58981299212597 17.96408825971949Q87.04064076341042 18.41579647514764 85.91230737881396 18.41579647514764Q85.38000392162893 18.41579647514764 84.84395184854822 18.31458384596457Q84.3078997754675 18.213371216781496 83.7718477023868 18.014694574311026V16.796394408218504Q84.3078997754675 17.08128921628937 84.80833999753935 17.225610928272637Q85.30878021961121 17.369932640255907 85.7736085906742 17.369932640255907Q86.24593419352853 17.369932640255907 86.49709145853836 17.212490772637796Q86.74824872354822 17.055048905019685 86.74824872354822 16.76265686515748Q86.74824872354822 16.50025375246063 86.57768670029526 16.357806348425196Q86.4071246770423 16.215358944389763 85.89731291523128 16.102900467519685L85.33876914677656 15.9791961429626Q84.49907918614664 15.799262579970474 84.11109744094487 15.405657910925198Q83.7231156957431 15.012053241879922 83.7231156957431 14.344799612450789Q83.7231156957431 13.508858267716537 84.26291638471949 13.059024360236222Q84.80271707369586 12.609190452755907 85.81484336552656 12.609190452755907Q86.27592312069389 12.609190452755907 86.7632431871309 12.678539846825789Q87.2505632535679 12.74788924089567 87.77162086306593 12.886588029035433Z" fill="#ffd166"/>
<path d="M22.85727193036417 24.4144469734252V26.983113927165356H25.416134811761808V28.13999446358268H22.85727193036417V30.708661417322837H21.690587321604326V28.13999446358268H19.13172444020669V26.983113927165356H21.690587321604326V24.4144469734252Z" fill="#ffffff"/><path d="M31.26916600024606 24.4144469734252V26.983113927165356H33.8280288816437V28.13999446358268H31.26916600024606V30.708661417322837H30.102481391486215V28.13999446358268H27.543618510088578V26.983113927165356H30.102481391486215V24.4144469734252Z" fill="#ffffff"/><path d="M39.3085053211122 23.389921413631892H42.44090643454724Q43.837986743356296 23.389921413631892 44.58554725947342 24.010028989296263Q45.33310777559055 24.630136564960633 45.33310777559055 25.777213029035437Q45.33310777559055 26.9291915292815 44.58554725947342 27.549299104945867Q43.837986743356296 28.169406680610237 42.44090643454724 28.169406680610237H41.19578924704724V30.708661417322837H39.3085053211122ZM41.19578924704724 24.75758950541339V26.80173858882874H42.239922951525585Q42.78895100270669 26.80173858882874 43.08797520915354 26.53457761749508Q43.386999415600386 26.26741664616142 43.386999415600386 25.777213029035437Q43.386999415600386 25.28700941190945 43.08797520915354 25.022299458661422Q42.78895100270669 24.75758950541339 42.239922951525585 24.75758950541339Z" fill="#ffffff"/><path d="M46.66646161417322 23.389921413631892H48.55374554010826V27.77724378690945Q48.55374554010826 28.684120478592522 48.85031872846948 29.07383235420768Q49.146891916830704 29.463544229822837 49.8184708722933 29.463544229822837Q50.494951863927156 29.463544229822837 50.79152505228838 29.07383235420768Q51.0880982406496 28.684120478592522 51.0880982406496 27.77724378690945V23.389921413631892H52.97538216658464V27.77724378690945Q52.97538216658464 29.331189253198822 52.195958415354326 30.091004859744096Q51.41653466412401 30.850820466289374 49.8184708722933 30.850820466289374Q48.22530911663385 30.850820466289374 47.44588536540354 30.091004859744096Q46.66646161417322 29.331189253198822 46.66646161417322 27.77724378690945Z" fill="#ffffff"/><path d="M54.81854776697834 23.389921413631892H56.70583169291338V29.282168891486222H60.01960814468503V30.708661417322837H54.81854776697834Z" fill="#ffffff"/><path d="M66.30892055241141 23.620317113681104V25.169360543799215Q65.70597010334644 24.899748554379926 65.13243187130905 24.762491541584648Q64.55889363927164 24.62523452878937 64.04908187746062 24.62523452878937Q63.37260088582676 24.62523452878937 63.049066498523615 24.811511903297244Q62.72553211122047 24.99778927780512 62.72553211122047 25.389952171505907Q62.72553211122047 25.684074341781496 62.94367272084153 25.848292553518704Q63.16181333046259 26.012510765255907 63.73535156249999 26.130159633366144L64.53928549458661 26.29192682701772Q65.75989250123031 26.53702863558071 66.27460629921259 27.037036325049215Q66.78932009719487 27.53704401451772 66.78932009719487 28.45862681471457Q66.78932009719487 29.66942974901575 66.07117179810531 30.260125107652563Q65.35302349901575 30.850820466289374 63.87751061146653 30.850820466289374Q63.18142147514763 30.850820466289374 62.480430302657474 30.718465489665356Q61.77943913016732 30.58611051304134 61.07844795767716 30.32630259596457V28.733140840305122Q61.77943913016732 29.105695589320867 62.43386095903051 29.29442398191437Q63.0882827878937 29.483152374507878 63.69613527312992 29.483152374507878Q64.31379183070865 29.483152374507878 64.64222825418307 29.277266855314963Q64.97066467765748 29.071381336122048 64.97066467765748 28.68902251476378Q64.97066467765748 28.345879982775593 64.74762203186515 28.15960260826772Q64.52457938607283 27.973325233759844 63.85790246678149 27.826264148622048L63.12749907726378 27.664496954970474Q62.02944297490157 27.429199218750004 61.52208223117618 26.91448542076772Q61.014721487450785 26.399771622785437 61.014721487450785 25.527209184301185Q61.014721487450785 24.434055118110237 61.7206146961122 23.84581077755906Q62.426507904773615 23.257566437007878 63.75005767101378 23.257566437007878Q64.35300812007874 23.257566437007878 64.99027282234252 23.348254106176185Q65.6275375246063 23.43894177534449 66.30892055241141 23.620317113681104Z" fill="#ffffff"/><path d="M68.4462083230807 23.389921413631892H73.53942390501967V24.816413939468507H70.33349224901575V26.17917999507874H73.34824449434055V27.605672520915356H70.33349224901575V29.282168891486222H73.6472687007874V30.708661417322837H68.4462083230807Z" fill="#ffffff"/><path d="M80.3973725086122 23.620317113681104V25.169360543799215Q79.79442205954723 24.899748554379926 79.22088382750982 24.762491541584648Q78.64734559547243 24.62523452878937 78.13753383366141 24.62523452878937Q77.46105284202756 24.62523452878937 77.13751845472441 24.811511903297244Q76.81398406742126 24.99778927780512 76.81398406742126 25.389952171505907Q76.81398406742126 25.684074341781496 77.03212467704232 25.848292553518704Q77.25026528666338 26.012510765255907 77.82380351870079 26.130159633366144L78.6277374507874 26.29192682701772Q79.8483444574311 26.53702863558071 80.36305825541338 27.037036325049215Q80.87777205339566 27.53704401451772 80.87777205339566 28.45862681471457Q80.87777205339566 29.66942974901575 80.1596237543061 30.260125107652563Q79.44147545521653 30.850820466289374 77.96596256766732 30.850820466289374Q77.26987343134842 30.850820466289374 76.56888225885825 30.718465489665356Q75.8678910863681 30.58611051304134 75.16689991387794 30.32630259596457V28.733140840305122Q75.8678910863681 29.105695589320867 76.52231291523128 29.29442398191437Q77.17673474409447 29.483152374507878 77.7845872293307 29.483152374507878Q78.40224378690944 29.483152374507878 78.73068021038385 29.277266855314963Q79.05911663385827 29.071381336122048 79.05911663385827 28.68902251476378Q79.05911663385827 28.345879982775593 78.83607398806595 28.15960260826772Q78.61303134227362 27.973325233759844 77.94635442298228 27.826264148622048L77.21595103346456 27.664496954970474Q76.11789493110236 27.429199218750004 75.61053418737697 26.91448542076772Q75.10317344365157 26.399771622785437 75.10317344365157 25.527209184301185Q75.10317344365157 24.434055118110237 75.80906665231299 23.84581077755906Q76.5149598609744 23.257566437007878 77.83850962721456 23.257566437007878Q78.44146007627953 23.257566437007878 79.0787247785433 23.348254106176185Q79.71598948080708 23.43894177534449 80.3973725086122 23.620317113681104Z" fill="#ffffff"/><path d="M89.89751860851376 24.4144469734252V26.983113927165356H92.45638148991141V28.13999446358268H89.89751860851376V30.708661417322837H88.73083399975393V28.13999446358268H86.1719711183563V26.983113927165356H88.73083399975393V24.4144469734252Z" fill="#ffffff"/><path d="M98.30941267839565 24.4144469734252V26.983113927165356H100.86827555979329V28.13999446358268H98.30941267839565V30.708661417322837H97.14272806963581V28.13999446358268H94.58386518823818V26.983113927165356H97.14272806963581V24.4144469734252Z" fill="#ffffff"/>
<path d="M58.62454632135827 51.08498400590552H59.76643239419291V47.1437469242126L58.52419875738189 47.39288570374016V46.75619771161418L59.75951187253937 46.507058932086615H60.458484559547244V51.08498400590552H61.60037063238189V51.673228346456696H58.62454632135827Z" fill="#9aa0ac"/>
<path d="M59.105522576279526 72.34482652559055H61.54500645915354V72.93307086614173H58.264679195374015V72.34482652559055Q58.662609190452756 71.93305548720473 59.34947096456693 71.23927319143701Q60.036332738681104 70.54549089566929 60.21280604084646 70.34479576771653Q60.548451341043304 69.96762733759843 60.681671382874015 69.70637764517717Q60.814891424704726 69.44512795275591 60.814891424704726 69.19252891240157Q60.814891424704726 68.78075787401575 60.52595964566929 68.52123831200788Q60.23702786663386 68.26171875 59.77335291584646 68.26171875Q59.44462813730315 68.26171875 59.07957062007874 68.37590735728347Q58.714513102854326 68.49009596456693 58.29928180364173 68.72193343996064V68.01604023129921Q58.721433624507874 67.84648745078741 59.088221272145674 67.7599809301181Q59.45500891978347 67.67347440944881 59.75951187253937 67.67347440944881Q60.56229238435039 67.67347440944881 61.03980837844488 68.07486466535433Q61.51732437253937 68.47625492125984 61.51732437253937 69.14754552165354Q61.51732437253937 69.46588951771653 61.39794537401575 69.7513610359252Q61.278566375492126 70.03683255413387 60.963682640255904 70.42438176673228Q60.877176119586615 70.52472933070867 60.413501168799215 71.00397545521653Q59.94982621801181 71.48322157972441 59.105522576279526 72.34482652559055Z" fill="#9aa0ac"/>
<path d="M60.62111681840551 91.40740342027559Q61.1228546382874 91.51467150590551 61.40486589566929 91.85377706692913Q61.68687715305118 92.19288262795276 61.68687715305118 92.69116018700787Q61.68687715305118 93.45587782972441 61.16091750738189 93.87456938976379Q60.6349578617126 94.29326094980316 59.66608483021653 94.29326094980316Q59.3408203125 94.29326094980316 58.99652436023622 94.22924612450788Q58.65222840797244 94.16523129921259 58.285440760334644 94.03720164862204V93.36245078740157Q58.57610266978347 93.53200356791338 58.92212875246063 93.61851008858267Q59.26815483513779 93.70501660925197 59.645323265255904 93.70501660925197Q60.30277282234252 93.70501660925197 60.647068774606296 93.44549704724409Q60.991364726870074 93.18597748523622 60.991364726870074 92.69116018700787Q60.991364726870074 92.23440575787401 60.6712906003937 91.97661632627953Q60.35121647391732 91.71882689468504 59.7802734375 91.71882689468504H59.17818805364173V91.14442359744095H59.80795552411417Q60.32353438730315 91.14442359744095 60.596894992618104 90.93853807824803Q60.87025559793307 90.73265255905511 60.87025559793307 90.3451033464567Q60.87025559793307 89.94717335137796 60.58824434055118 89.7343673105315Q60.30623308316929 89.52156126968504 59.7802734375 89.52156126968504Q59.49307178887795 89.52156126968504 59.164347010334644 89.58384596456693Q58.83562223179134 89.64613065944881 58.44115249753937 89.77762057086613V89.15477362204724Q58.83908249261811 89.04404527559055 59.18683870570867 88.9886811023622Q59.534594918799215 88.93331692913385 59.84255813238189 88.93331692913385Q60.63841812253937 88.93331692913385 61.10209307332677 89.2949141855315Q61.56576802411417 89.65651144192913 61.56576802411417 90.27243786909449Q61.56576802411417 90.70151021161418 61.320089505413385 90.99736251230314Q61.0744109867126 91.29321481299212 60.62111681840551 91.40740342027559Z" fill="#9aa0ac"/>
<path d="M60.423881951279526 110.89559239665356 58.659148929625985 113.65342027559056H60.423881951279526ZM60.24048812746063 110.28658649114175H61.11939437746063V113.65342027559056H61.85642993356299V114.2347440944882H61.11939437746063V115.45275590551182H60.423881951279526V114.2347440944882H58.09166615403543V113.55999323326773Z" fill="#9aa0ac"/>
<path d="M58.5103577140748 131.54642901082678H61.254344549704726V132.13467335137796H59.150505967027556V133.40112881397638Q59.30275744340551 133.34922490157481 59.45500891978347 133.32327294537401Q59.607260396161415 133.29732098917324 59.75951187253937 133.29732098917324Q60.62457707923228 133.29732098917324 61.12977515994095 133.77137672244095Q61.63497324064961 134.24543245570868 61.63497324064961 135.05513348917324Q61.63497324064961 135.8890563484252 61.11593411663386 136.35100116879923Q60.59689499261811 136.81294598917324 59.652243786909445 136.81294598917324Q59.32697926919291 136.81294598917324 58.989603838582674 136.7575818159449Q58.65222840797244 136.70221764271653 58.292361281988185 136.59148929625985V135.8890563484252Q58.60378475639764 136.058609128937 58.93596979576772 136.14165538877953Q59.26815483513779 136.22470164862204 59.63840274360236 136.22470164862204Q60.23702786663386 136.22470164862204 60.58651421013779 135.90981791338584Q60.93600055364173 135.59493417814963 60.93600055364173 135.05513348917324Q60.93600055364173 134.51533280019686 60.58651421013779 134.20044906496065Q60.23702786663386 133.88556532972441 59.63840274360236 133.88556532972441Q59.35812161663386 133.88556532972441 59.07957062007874 133.9478500246063Q58.80101962352362 134.0101347194882 58.5103577140748 134.1416246309055Z" fill="#9aa0ac"/>
<path d="M60.084776390255904 155.11080524114175Q59.61418091781496 155.11080524114175 59.339090182086615 155.43260949803152Q59.06399944635827 155.75441375492127 59.06399944635827 156.31497600885828Q59.06399944635827 156.8720780019685 59.339090182086615 157.19561238927167Q59.61418091781496 157.51914677657481 60.084776390255904 157.51914677657481Q60.55537186269685 157.51914677657481 60.8304625984252 157.19561238927167Q61.10555333415354 156.8720780019685 61.10555333415354 156.31497600885828Q61.10555333415354 155.75441375492127 60.8304625984252 155.43260949803152Q60.55537186269685 155.11080524114175 60.084776390255904 155.11080524114175ZM61.47234098179134 152.9204601377953V153.55714812992127Q61.20936115895669 153.43257874015748 60.94119094488189 153.36683378444883Q60.67302073080709 153.30108882874018 60.41004090797244 153.30108882874018Q59.71798874261811 153.30108882874018 59.352931225393704 153.76822404035434Q58.98787370816929 154.2353592519685 58.93596979576772 155.18001045767718Q59.140125184547244 154.87896776574803 59.448088398129926 154.71806563730314Q59.7560516117126 154.55716350885828 60.12629952017716 154.55716350885828Q60.904858206200785 154.55716350885828 61.35642224409449 155.02948911171262Q61.807986281988185 155.50181471456693 61.807986281988185 156.31497600885828Q61.807986281988185 157.11083599901576 61.337390809547244 157.591812253937Q60.866795337106296 158.07278850885828 60.084776390255904 158.07278850885828Q59.188568836122045 158.07278850885828 58.714513102854326 157.3859267347441Q58.240457369586615 156.69906496062993 58.240457369586615 155.394546628937Q58.240457369586615 154.16961429625985 58.82178118848425 153.44122939222441Q59.40310500738189 152.71284448818898 60.38235882135827 152.71284448818898Q60.64533864419291 152.71284448818898 60.91350885826772 152.76474840059055Q61.18167907234252 152.81665231299212 61.47234098179134 152.9204601377953Z" fill="#9aa0ac"/>
<path d="M58.326963890255904 174.06611405019686H61.64881428395669V174.36369648129923L59.77335291584646 179.23228346456693H59.04323788139764L60.80797090305118 174.65435839074803H58.326963890255904Z" fill="#9aa0ac"/>
<path d="M54.13831815944882 198.0388010580709Q53.640040600393704 198.0388010580709 53.35456908218504 198.30524114173232Q53.06909756397638 198.57168122539372 53.06909756397638 199.0388164370079Q53.06909756397638 199.50595164862207 53.35456908218504 199.7723917322835Q53.640040600393704 200.03883181594492 54.13831815944882 200.03883181594492Q54.63659571850394 200.03883181594492 54.923797367125985 199.77066160187013Q55.21099901574803 199.50249138779532 55.21099901574803 199.0388164370079Q55.21099901574803 198.57168122539372 54.92552749753937 198.30524114173232Q54.64005597933071 198.0388010580709 54.13831815944882 198.0388010580709ZM53.43934547244095 197.74121862696853Q52.98951156496063 197.63049028051185 52.73864265501969 197.32252706692918Q52.48777374507874 197.0145638533465 52.48777374507874 196.5716504675197Q52.48777374507874 195.95226377952758 52.928957000492126 195.59239665354335Q53.37014025590551 195.23252952755908 54.13831815944882 195.23252952755908Q54.909956323818896 195.23252952755908 55.349409448818896 195.59239665354335Q55.788862573818896 195.95226377952758 55.788862573818896 196.5716504675197Q55.788862573818896 197.0145638533465 55.537993663877955 197.32252706692918Q55.28712475393701 197.63049028051185 54.84075110728347 197.74121862696853Q55.345949187992126 197.85886749507878 55.627960445374015 198.20143331692918Q55.90997170275591 198.54399913877955 55.90997170275591 199.0388164370079Q55.90997170275591 199.78969303641736 55.45148714320867 200.19108329232287Q54.99300258366142 200.59247354822838 54.13831815944882 200.59247354822838Q53.28363373523622 200.59247354822838 52.82514917568898 200.19108329232287Q52.36666461614173 199.78969303641736 52.36666461614173 199.0388164370079Q52.36666461614173 198.54399913877955 52.65040600393701 198.20143331692918Q52.93414739173228 197.85886749507878 53.43934547244095 197.74121862696853ZM53.183286171259844 196.63739542322838Q53.183286171259844 197.0387856791339 53.434155081200785 197.26370263287404Q53.68502399114173 197.4886195866142 54.13831815944882 197.4886195866142Q54.58815206692913 197.4886195866142 54.84248123769685 197.26370263287404Q55.09681040846457 197.0387856791339 55.09681040846457 196.63739542322838Q55.09681040846457 196.23600516732287 54.84248123769685 196.0110882135827Q54.58815206692913 195.78617125984255 54.13831815944882 195.78617125984255Q53.68502399114173 195.78617125984255 53.434155081200785 196.0110882135827Q53.183286171259844 196.23600516732287 53.183286171259844 196.63739542322838Z" fill="#9aa0ac"/><path d="M58.1937438484252 195.32595656988192H58.781988188976385L56.98265255905512 201.1495755413386H56.39440821850394Z" fill="#9aa0ac"/><path d="M59.47750061515749 195.32595656988192H62.743986835629926V195.9142009104331H60.17647330216536V197.44363619586616H62.63671875000001V198.03188053641736H60.17647330216536V199.90388164370083H62.80627153051182V200.492125984252H59.47750061515749Z" fill="#9aa0ac"/><path d="M63.705939345472444 195.32595656988192H64.4568159448819L65.74057271161418 197.24640132874018L67.03125 195.32595656988192H67.78212659940945L66.12120140255907 197.80696358267718L67.89285494586615 200.492125984252H67.1419783464567L65.6886687992126 198.294860359252L64.22497846948819 200.492125984252H63.47064160925198L65.31496062992126 197.734298105315Z" fill="#9aa0ac"/>
<line x1="8.858" y1="214.075" x2="111.142" y2="214.075" stroke="#3a3f4b" stroke-width="0.8"/>
<path d="M14.543995294045278 227.80684824064963V228.6053034264272Q14.16163647268701 228.2491849163386 13.728671336737207 228.07299996924218Q13.295706200787404 227.89681502214572 12.808386134350394 227.89681502214572Q11.848740465059056 227.89681502214572 11.338928703248033 228.48347340981798Q10.82911694143701 229.0701317974902 10.82911694143701 230.1797221026083Q10.82911694143701 231.28556379183075 11.338928703248033 231.872222179503Q11.848740465059056 232.45888056717524 12.808386134350394 232.45888056717524Q13.295706200787404 232.45888056717524 13.728671336737207 232.28269562007878Q14.16163647268701 232.10651067298232 14.543995294045278 231.75039216289375V232.54135011687995Q14.146642009104333 232.81125046136813 13.702431025467522 232.94620063361225Q13.258220041830711 233.08115080585634 12.763402743602363 233.08115080585634Q11.492621954970474 233.08115080585634 10.761641855314963 232.30331300750495Q10.03066175565945 231.52547520915357 10.03066175565945 230.1797221026083Q10.03066175565945 228.83022038016736 10.761641855314963 228.05238258181598Q11.492621954970474 227.2745447834646 12.763402743602363 227.2745447834646Q13.265717273622048 227.2745447834646 13.70992825725886 227.40762064776084Q14.15413924089567 227.5406965120571 14.543995294045278 227.80684824064963Z" fill="#c8cdd6"/><path d="M15.713563453494096 227.37575741264766H16.470783864419293V232.33517624261813H19.196027620570867V232.97244094488192H15.713563453494096Z" fill="#c8cdd6"/><path d="M19.990734190452756 227.37575741264766H20.747954601377955V229.741134042815L23.259527251476378 227.37575741264766H24.234167384350396L21.45644300565945 229.9847940760335L24.432844026820867 232.97244094488192H23.435712198572837L20.747954601377955 230.27718611589572V232.97244094488192H19.990734190452756Z" fill="#c8cdd6"/>
<path d="M97.23903866264764 230.29967781126973V232.35017070620083H98.45359021284449Q99.06461460383859 232.35017070620083 99.35888095164863 232.09713913324316Q99.65314729945867 231.84410756028547 99.65314729945867 231.32304995078744Q99.65314729945867 230.79824372539375 99.35888095164863 230.54896076833174Q99.06461460383859 230.29967781126973 98.45359021284449 230.29967781126973ZM97.23903866264764 227.99802765132878V229.68490480437995H98.35987481545276Q98.91466996801182 229.68490480437995 99.18644462044784 229.47685662217032Q99.45821927288387 229.26880843996065 99.45821927288387 228.84146622785437Q99.45821927288387 228.41787263164375 99.18644462044784 228.20795014148626Q98.91466996801182 227.99802765132878 98.35987481545276 227.99802765132878ZM96.48181825172244 227.37575741264766H98.4161040538878Q99.28203432578741 227.37575741264766 99.75061131274606 227.73562453863192Q100.21918829970473 228.0954916646162 100.21918829970473 228.75899667814963Q100.21918829970473 229.27255705585634 99.9792768823819 229.57619494340554Q99.73936546505907 229.87983283095477 99.27453709399607 229.95480514886813Q99.8330808624508 230.07476085752955 100.1423416738435 230.45524537094Q100.45160248523622 230.83572988435043 100.45160248523622 231.40551950049215Q100.45160248523622 232.155242679626 99.9417907234252 232.56384181225397Q99.43197896161418 232.97244094488192 98.49107637180119 232.97244094488192H96.48181825172244Z" fill="#c8cdd6"/><path d="M101.74862358513779 227.37575741264766H102.50584399606299V232.97244094488192H101.74862358513779Z" fill="#c8cdd6"/><path d="M103.2368240957185 227.37575741264766H107.97132597194881V228.01302211491145H105.98455954724409V232.97244094488192H105.22359052042323V228.01302211491145H103.2368240957185Z" fill="#c8cdd6"/>
<path d="M49.9652436023622 246.4974470964567V246.93863035187007H49.45773868110236Q49.1722671628937 246.93863035187007 49.061250461368104 247.05397237942913Q48.95023375984252 247.16931440698818 48.95023375984252 247.46920367864175V247.7546751968504H49.82394961860236V248.16702294537401H48.95023375984252V250.98425196850394H48.41677688238189V248.16702294537401H47.909271961122045V247.7546751968504H48.41677688238189V247.52975824311025Q48.41677688238189 246.99053426427164 48.66764579232283 246.74399068036416Q48.91851470226378 246.4974470964567 49.46350578248031 246.4974470964567Z" fill="#7f8794"/><path d="M52.28073480561024 248.25064591535434Q52.19134473425197 248.19874200295277 52.08609513410433 248.17423182209646Q51.980845533956696 248.14972164124015 51.85396930364173 248.14972164124015Q51.404135396161415 248.14972164124015 51.16335891363189 248.44240203617125Q50.92258243110236 248.73508243110237 50.92258243110236 249.28295706200788V250.98425196850394H50.38912555364173V247.7546751968504H50.92258243110236V248.2564130167323Q51.08982837106299 247.9622908464567 51.35799858513779 247.81955508735237Q51.6261687992126 247.67681932824803 52.00968104084646 247.67681932824803Q52.06446850393701 247.67681932824803 52.13079016978347 247.68402820497047Q52.19711183562992 247.69123708169292 52.27785125492126 247.7056548351378Z" fill="#7f8794"/><path d="M54.08872108759843 248.12665323572836Q53.661955585629926 248.12665323572836 53.413970226377955 248.4597033403051Q53.165984867125985 248.7927534448819 53.165984867125985 249.37234713336613Q53.165984867125985 249.9519408218504 53.41252845103347 250.28499092642716Q53.65907203494095 250.61804103100394 54.08872108759843 250.61804103100394Q54.512603038877955 250.61804103100394 54.760588398129926 250.2835491510827Q55.00857375738189 249.94905727116142 55.00857375738189 249.37234713336613Q55.00857375738189 248.79852054625985 54.760588398129926 248.4625868909941Q54.512603038877955 248.12665323572836 54.08872108759843 248.12665323572836ZM54.08872108759843 247.67681932824803Q54.780773252952756 247.67681932824803 55.17581969734252 248.12665323572833Q55.57086614173228 248.57648714320865 55.57086614173228 249.37234713336613Q55.57086614173228 250.16532357283464 55.17581969734252 250.61659925565945Q54.780773252952756 251.06787493848427 54.08872108759843 251.06787493848427Q53.39378537155512 251.06787493848427 53.000180702509844 250.61659925565945Q52.60657603346457 250.16532357283464 52.60657603346457 249.37234713336613Q52.60657603346457 248.57648714320865 53.000180702509844 248.12665323572833Q53.39378537155512 247.67681932824803 54.08872108759843 247.67681932824803Z" fill="#7f8794"/><path d="M58.96480530265748 248.37463859498033Q59.16377030019685 248.01707830954726 59.44059116633858 247.84694881889766Q59.71741203248031 247.67681932824803 60.092273622047244 247.67681932824803Q60.59689499261811 247.67681932824803 60.87083230807087 248.03005428764766Q61.14476962352362 248.38328924704726 61.14476962352362 249.0349717027559V250.98425196850394H60.61131274606299V249.05227300688978Q60.61131274606299 248.58802134596456 60.44695035679133 248.36310439222441Q60.28258796751968 248.13818743848427 59.94521253690945 248.13818743848427Q59.53286478838582 248.13818743848427 59.293530081200785 248.412124753937Q59.05419537401575 248.68606206938978 59.05419537401575 249.1589643823819V250.98425196850394H58.52073849655512V249.05227300688978Q58.52073849655512 248.58513779527559 58.35637610728347 248.36166261687993Q58.19201371801181 248.13818743848427 57.84887118602362 248.13818743848427Q57.442290538877955 248.13818743848427 57.20295583169292 248.41356652928152Q56.963621124507874 248.68894562007875 56.963621124507874 249.1589643823819V250.98425196850394H56.430164247047244V247.7546751968504H56.963621124507874V248.2564130167323Q57.145284817913385 247.95940729576773 57.399037278543304 247.81811331200788Q57.65278973917323 247.67681932824803 58.00169937253937 247.67681932824803Q58.35349255659449 247.67681932824803 58.60003614050197 247.85559947096456Q58.84657972440945 248.0343796136811 58.96480530265748 248.37463859498033Z" fill="#7f8794"/><path d="M63.506397637795274 246.67911078986222H67.14832215797244V247.16931440698818H65.62004029281496V250.98425196850394H65.03467950295276V247.16931440698818H63.506397637795274Z" fill="#7f8794"/><path d="M67.71061454232283 246.67911078986222H68.57856329970473L69.67719611220473 249.60879828986222L70.78159602608267 246.67911078986222H71.64954478346456V250.98425196850394H71.08148529773622V247.2039170152559L69.97131828248031 250.15667292076773H69.3859574926181L68.2757904773622 247.2039170152559V250.98425196850394H67.71061454232283Z" fill="#7f8794"/>
<path d="M57.74636095903051 272.9626753198819Q57.04854169229822 272.9626753198819 56.63777989665354 273.4828678641732Q56.22701810100885 274.00306040846453 56.22701810100885 274.9007097379429Q56.22701810100885 275.79518716166336 56.63777989665354 276.3153797059547Q57.04854169229822 276.83557225024606 57.74636095903051 276.83557225024606Q58.44418022576279 276.83557225024606 58.8517701156496 276.3153797059547Q59.259360005536415 275.79518716166336 59.259360005536415 274.9007097379429Q59.259360005536415 274.00306040846453 58.8517701156496 273.4828678641732Q58.44418022576279 272.9626753198819 57.74636095903051 272.9626753198819ZM57.74636095903051 272.4424827755905Q58.74233936700295 272.4424827755905 59.33865764948327 273.11016893762303Q59.93497593196358 273.7778550996555 59.93497593196358 274.9007097379429Q59.93497593196358 276.0203924704724 59.33865764948327 276.6880786325049Q58.74233936700295 277.3557647945374 57.74636095903051 277.3557647945374Q56.74721064530019 277.3557647945374 56.14930640994094 276.68966458538387Q55.55140217458169 276.0235643762303 55.55140217458169 274.9007097379429Q55.55140217458169 273.7778550996555 56.14930640994094 273.11016893762303Q56.74721064530019 272.4424827755905 57.74636095903051 272.4424827755905Z" fill="#7f8794"/><path d="M63.18300742802657 275.04344549704723Q63.38918130228838 275.11322742372045 63.58425350639763 275.3416046382874Q63.77932571050688 275.5699818528543 63.975983867495074 275.96964197834643L64.62622454785925 277.26377952755905H63.937920998400585L63.332086998646645 276.0489396222933Q63.09736597256397 275.5731537586122 62.876918522391726 275.41773037647636Q62.65647107221948 275.2623069943405 62.2758423812746 275.2623069943405H61.57802311454232V277.26377952755905H60.93729815145176V272.52812423105314H62.38368717704232Q63.19569505105807 272.52812423105314 63.59535517655019 272.8675181471457Q63.99501530204232 273.2069120632382 63.99501530204232 273.892043706939Q63.99501530204232 274.3392824187992 63.78725547490157 274.6342696542815Q63.57949564776082 274.9292568897638 63.18300742802657 275.04344549704723ZM61.57802311454232 273.0546605868602V274.73577063853344H62.38368717704232Q62.846785417691926 274.73577063853344 63.08309239665354 274.52166699987697Q63.319399375615156 274.30756336122045 63.319399375615156 273.892043706939Q63.319399375615156 273.47652405265745 63.08309239665354 273.26559231975887Q62.846785417691926 273.0546605868602 62.38368717704232 273.0546605868602Z" fill="#7f8794"/>
<path d="M51.42158087782972 285.5202502153051H52.3763245109498L53.5848206046998 288.7429064653051L54.79966050996555 285.5202502153051H55.75440414308563V290.255905511811H55.129538708784445V286.0975370632382L53.90835499200295 289.34556855930117H53.264458123154526L52.04327440637303 286.0975370632382V290.255905511811H51.42158087782972Z" fill="#7f8794"/><path d="M56.95338451956201 285.5202502153051H57.59728138841043V288.39716873769686Q57.59728138841043 289.15842611958664 57.873237189345474 289.49306217704236Q58.14919299028051 289.82769823449803 58.76771461306594 289.82769823449803Q59.383064330093504 289.82769823449803 59.65902013102854 289.49306217704236Q59.93497593196358 289.15842611958664 59.93497593196358 288.39716873769686V285.5202502153051H60.57887280081201V288.4764663816437Q60.57887280081201 289.4026628629429 60.120532418799215 289.87527682086613Q59.662192036786415 290.34789077878935 58.76771461306594 290.34789077878935Q57.87006528358759 290.34789077878935 57.4117249015748 289.87527682086613Q56.95338451956201 289.4026628629429 56.95338451956201 288.4764663816437Z" fill="#7f8794"/><path d="M61.12444059116633 285.5202502153051H65.13055756336122V286.0594741941437H63.449447511687985V290.255905511811H62.80555064283956V286.0594741941437H61.12444059116633Z" fill="#7f8794"/><path d="M65.74907918614666 285.5202502153051H68.74335822157973V286.0594741941437H66.38980414923721V287.461456539124H68.64502914308564V288.0006805179626H66.38980414923721V289.7166815329724H68.80045252522146V290.255905511811H65.74907918614666Z" fill="#7f8794"/>
<path d="M55.06768654650591 298.5530342642717 54.19858436884843 300.90976024237204H55.93996062992126ZM54.70608929010827 297.92182501845474H55.43245570866142L57.23727008489173 302.65748031496065H56.57116987573819L56.139790692667326 301.4426404096949H54.00509811761811L53.573718934547244 302.65748031496065H52.89810300812008Z" fill="#7f8794"/><path d="M57.92874554010827 297.92182501845474H58.79150390625L60.8913055179626 301.8835353100394V297.92182501845474H61.51299904650591V302.65748031496065H60.65024068036418L58.55043906865158 298.695770023376V302.65748031496065H57.92874554010827Z" fill="#7f8794"/><path d="M63.428830124261815 298.4483613742618V302.13094395915357H64.20277512918307Q65.18289400836615 302.13094395915357 65.63806248462106 301.6868771530512Q66.09323096087599 301.24281034694883 66.09323096087599 300.2848948080709Q66.09323096087599 299.3333230807087 65.63806248462106 298.8908422274852Q65.18289400836615 298.4483613742618 64.20277512918307 298.4483613742618ZM62.78810516117126 297.92182501845474H64.10444605068898Q65.4810531496063 297.92182501845474 66.12495001845473 298.494354007751Q66.76884688730316 299.0668829970473 66.76884688730316 300.2848948080709Q66.76884688730316 301.5092504306103 66.12177811269686 302.08336537278547Q65.47470933809055 302.65748031496065 64.10444605068898 302.65748031496065H62.78810516117126Z" fill="#7f8794"/>
<path d="M25.04424327940453 340.162093996063H22.44039700725886L22.029491034079726 341.33858267716533H20.355589859128937L22.747495155634844 334.8808709092027H24.73281980499508L27.124725101500985 341.33858267716533H25.4508239265502ZM22.85562830647146 338.9639786847933H24.624686654158467L23.742320143331696 336.39473502091533Z" fill="#ffd166"/>
<path d="M96.28363181286912 337.38090935654526Q96.67723648191439 337.38090935654526 96.88052680548722 337.20789631520665Q97.08381712906005 337.0348832738681 97.08381712906005 336.6975078432579Q97.08381712906005 336.3644577386811 96.88052680548722 336.18928203432574Q96.67723648191439 336.01410632997045 96.28363181286912 336.01410632997045H95.36233736774116V337.38090935654526ZM96.33986105130415 340.2053472563976Q96.84159887118604 340.2053472563976 97.09463044414372 339.9934062807579Q97.3476620171014 339.7814653051181 97.3476620171014 339.3532580278051Q97.3476620171014 338.93370140255905 97.09679310716045 338.723923089936Q96.8459241972195 338.514144777313 96.33986105130415 338.514144777313H95.36233736774116V340.2053472563976ZM97.88832777128447 337.88264717642716Q98.42466819943407 338.0383589136319 98.71879036970967 338.45791553887796Q99.01291253998525 338.877472164124 99.01291253998525 339.4873431348425Q99.01291253998525 340.4216135580709 98.38141493909943 340.8800981176181Q97.7499173382136 341.33858267716533 96.46097018024116 341.33858267716533H93.6970868448573V334.8808709092027H96.19712529219981Q97.5423016886073 334.8808709092027 98.14568467027561 335.2874515563484Q98.74906765194392 335.6940322034941 98.74906765194392 336.58937469242125Q98.74906765194392 337.0608352300689 98.52847602423722 337.39172267162894Q98.30788439653053 337.722610113189 97.88832777128447 337.88264717642716Z" fill="#ffd166"/>
</svg>
